GeoramaExtended-Regular.ufo
<glyph name="exclam" format="2">
  <advance width="289.11599999999993"/>
  <unicode hex="0021"/>
  <outline>
    <contour>
      <point x="104.023" y="262.45" type="line"/>
      <point x="186.426" y="262.45" type="line"/>
      <point x="192.254" y="740.0" type="line"/>
      <point x="98.47399999999999" y="740.0" type="line"/>
    </contour>
    <contour>
      <point x="89.429" y="44.032" type="curve" smooth="yes"/>
      <point x="89.429" y="9.463"/>
      <point x="102.97099999999999" y="-3.317"/>
      <point x="144.55799999999996" y="-3.317" type="curve" smooth="yes"/>
      <point x="186.835" y="-3.317"/>
      <point x="199.687" y="9.463"/>
      <point x="199.687" y="44.032" type="curve" smooth="yes"/>
      <point x="199.687" y="78.911"/>
      <point x="186.835" y="91.691"/>
      <point x="144.55799999999996" y="91.691" type="curve" smooth="yes"/>
      <point x="102.28099999999999" y="91.691"/>
      <point x="89.429" y="78.911"/>
    </contour>
  </outline>
</glyph>
<glyph name="numbersign" format="2">
  <advance width="818.082"/>
  <unicode hex="0023"/>
  <outline>
    <contour>
      <point x="119.21399999999998" y="456.289" type="line"/>
      <point x="245.14199999999997" y="456.289" type="line"/>
      <point x="196.111" y="236.544" type="line"/>
      <point x="77.038" y="236.544" type="line"/>
      <point x="77.038" y="173.769" type="line"/>
      <point x="183.80899999999997" y="173.769" type="line"/>
      <point x="146.781" y="0.0" type="line"/>
      <point x="239.47599999999997" y="0.0" type="line"/>
      <point x="276.504" y="173.769" type="line"/>
      <point x="470.402" y="173.769" type="line"/>
      <point x="433.37399999999997" y="0.0" type="line"/>
      <point x="526.0690000000001" y="0.0" type="line"/>
      <point x="563.097" y="173.769" type="line"/>
      <point x="699.0849999999999" y="173.769" type="line"/>
      <point x="699.0849999999999" y="236.544" type="line"/>
      <point x="575.399" y="236.544" type="line"/>
      <point x="624.4300000000001" y="456.289" type="line"/>
      <point x="741.261" y="456.289" type="line"/>
      <point x="741.261" y="518.816" type="line"/>
      <point x="636.239" y="518.816" type="line"/>
      <point x="676.041" y="700.0" type="line"/>
      <point x="583.346" y="700.0" type="line"/>
      <point x="543.5439999999999" y="518.816" type="line"/>
      <point x="349.64599999999996" y="518.816" type="line"/>
      <point x="389.44800000000004" y="700.0" type="line"/>
      <point x="296.753" y="700.0" type="line"/>
      <point x="256.95099999999996" y="518.816" type="line"/>
      <point x="119.21399999999998" y="518.816" type="line"/>
    </contour>
    <contour>
      <point x="337.837" y="456.289" type="line"/>
      <point x="531.735" y="456.289" type="line"/>
      <point x="482.70399999999995" y="236.544" type="line"/>
      <point x="288.80600000000004" y="236.544" type="line"/>
    </contour>
  </outline>
</glyph>
<glyph name="dollar" format="2">
  <advance width="818.082"/>
  <unicode hex="0024"/>
  <outline>
    <contour>
      <point x="397.673" y="-10.0" type="curve" smooth="yes"/>
      <point x="621.597" y="-12.604000000000001"/>
      <point x="743.963" y="46.410000000000004"/>
      <point x="743.963" y="182.278" type="curve" smooth="yes"/>
      <point x="743.963" y="302.66"/>
      <point x="645.658" y="351.659"/>
      <point x="466.247" y="386.98099999999994" type="curve" smooth="yes"/>
      <point x="297.747" y="420.166"/>
      <point x="208.079" y="447.731"/>
      <point x="208.079" y="526.079" type="curve" smooth="yes"/>
      <point x="208.079" y="596.8639999999999"/>
      <point x="287.021" y="633.56"/>
      <point x="429.339" y="633.56" type="curve" smooth="yes"/>
      <point x="508.414" y="633.56"/>
      <point x="613.9229999999999" y="618.0419999999999"/>
      <point x="686.89" y="596.125" type="curve"/>
      <point x="704.5880000000001" y="671.6239999999999" type="line"/>
      <point x="627.5509999999999" y="694.345"/>
      <point x="519.971" y="710.0"/>
      <point x="429.49999999999994" y="710.0" type="curve" smooth="yes"/>
      <point x="227.987" y="709.034"/>
      <point x="111.52199999999999" y="646.712"/>
      <point x="111.52199999999999" y="518.701" type="curve" smooth="yes"/>
      <point x="111.52199999999999" y="398.655"/>
      <point x="206.693" y="349.038"/>
      <point x="373.75299999999993" y="314.625" type="curve" smooth="yes"/>
      <point x="549.861" y="279.34200000000004"/>
      <point x="646.7420000000001" y="252.614"/>
      <point x="646.7420000000001" y="174.496" type="curve" smooth="yes"/>
      <point x="646.7420000000001" y="98.818"/>
      <point x="573.653" y="64.35300000000001"/>
      <point x="416.96199999999993" y="64.35300000000001" type="curve" smooth="yes"/>
      <point x="323.08299999999997" y="64.35300000000001"/>
      <point x="189.77700000000002" y="86.243"/>
      <point x="92.819" y="117.527" type="curve"/>
      <point x="74.55299999999998" y="42.327" type="line"/>
      <point x="166.49399999999997" y="12.233999999999996"/>
      <point x="298.51699999999994" y="-9.132"/>
    </contour>
    <contour>
      <point x="389.237" y="-105.0" type="line"/>
      <point x="461.844" y="-105.0" type="line"/>
      <point x="461.844" y="2.8449999999999998" type="line"/>
      <point x="389.237" y="-0.608" type="line"/>
    </contour>
    <contour>
      <point x="389.237" y="698.572" type="line"/>
      <point x="461.844" y="700.9079999999999" type="line"/>
      <point x="461.844" y="804.814" type="line"/>
      <point x="389.237" y="804.814" type="line"/>
    </contour>
  </outline>
</glyph>
<glyph name="ampersand" format="2">
  <advance width="849.608"/>
  <unicode hex="0026"/>
  <outline>
    <contour>
      <point x="735.6619999999999" y="-7.627999999999999" type="line"/>
      <point x="847.0139999999999" y="3.3739999999999988" type="line"/>
      <point x="316.6339999999999" y="414.88800000000003" type="line" smooth="yes"/>
      <point x="263.322" y="457.876"/>
      <point x="237.61799999999997" y="495.406"/>
      <point x="237.61799999999997" y="537.518" type="curve" smooth="yes"/>
      <point x="237.61799999999997" y="603.242"/>
      <point x="293.93399999999997" y="641.02"/>
      <point x="405.012" y="641.02" type="curve" smooth="yes"/>
      <point x="503.28599999999994" y="641.02"/>
      <point x="561.9300000000001" y="604.806"/>
      <point x="561.9300000000001" y="537.6139999999999" type="curve" smooth="yes"/>
      <point x="561.9300000000001" y="485.266"/>
      <point x="533.106" y="450.56"/>
      <point x="470.12399999999997" y="430.95799999999997" type="curve"/>
      <point x="516.722" y="388.184" type="line"/>
      <point x="610.694" y="420.69399999999996"/>
      <point x="650.4399999999999" y="474.50199999999995"/>
      <point x="650.4399999999999" y="549.534" type="curve" smooth="yes"/>
      <point x="650.4399999999999" y="654.102"/>
      <point x="564.842" y="710.0"/>
      <point x="402.2219999999999" y="710.0" type="curve" smooth="yes"/>
      <point x="220.98999999999998" y="710.0"/>
      <point x="141.358" y="640.846"/>
      <point x="141.358" y="536.8980000000001" type="curve" smooth="yes"/>
      <point x="141.358" y="477.46199999999993"/>
      <point x="165.924" y="428.01"/>
      <point x="223.69599999999997" y="379.37800000000004" type="curve" smooth="yes"/>
    </contour>
    <contour>
      <point x="360.548" y="-10.0" type="curve" smooth="yes"/>
      <point x="467.03599999999994" y="-10.0"/>
      <point x="563.8479999999998" y="21.124"/>
      <point x="633.232" y="79.242" type="curve"/>
      <point x="582.62" y="130.416" type="line"/>
      <point x="535.3539999999999" y="85.00999999999999"/>
      <point x="464.756" y="58.05"/>
      <point x="370.46799999999996" y="58.05" type="curve" smooth="yes"/>
      <point x="228.95999999999998" y="58.05"/>
      <point x="140.29" y="114.96600000000001"/>
      <point x="140.29" y="207.35399999999996" type="curve" smooth="yes"/>
      <point x="140.29" y="277.76800000000003"/>
      <point x="183.732" y="324.08400000000006"/>
      <point x="268.41399999999993" y="356.16400000000004" type="curve"/>
      <point x="218.58599999999998" y="401.1" type="line"/>
      <point x="104.826" y="361.77000000000004"/>
      <point x="49.300000000000004" y="295.308"/>
      <point x="49.300000000000004" y="197.744" type="curve" smooth="yes"/>
      <point x="49.300000000000004" y="70.036"/>
      <point x="161.90599999999995" y="-10.0"/>
    </contour>
    <contour>
      <point x="685.866" y="110.454" type="line"/>
      <point x="739.2879999999999" y="166.63799999999998"/>
      <point x="771.108" y="236.506"/>
      <point x="771.108" y="316.912" type="curve" smooth="yes"/>
      <point x="771.108" y="338.83000000000004"/>
      <point x="768.3799999999999" y="354.502"/>
      <point x="763.7399999999999" y="373.256" type="curve"/>
      <point x="689.25" y="369.50199999999995" type="line"/>
      <point x="693.89" y="351.058"/>
      <point x="695.422" y="335.412"/>
      <point x="694.492" y="319.082" type="curve" smooth="yes"/>
      <point x="692.012" y="258.176"/>
      <point x="673.554" y="206.49200000000002"/>
      <point x="628.63" y="161.61599999999999" type="curve"/>
    </contour>
  </outline>
</glyph>
<glyph name="quotesingle" format="2">
  <advance width="199.57899999999998"/>
  <unicode hex="0027"/>
  <outline>
    <contour>
      <point x="63.58" y="427.0" type="line"/>
      <point x="135.72" y="427.0" type="line"/>
      <point x="142.177" y="700.0" type="line"/>
      <point x="57.402" y="700.0" type="line"/>
    </contour>
  </outline>
</glyph>
<glyph name="parenleft" format="2">
  <advance width="391.202"/>
  <unicode hex="0028"/>
  <outline>
    <contour>
      <point x="96.695" y="265.0" type="curve" smooth="yes"/>
      <point x="96.695" y="17.621999999999996"/>
      <point x="177.43300000000002" y="-188.375"/>
      <point x="364.755" y="-220.20700000000002" type="curve"/>
      <point x="364.755" y="-154.222" type="line"/>
      <point x="233.53499999999997" y="-117.972"/>
      <point x="176.44299999999998" y="40.749"/>
      <point x="176.44299999999998" y="265.0" type="curve" smooth="yes"/>
      <point x="176.44299999999998" y="489.25100000000003"/>
      <point x="233.53499999999997" y="647.9720000000001"/>
      <point x="364.755" y="684.222" type="curve"/>
      <point x="364.755" y="750.207" type="line"/>
      <point x="177.43300000000002" y="718.375"/>
      <point x="96.695" y="512.378"/>
    </contour>
  </outline>
</glyph>
<glyph name="parenright" format="2">
  <advance width="391.202"/>
  <unicode hex="0029"/>
  <outline>
    <contour>
      <point x="26.446999999999996" y="-154.222" type="curve"/>
      <point x="26.446999999999996" y="-220.20700000000002" type="line"/>
      <point x="213.769" y="-188.375"/>
      <point x="294.507" y="17.621999999999996"/>
      <point x="294.507" y="265.0" type="curve" smooth="yes"/>
      <point x="294.507" y="512.378"/>
      <point x="213.769" y="718.375"/>
      <point x="26.446999999999996" y="750.207" type="curve"/>
      <point x="26.446999999999996" y="684.222" type="line"/>
      <point x="157.667" y="647.9720000000001"/>
      <point x="214.759" y="489.25100000000003"/>
      <point x="214.759" y="265.0" type="curve" smooth="yes"/>
      <point x="214.759" y="40.749"/>
      <point x="157.667" y="-117.972"/>
    </contour>
  </outline>
</glyph>
<glyph name="asterisk" format="2">
  <advance width="402.87199999999996"/>
  <unicode hex="002A"/>
  <outline>
    <contour>
      <point x="103.941" y="333.59700000000004" type="line"/>
      <point x="201.91899999999998" y="462.623" type="line"/>
      <point x="297.965" y="333.11400000000003" type="line"/>
      <point x="334.102" y="358.131" type="line"/>
      <point x="245.53400000000002" y="495.68299999999994" type="line"/>
      <point x="392.997" y="551.2750000000001" type="line"/>
      <point x="378.996" y="592.429" type="line"/>
      <point x="229.506" y="548.168" type="line"/>
      <point x="225.22799999999998" y="710.0229999999999" type="line"/>
      <point x="178.60999999999996" y="710.0229999999999" type="line"/>
      <point x="174.332" y="548.168" type="line"/>
      <point x="23.876" y="592.429" type="line"/>
      <point x="9.875" y="551.2750000000001" type="line"/>
      <point x="158.304" y="495.68299999999994" type="line"/>
      <point x="67.321" y="359.097" type="line"/>
    </contour>
  </outline>
</glyph>
<glyph name="plus" format="2">
  <advance width="555.824"/>
  <unicode hex="002B"/>
  <outline>
    <contour>
      <point x="236.881" y="83.718" type="line"/>
      <point x="318.726" y="83.718" type="line"/>
      <point x="318.726" y="262.72499999999997" type="line"/>
      <point x="500.39599999999996" y="262.72499999999997" type="line"/>
      <point x="500.39599999999996" y="335.89000000000004" type="line"/>
      <point x="318.726" y="335.89000000000004" type="line"/>
      <point x="318.726" y="514.68" type="line"/>
      <point x="236.881" y="514.68" type="line"/>
      <point x="236.881" y="335.89000000000004" type="line"/>
      <point x="55.428" y="335.89000000000004" type="line"/>
      <point x="55.428" y="262.72499999999997" type="line"/>
      <point x="236.881" y="262.72499999999997" type="line"/>
    </contour>
  </outline>
</glyph>
<glyph name="comma" format="2">
  <advance width="228.60299999999998"/>
  <unicode hex="002C"/>
  <outline>
    <contour>
      <point x="72.45400000000001" y="54.972" type="line"/>
      <point x="79.725" y="32.585"/>
      <point x="83.66799999999999" y="9.044999999999998"/>
      <point x="83.66799999999999" y="-11.565999999999999" type="curve" smooth="yes"/>
      <point x="83.66799999999999" y="-73.06"/>
      <point x="58.797999999999995" y="-140.20000000000002"/>
      <point x="5.798999999999998" y="-178.827" type="curve"/>
      <point x="74.467" y="-198.689" type="line"/>
      <point x="142.085" y="-155.06099999999998"/>
      <point x="173.91400000000002" y="-79.875"/>
      <point x="173.91400000000002" y="-11.654000000000002" type="curve" smooth="yes"/>
      <point x="173.91400000000002" y="15.251"/>
      <point x="168.969" y="40.14699999999999"/>
      <point x="160.006" y="61.07800000000001" type="curve"/>
    </contour>
  </outline>
</glyph>
<glyph name="hyphen" format="2">
  <advance width="386.31899999999996"/>
  <unicode hex="002D"/>
  <outline>
    <contour>
      <point x="47.245999999999995" y="248.49" type="line"/>
      <point x="339.073" y="248.49" type="line"/>
      <point x="339.073" y="323.608" type="line"/>
      <point x="47.245999999999995" y="323.608" type="line"/>
    </contour>
  </outline>
</glyph>
<glyph name="period" format="2">
  <advance width="232.075"/>
  <unicode hex="002E"/>
  <outline>
    <contour>
      <point x="61.15" y="44.311" type="curve" smooth="yes"/>
      <point x="61.15" y="9.741999999999999"/>
      <point x="74.692" y="-3.038"/>
      <point x="116.279" y="-3.038" type="curve" smooth="yes"/>
      <point x="158.55599999999998" y="-3.038"/>
      <point x="171.408" y="9.741999999999999"/>
      <point x="171.408" y="44.311" type="curve" smooth="yes"/>
      <point x="171.408" y="79.19"/>
      <point x="158.55599999999998" y="91.97"/>
      <point x="116.279" y="91.97" type="curve" smooth="yes"/>
      <point x="74.002" y="91.97"/>
      <point x="61.15" y="79.19"/>
    </contour>
  </outline>
</glyph>
<glyph name="slash" format="2">
  <advance width="429.051"/>
  <unicode hex="002F"/>
  <outline>
    <contour>
      <point x="6.484" y="-210.0" type="line"/>
      <point x="83.725" y="-210.0" type="line"/>
      <point x="422.567" y="740.0" type="line"/>
      <point x="345.233" y="740.0" type="line"/>
    </contour>
  </outline>
</glyph>
<glyph name="zero" format="2">
  <advance width="818.082"/>
  <unicode hex="0030"/>
  <outline>
    <contour>
      <point x="38.995999999999995" y="350.0" type="curve" smooth="yes"/>
      <point x="38.995999999999995" y="70.602"/>
      <point x="206.461" y="-10.0"/>
      <point x="409.041" y="-10.0" type="curve" smooth="yes"/>
      <point x="611.776" y="-10.0"/>
      <point x="779.0859999999999" y="70.97399999999999"/>
      <point x="779.0859999999999" y="350.0" type="curve" smooth="yes"/>
      <point x="779.0859999999999" y="629.3259999999999"/>
      <point x="613.1709999999999" y="710.0"/>
      <point x="409.041" y="710.0" type="curve" smooth="yes"/>
      <point x="206.18200000000002" y="710.0"/>
      <point x="38.995999999999995" y="630.0699999999999"/>
    </contour>
    <contour>
      <point x="137.829" y="348.79100000000005" type="curve" smooth="yes"/>
      <point x="137.829" y="577.149"/>
      <point x="262.4869999999999" y="638.23"/>
      <point x="409.041" y="638.23" type="curve" smooth="yes"/>
      <point x="556.0289999999999" y="638.23"/>
      <point x="680.6869999999999" y="577.242"/>
      <point x="680.6869999999999" y="348.79100000000005" type="curve" smooth="yes"/>
      <point x="680.6869999999999" y="123.616"/>
      <point x="556.308" y="61.769999999999996"/>
      <point x="409.041" y="61.769999999999996" type="curve" smooth="yes"/>
      <point x="262.20799999999997" y="61.769999999999996"/>
      <point x="137.829" y="123.523"/>
    </contour>
  </outline>
</glyph>
<glyph name="one" format="2">
  <advance width="818.082"/>
  <unicode hex="0031"/>
  <outline>
    <contour>
      <point x="90.169" y="0.0" type="line"/>
      <point x="776.971" y="0.0" type="line"/>
      <point x="776.971" y="74.25" type="line"/>
      <point x="510.201" y="74.25" type="line"/>
      <point x="510.201" y="704.83" type="line"/>
      <point x="460.65999999999997" y="704.83" type="line"/>
      <point x="77.925" y="540.009" type="line"/>
      <point x="102.19099999999999" y="466.72700000000003" type="line"/>
      <point x="413.197" y="602.771" type="line"/>
      <point x="413.197" y="74.25" type="line"/>
      <point x="90.169" y="74.25" type="line"/>
    </contour>
  </outline>
</glyph>
<glyph name="two" format="2">
  <advance width="818.53"/>
  <unicode hex="0032"/>
  <outline>
    <contour>
      <point x="75.99999999999999" y="60.089999999999996" type="curve"/>
      <point x="79.88" y="0.0" type="line"/>
      <point x="754.6200000000001" y="0.0" type="line"/>
      <point x="754.6200000000001" y="74.56" type="line"/>
      <point x="240.06999999999996" y="74.56" type="line"/>
      <point x="584.1899999999999" y="284.90000000000003"/>
      <point x="663.4000000000001" y="368.17999999999995"/>
      <point x="663.4000000000001" y="495.25000000000006" type="curve" smooth="yes"/>
      <point x="663.4000000000001" y="628.84"/>
      <point x="566.24" y="710.0"/>
      <point x="381.42" y="710.0" type="curve" smooth="yes"/>
      <point x="283.8399999999999" y="710.0"/>
      <point x="176.12999999999997" y="684.78"/>
      <point x="99.97999999999999" y="642.61" type="curve"/>
      <point x="128.70000000000002" y="569.57" type="line"/>
      <point x="201.86999999999998" y="606.76"/>
      <point x="286.48" y="626.64"/>
      <point x="368.09" y="626.64" type="curve" smooth="yes"/>
      <point x="500.96999999999986" y="626.64"/>
      <point x="563.6099999999999" y="574.8000000000001"/>
      <point x="563.6099999999999" y="483.53999999999996" type="curve" smooth="yes"/>
      <point x="563.6099999999999" y="376.47"/>
      <point x="483.90999999999997" y="303.2300000000001"/>
    </contour>
  </outline>
</glyph>
<glyph name="three" format="2">
  <advance width="818.5299999999999"/>
  <unicode hex="0033"/>
  <outline>
    <contour>
      <point x="38.1" y="61.69999999999999" type="line"/>
      <point x="134.48000000000002" y="12.899999999999999"/>
      <point x="230.93999999999997" y="-9.5"/>
      <point x="368.8500000000001" y="-9.5" type="curve" smooth="yes"/>
      <point x="610.3199999999999" y="-9.5"/>
      <point x="746.89" y="70.07"/>
      <point x="746.89" y="207.11999999999998" type="curve" smooth="yes"/>
      <point x="746.89" y="296.23"/>
      <point x="677.8799999999999" y="356.44"/>
      <point x="551.43" y="369.26000000000005" type="curve"/>
      <point x="647.06" y="387.66999999999996"/>
      <point x="700.98" y="444.0"/>
      <point x="700.98" y="526.66" type="curve" smooth="yes"/>
      <point x="700.98" y="642.3800000000001"/>
      <point x="598.37" y="710.0"/>
      <point x="383.65999999999997" y="710.0" type="curve" smooth="yes"/>
      <point x="269.68" y="710.0"/>
      <point x="161.99999999999994" y="692.14"/>
      <point x="85.24999999999999" y="662.75" type="curve"/>
      <point x="104.14999999999999" y="591.31" type="line"/>
      <point x="185.35999999999999" y="618.58"/>
      <point x="277.45" y="632.65"/>
      <point x="368.46999999999997" y="632.65" type="curve" smooth="yes"/>
      <point x="527.9499999999999" y="632.65"/>
      <point x="605.9599999999999" y="588.22"/>
      <point x="605.9599999999999" y="511.71" type="curve" smooth="yes"/>
      <point x="605.9599999999999" y="438.21999999999997"/>
      <point x="537.3399999999999" y="396.35999999999996"/>
      <point x="398.07" y="396.35999999999996" type="curve" smooth="yes"/>
      <point x="222.54999999999998" y="396.35999999999996" type="line"/>
      <point x="222.54999999999998" y="329.23999999999995" type="line"/>
      <point x="385.24999999999994" y="329.23999999999995" type="line" smooth="yes"/>
      <point x="559.8100000000001" y="329.23999999999995"/>
      <point x="649.0799999999999" y="294.16"/>
      <point x="649.0799999999999" y="212.07999999999998" type="curve" smooth="yes"/>
      <point x="649.0799999999999" y="119.03"/>
      <point x="549.8899999999999" y="65.99"/>
      <point x="363.58" y="65.99" type="curve" smooth="yes"/>
      <point x="243.68999999999997" y="65.99"/>
      <point x="148.32" y="86.58"/>
      <point x="61.929999999999986" y="128.23000000000002" type="curve"/>
    </contour>
  </outline>
</glyph>
<glyph name="four" format="2">
  <advance width="818.53"/>
  <unicode hex="0034"/>
  <outline>
    <contour>
      <point x="31.630000000000003" y="167.86999999999998" type="line"/>
      <point x="526.69" y="167.86999999999998" type="line"/>
      <point x="526.69" y="0.0" type="line"/>
      <point x="623.8800000000001" y="0.0" type="line"/>
      <point x="623.8800000000001" y="167.86999999999998" type="line"/>
      <point x="785.2099999999999" y="167.86999999999998" type="line"/>
      <point x="785.2099999999999" y="236.85000000000002" type="line"/>
      <point x="623.8800000000001" y="236.85000000000002" type="line"/>
      <point x="623.8800000000001" y="699.81" type="line"/>
      <point x="553.27" y="705.5200000000001" type="line"/>
      <point x="28.489999999999995" y="233.54" type="line"/>
    </contour>
    <contour>
      <point x="132.23999999999998" y="236.85000000000002" type="line"/>
      <point x="527.62" y="588.37" type="line"/>
      <point x="527.62" y="236.85000000000002" type="line"/>
    </contour>
  </outline>
</glyph>
<glyph name="five" format="2">
  <advance width="818.454"/>
  <unicode hex="0035"/>
  <outline>
    <contour>
      <point x="54.315000000000005" y="60.178999999999995" type="line"/>
      <point x="143.72000000000003" y="14.489999999999997"/>
      <point x="232.444" y="-9.579"/>
      <point x="377.386" y="-9.579" type="curve" smooth="yes"/>
      <point x="618.991" y="-9.579"/>
      <point x="749.1179999999999" y="68.321"/>
      <point x="749.1179999999999" y="220.44" type="curve" smooth="yes"/>
      <point x="749.1179999999999" y="361.591"/>
      <point x="658.304" y="415.789"/>
      <point x="468.82199999999995" y="415.789" type="curve" smooth="yes"/>
      <point x="190.63199999999998" y="415.78900000000004" type="line"/>
      <point x="221.55700000000002" y="622.9599999999999" type="line"/>
      <point x="697.7289999999999" y="622.9599999999999" type="line"/>
      <point x="697.7289999999999" y="700.0" type="line"/>
      <point x="151.73999999999998" y="700.0" type="line"/>
      <point x="101.43499999999999" y="357.499" type="line"/>
      <point x="111.58999999999997" y="347.119" type="line"/>
      <point x="430.61799999999994" y="347.119" type="line" smooth="yes"/>
      <point x="599.088" y="347.119"/>
      <point x="652.5479999999999" y="306.542"/>
      <point x="652.5479999999999" y="217.185" type="curve" smooth="yes"/>
      <point x="652.5479999999999" y="119.31399999999998"/>
      <point x="571.63" y="66.066"/>
      <point x="372.736" y="66.066" type="curve" smooth="yes"/>
      <point x="235.48199999999997" y="66.066"/>
      <point x="153.808" y="90.983"/>
      <point x="79.259" y="127.715" type="curve"/>
    </contour>
  </outline>
</glyph>
<glyph name="six" format="2">
  <advance width="818.454"/>
  <unicode hex="0036"/>
  <outline>
    <contour>
      <point x="429.95399999999995" y="-10.0" type="curve" smooth="yes"/>
      <point x="651.372" y="-10.0"/>
      <point x="774.27" y="74.06400000000001"/>
      <point x="774.27" y="222.88400000000001" type="curve" smooth="yes"/>
      <point x="774.27" y="362.63"/>
      <point x="664.008" y="436.534"/>
      <point x="472.592" y="436.534" type="curve" smooth="yes"/>
      <point x="339.62999999999994" y="436.534"/>
      <point x="203.73400000000004" y="399.492"/>
      <point x="128.15" y="344.096" type="curve"/>
      <point x="131.58" y="273.24799999999993" type="line"/>
      <point x="204.144" y="325.318"/>
      <point x="326.064" y="365.18800000000005"/>
      <point x="443.3379999999999" y="365.18800000000005" type="curve" smooth="yes"/>
      <point x="590.514" y="365.18800000000005"/>
      <point x="678.32" y="317.96599999999995"/>
      <point x="678.32" y="221.30200000000002" type="curve" smooth="yes"/>
      <point x="678.32" y="121.17600000000002"/>
      <point x="590.544" y="63.71199999999999"/>
      <point x="437.28" y="63.71199999999999" type="curve" smooth="yes"/>
      <point x="238.86799999999997" y="63.71199999999999"/>
      <point x="141.836" y="147.74599999999998"/>
      <point x="141.836" y="342.474" type="curve" smooth="yes"/>
      <point x="141.836" y="537.59"/>
      <point x="247.76999999999998" y="632.8780000000002"/>
      <point x="464.62" y="632.8780000000002" type="curve" smooth="yes"/>
      <point x="560.3100000000001" y="632.8780000000002"/>
      <point x="637.068" y="619.0860000000001"/>
      <point x="724.1659999999999" y="597.63" type="curve"/>
      <point x="743.452" y="670.8860000000001" type="line"/>
      <point x="662.06" y="695.234"/>
      <point x="568.4979999999999" y="710.0"/>
      <point x="453.688" y="710.0" type="curve" smooth="yes"/>
      <point x="187.34" y="710.0"/>
      <point x="43.406000000000006" y="585.8820000000001"/>
      <point x="43.406000000000006" y="338.078" type="curve" smooth="yes"/>
      <point x="43.406000000000006" y="100.58199999999998"/>
      <point x="170.58600000000004" y="-10.0"/>
    </contour>
  </outline>
</glyph>
<glyph name="seven" format="2">
  <advance width="818.454"/>
  <unicode hex="0037"/>
  <outline>
    <contour>
      <point x="274.928" y="0.0" type="curve"/>
      <point x="373.66800000000006" y="0.0" type="line"/>
      <point x="375.642" y="126.124"/>
      <point x="421.212" y="223.94799999999998"/>
      <point x="516.8379999999999" y="346.93399999999997" type="curve" smooth="yes"/>
      <point x="744.6099999999998" y="638.6700000000001" type="line"/>
      <point x="744.6099999999998" y="700.0" type="line"/>
      <point x="70.934" y="700.0" type="line"/>
      <point x="70.934" y="618.9300000000001" type="line"/>
      <point x="625.002" y="618.9300000000001" type="line"/>
      <point x="440.5419999999999" y="388.07400000000007" type="line" smooth="yes"/>
      <point x="313.38999999999993" y="228.96400000000003"/>
      <point x="274.928" y="136.83200000000002"/>
    </contour>
  </outline>
</glyph>
<glyph name="eight" format="2">
  <advance width="818.53"/>
  <unicode hex="0038"/>
  <outline>
    <contour>
      <point x="520.3199999999999" y="377.62000000000006" type="curve"/>
      <point x="596.7799999999999" y="354.38" type="line"/>
      <point x="705.0199999999999" y="401.19"/>
      <point x="747.2" y="464.35999999999996"/>
      <point x="747.2" y="534.92" type="curve" smooth="yes"/>
      <point x="747.2" y="648.04"/>
      <point x="631.5200000000001" y="710.0"/>
      <point x="413.37" y="710.0" type="curve" smooth="yes"/>
      <point x="195.72" y="710.0"/>
      <point x="73.83999999999999" y="644.92"/>
      <point x="73.83999999999999" y="525.0" type="curve" smooth="yes"/>
      <point x="73.83999999999999" y="241.14"/>
      <point x="688.0500000000001" y="407.71000000000004"/>
      <point x="688.0500000000001" y="189.30999999999997" type="curve" smooth="yes"/>
      <point x="688.0500000000001" y="100.88000000000001"/>
      <point x="589.8100000000001" y="56.809999999999995"/>
      <point x="412.03000000000003" y="56.809999999999995" type="curve" smooth="yes"/>
      <point x="227.85000000000002" y="56.809999999999995"/>
      <point x="128.12" y="107.81"/>
      <point x="128.12" y="198.94" type="curve" smooth="yes"/>
      <point x="128.12" y="269.53000000000003"/>
      <point x="179.26000000000002" y="321.90999999999997"/>
      <point x="283.22999999999996" y="359.69000000000005" type="curve"/>
      <point x="209.70999999999995" y="391.99" type="line"/>
      <point x="86.66" y="346.72999999999996"/>
      <point x="29.69" y="277.53999999999996"/>
      <point x="29.69" y="191.91" type="curve" smooth="yes"/>
      <point x="29.69" y="62.31"/>
      <point x="159.41000000000003" y="-10.0"/>
      <point x="402.11" y="-10.0" type="curve" smooth="yes"/>
      <point x="654.82" y="-10.0"/>
      <point x="788.9599999999999" y="58.50000000000001"/>
      <point x="788.9599999999999" y="198.49" type="curve" smooth="yes"/>
      <point x="788.9599999999999" y="484.27000000000004"/>
      <point x="167.31000000000003" y="327.62000000000006"/>
      <point x="167.31000000000003" y="527.8100000000001" type="curve" smooth="yes"/>
      <point x="167.31000000000003" y="600.8000000000001"/>
      <point x="250.80999999999997" y="640.2800000000001"/>
      <point x="408.40999999999997" y="640.2800000000001" type="curve" smooth="yes"/>
      <point x="571.4699999999999" y="640.2800000000001"/>
      <point x="654.6599999999999" y="599.8900000000001"/>
      <point x="654.6599999999999" y="522.95" type="curve" smooth="yes"/>
      <point x="654.6599999999999" y="464.83"/>
      <point x="623.13" y="422.68"/>
    </contour>
  </outline>
</glyph>
<glyph name="nine" format="2">
  <advance width="818.454"/>
  <unicode hex="0039"/>
  <outline>
    <contour>
      <point x="363.866" y="-10.0" type="curve" smooth="yes"/>
      <point x="630.2139999999999" y="-10.0"/>
      <point x="770.2819999999999" y="112.87799999999999"/>
      <point x="770.2819999999999" y="358.82199999999995" type="curve" smooth="yes"/>
      <point x="770.2819999999999" y="598.1779999999999"/>
      <point x="647.132" y="710.0"/>
      <point x="402.4339999999999" y="710.0" type="curve" smooth="yes"/>
      <point x="173.97" y="710.0"/>
      <point x="39.418" y="627.842"/>
      <point x="39.418" y="477.07199999999995" type="curve" smooth="yes"/>
      <point x="39.418" y="338.656"/>
      <point x="151.67399999999998" y="263.466"/>
      <point x="339.54599999999994" y="263.466" type="curve" smooth="yes"/>
      <point x="473.748" y="263.466"/>
      <point x="609.334" y="297.94599999999997"/>
      <point x="685.538" y="353.65200000000004" type="curve"/>
      <point x="684.6519999999999" y="426.26" type="line"/>
      <point x="610.506" y="370.848"/>
      <point x="487.3139999999999" y="332.95199999999994"/>
      <point x="370.34999999999997" y="332.95199999999994" type="curve" smooth="yes"/>
      <point x="229.688" y="332.95199999999994"/>
      <point x="135.058" y="384.56"/>
      <point x="135.058" y="479.584" type="curve" smooth="yes"/>
      <point x="135.058" y="581.9700000000001"/>
      <point x="234.798" y="636.598"/>
      <point x="395.108" y="636.598" type="curve" smooth="yes"/>
      <point x="578.8499999999999" y="636.598"/>
      <point x="672.4719999999999" y="552.5640000000001"/>
      <point x="672.4719999999999" y="357.52599999999995" type="curve" smooth="yes"/>
      <point x="672.4719999999999" y="162.41"/>
      <point x="569.4739999999999" y="65.882"/>
      <point x="352.93399999999997" y="65.882" type="curve" smooth="yes"/>
      <point x="263.13399999999996" y="65.882"/>
      <point x="182.82" y="80.914"/>
      <point x="89.52199999999999" y="102.05999999999999" type="curve"/>
      <point x="70.23599999999999" y="30.044" type="line"/>
      <point x="157.82799999999997" y="5.385999999999998"/>
      <point x="255.25599999999994" y="-10.0"/>
    </contour>
  </outline>
</glyph>
<glyph name="less" format="2">
  <advance width="555.824"/>
  <unicode hex="003C"/>
  <outline>
    <contour>
      <point x="502.14199999999994" y="66.351" type="line"/>
      <point x="502.14199999999994" y="141.37199999999999" type="line"/>
      <point x="137.082" y="297.639" type="line"/>
      <point x="502.14199999999994" y="454.955" type="line"/>
      <point x="502.14199999999994" y="529.42" type="line"/>
      <point x="53.681999999999995" y="333.803" type="line"/>
      <point x="53.681999999999995" y="260.824" type="line"/>
    </contour>
  </outline>
</glyph>
<glyph name="equal" format="2">
  <advance width="553.9639999999999"/>
  <unicode hex="003D"/>
  <outline>
    <contour>
      <point x="498.536" y="226.078" type="line"/>
      <point x="55.428" y="226.078" type="line"/>
      <point x="55.428" y="152.91299999999998" type="line"/>
      <point x="498.536" y="152.91299999999998" type="line"/>
    </contour>
    <contour>
      <point x="498.536" y="444.331" type="line"/>
      <point x="55.428" y="444.331" type="line"/>
      <point x="55.428" y="371.166" type="line"/>
      <point x="498.536" y="371.166" type="line"/>
    </contour>
  </outline>
</glyph>
<glyph name="greater" format="2">
  <advance width="555.824"/>
  <unicode hex="003E"/>
  <outline>
    <contour>
      <point x="502.14199999999994" y="260.617" type="line"/>
      <point x="502.14199999999994" y="333.596" type="line"/>
      <point x="53.681999999999995" y="529.42" type="line"/>
      <point x="53.681999999999995" y="454.058" type="line"/>
      <point x="418.742" y="297.432" type="line"/>
      <point x="53.681999999999995" y="140.958" type="line"/>
      <point x="53.681999999999995" y="66.351" type="line"/>
    </contour>
  </outline>
</glyph>
<glyph name="question" format="2">
  <advance width="570.436"/>
  <unicode hex="003F"/>
  <outline>
    <contour>
      <point x="221.651" y="261.001" type="line"/>
      <point x="304.147" y="261.001" type="line"/>
      <point x="304.581" y="325.36199999999997" type="line"/>
      <point x="466.88199999999995" y="375.063"/>
      <point x="539.779" y="434.905"/>
      <point x="539.779" y="545.91" type="curve" smooth="yes"/>
      <point x="539.779" y="697.11"/>
      <point x="409.42699999999996" y="749.907"/>
      <point x="284.705" y="749.907" type="curve" smooth="yes"/>
      <point x="193.676" y="749.907"/>
      <point x="86.88" y="724.079"/>
      <point x="12.783999999999999" y="676.302" type="curve"/>
      <point x="40.495999999999995" y="607.164" type="line"/>
      <point x="112.75899999999999" y="650.1829999999999"/>
      <point x="196.5" y="670.966"/>
      <point x="270.94100000000003" y="670.966" type="curve" smooth="yes"/>
      <point x="355.34599999999995" y="670.966"/>
      <point x="441.142" y="636.054"/>
      <point x="441.142" y="539.969" type="curve" smooth="yes"/>
      <point x="441.142" y="469.594"/>
      <point x="393.71599999999995" y="416.01900000000006"/>
      <point x="219.76" y="370.851" type="curve"/>
    </contour>
    <contour>
      <point x="210.665" y="44.032" type="curve" smooth="yes"/>
      <point x="210.665" y="9.463"/>
      <point x="224.528" y="-3.317"/>
      <point x="266.00100000000003" y="-3.317" type="curve" smooth="yes"/>
      <point x="307.978" y="-3.317"/>
      <point x="321.13" y="9.463"/>
      <point x="321.13" y="44.032" type="curve" smooth="yes"/>
      <point x="321.13" y="78.911"/>
      <point x="307.978" y="91.691"/>
      <point x="266.00100000000003" y="91.691" type="curve" smooth="yes"/>
      <point x="223.631" y="91.691"/>
      <point x="210.665" y="78.911"/>
    </contour>
  </outline>
</glyph>
<glyph name="at" format="2">
  <advance width="968.424"/>
  <unicode hex="0040"/>
  <outline>
    <contour>
      <point x="462.828" y="-123.62" type="curve" smooth="yes"/>
      <point x="556.774" y="-123.62"/>
      <point x="649.962" y="-99.69"/>
      <point x="719.544" y="-68.2" type="curve"/>
      <point x="703.6239999999999" y="-19.358000000000004" type="line"/>
      <point x="639.8919999999999" y="-49.28999999999999"/>
      <point x="556.5" y="-70.49199999999999"/>
      <point x="469.33799999999997" y="-70.49199999999999" type="curve" smooth="yes"/>
      <point x="261.906" y="-70.49199999999999"/>
      <point x="117.13399999999999" y="30.441999999999997"/>
      <point x="117.13399999999999" y="268.506" type="curve" smooth="yes"/>
      <point x="117.13399999999999" y="487.532"/>
      <point x="246.78999999999996" y="658.846"/>
      <point x="494.548" y="658.846" type="curve" smooth="yes"/>
      <point x="734.9540000000001" y="658.846"/>
      <point x="855.02" y="542.3080000000001"/>
      <point x="855.02" y="337.548" type="curve" smooth="yes"/>
      <point x="855.02" y="209.58799999999997"/>
      <point x="810.4599999999999" y="118.912"/>
      <point x="753.56" y="118.912" type="curve" smooth="yes"/>
      <point x="707.882" y="118.912"/>
      <point x="682.5099999999999" y="152.068"/>
      <point x="688.376" y="248.928" type="curve" smooth="yes"/>
      <point x="704.2279999999998" y="495.26200000000006" type="line"/>
      <point x="639.8340000000001" y="514.554"/>
      <point x="570.594" y="526.7979999999999"/>
      <point x="513.8580000000001" y="526.7979999999999" type="curve" smooth="yes"/>
      <point x="340.174" y="526.7979999999999"/>
      <point x="249.404" y="405.486"/>
      <point x="249.404" y="264.44599999999997" type="curve" smooth="yes"/>
      <point x="249.404" y="132.974"/>
      <point x="315.77" y="66.528"/>
      <point x="413.17799999999994" y="66.528" type="curve" smooth="yes"/>
      <point x="502.3319999999999" y="66.528"/>
      <point x="577.3219999999999" y="124.52000000000001"/>
      <point x="615.424" y="228.488" type="curve"/>
      <point x="619.982" y="126.91999999999999"/>
      <point x="647.562" y="60.98599999999999"/>
      <point x="739.53" y="60.98599999999999" type="curve" smooth="yes"/>
      <point x="852.9939999999999" y="60.98599999999999"/>
      <point x="912.326" y="191.696"/>
      <point x="912.326" y="339.222" type="curve" smooth="yes"/>
      <point x="912.326" y="576.6080000000001"/>
      <point x="766.4119999999999" y="709.7339999999999"/>
      <point x="501.678" y="709.7339999999999" type="curve" smooth="yes"/>
      <point x="213.01999999999998" y="709.7339999999999"/>
      <point x="57.516" y="517.9300000000001"/>
      <point x="57.516" y="268.94000000000005" type="curve" smooth="yes"/>
      <point x="57.516" y="-3.1960000000000015"/>
      <point x="222.412" y="-123.62"/>
    </contour>
    <contour>
      <point x="441.12" y="137.10199999999998" type="curve" smooth="yes"/>
      <point x="384.80199999999996" y="137.10199999999998"/>
      <point x="340.95200000000006" y="179.198"/>
      <point x="340.95200000000006" y="271.76200000000006" type="curve" smooth="yes"/>
      <point x="340.95200000000006" y="370.30800000000005"/>
      <point x="401.172" y="462.892"/>
      <point x="506.72" y="462.892" type="curve" smooth="yes"/>
      <point x="538.4359999999999" y="462.892"/>
      <point x="579.452" y="457.03000000000003"/>
      <point x="616.586" y="446.93999999999994" type="curve"/>
      <point x="609.0799999999999" y="352.76000000000005" type="line" smooth="yes"/>
      <point x="583.496" y="192.122"/>
      <point x="512.884" y="137.10199999999998"/>
    </contour>
  </outline>
</glyph>
<glyph name="A" format="2">
  <advance width="803.091"/>
  <unicode hex="0041"/>
  <anchor x="793.0669999999999" y="0.0" name="ogonek"/>
  <anchor x="398.35799999999995" y="0.0" name="bottom"/>
  <anchor x="402.26399999999995" y="700.0" name="top"/>
  <outline>
    <contour>
      <point x="10.458" y="0.0" type="line"/>
      <point x="116.24000000000001" y="0.0" type="line"/>
      <point x="201.93399999999997" y="180.96599999999995" type="line"/>
      <point x="594.3839999999999" y="180.96599999999995" type="line"/>
      <point x="680.757" y="0.0" type="line"/>
      <point x="793.0669999999999" y="0.0" type="line"/>
      <point x="452.55099999999993" y="706.9" type="line"/>
      <point x="349.957" y="706.9" type="line"/>
    </contour>
    <contour>
      <point x="230.40999999999997" y="257.53299999999996" type="line"/>
      <point x="398.26" y="619.2420000000001" type="line"/>
      <point x="566.1739999999999" y="257.53299999999996" type="line"/>
    </contour>
  </outline>
</glyph>
<glyph name="B" format="2">
  <advance width="838.7399999999999"/>
  <unicode hex="0042"/>
  <anchor x="423.12999999999994" y="700.0" name="top"/>
  <anchor x="423.12999999999994" y="0.0" name="bottom"/>
  <outline>
    <contour>
      <point x="95.99399999999999" y="2.8159999999999994" type="line"/>
      <point x="269.67999999999995" y="-7.847999999999999"/>
      <point x="323.512" y="-10.0"/>
      <point x="442.246" y="-10.0" type="curve" smooth="yes"/>
      <point x="703.3979999999999" y="-10.0"/>
      <point x="795.448" y="47.146"/>
      <point x="795.448" y="196.548" type="curve" smooth="yes"/>
      <point x="795.448" y="292.922"/>
      <point x="726.2259999999999" y="358.118"/>
      <point x="612.4219999999999" y="374.94" type="curve"/>
      <point x="612.4219999999999" y="376.826" type="line"/>
      <point x="699.136" y="399.81800000000004"/>
      <point x="746.4419999999999" y="458.346"/>
      <point x="746.4419999999999" y="540.556" type="curve" smooth="yes"/>
      <point x="746.4419999999999" y="663.24"/>
      <point x="662.742" y="710.0"/>
      <point x="432.01000000000005" y="710.0" type="curve" smooth="yes"/>
      <point x="343.58799999999997" y="710.0"/>
      <point x="252.19600000000003" y="706.2280000000001"/>
      <point x="95.99399999999999" y="696.6460000000001" type="curve"/>
    </contour>
    <contour>
      <point x="195.974" y="395.846" type="line"/>
      <point x="195.974" y="626.174" type="line"/>
      <point x="322.98199999999997" y="633.7379999999999"/>
      <point x="334.81199999999995" y="634.7379999999999"/>
      <point x="418.78799999999995" y="634.7379999999999" type="curve" smooth="yes"/>
      <point x="589.992" y="634.7379999999999"/>
      <point x="649.872" y="601.386"/>
      <point x="649.872" y="516.9960000000001" type="curve" smooth="yes"/>
      <point x="649.872" y="445.264"/>
      <point x="589.2259999999999" y="395.846"/>
      <point x="493.95599999999996" y="395.846" type="curve" smooth="yes"/>
    </contour>
    <contour>
      <point x="195.974" y="74.09200000000001" type="curve"/>
      <point x="195.974" y="323.7660000000001" type="line"/>
      <point x="498.7299999999999" y="323.7660000000001" type="line" smooth="yes"/>
      <point x="626.132" y="323.7660000000001"/>
      <point x="691.438" y="280.11400000000003"/>
      <point x="691.438" y="199.85" type="curve" smooth="yes"/>
      <point x="691.438" y="101.672"/>
      <point x="625.6139999999998" y="65.11"/>
      <point x="431.2539999999999" y="65.11" type="curve" smooth="yes"/>
      <point x="370.38599999999997" y="65.11"/>
      <point x="319.714" y="67.262"/>
    </contour>
  </outline>
</glyph>
<glyph name="C" format="2">
  <advance width="829.8869999999998"/>
  <unicode hex="0043"/>
  <anchor x="461.984" y="700.0" name="top"/>
  <anchor x="458.274" y="0.0" name="bottom"/>
  <outline>
    <contour>
      <point x="58.881" y="335.83199999999994" type="curve" smooth="yes"/>
      <point x="58.881" y="91.92099999999999"/>
      <point x="203.06" y="-10.0"/>
      <point x="464.795" y="-10.0" type="curve" smooth="yes"/>
      <point x="596.117" y="-10.0"/>
      <point x="699.056" y="5.852999999999999"/>
      <point x="787.8800000000001" y="32.109" type="curve"/>
      <point x="769.2119999999999" y="104.85" type="line"/>
      <point x="682.6729999999999" y="81.25"/>
      <point x="577.537" y="67.556"/>
      <point x="478.45599999999996" y="67.556" type="curve" smooth="yes"/>
      <point x="268.801" y="67.556"/>
      <point x="160.53499999999997" y="149.915"/>
      <point x="160.53499999999997" y="337.754" type="curve" smooth="yes"/>
      <point x="160.53499999999997" y="541.633"/>
      <point x="272.998" y="631.245"/>
      <point x="490.44999999999993" y="631.245" type="curve" smooth="yes"/>
      <point x="580.4369999999999" y="631.245"/>
      <point x="654.1859999999999" y="622.6659999999999"/>
      <point x="739.991" y="602.2220000000001" type="curve"/>
      <point x="760.426" y="676.74" type="line"/>
      <point x="672.068" y="700.863"/>
      <point x="599.7879999999999" y="710.0"/>
      <point x="484.4769999999999" y="710.0" type="curve" smooth="yes"/>
      <point x="209.04199999999997" y="710.0"/>
      <point x="58.881" y="592.014"/>
    </contour>
  </outline>
</glyph>
<glyph name="D" format="2">
  <advance width="903.9699999999999"/>
  <unicode hex="0044"/>
  <anchor x="445.326" y="700.0" name="top"/>
  <outline>
    <contour>
      <point x="424.506" y="-10.0" type="curve" smooth="yes"/>
      <point x="694.2679999999999" y="-10.0"/>
      <point x="844.9959999999999" y="104.974"/>
      <point x="844.9959999999999" y="345.39199999999994" type="curve" smooth="yes"/>
      <point x="844.9959999999999" y="598.1959999999999"/>
      <point x="708.534" y="710.0"/>
      <point x="408.4939999999999" y="710.0" type="curve" smooth="yes"/>
      <point x="307.64" y="710.0"/>
      <point x="213.218" y="707.114"/>
      <point x="95.99399999999999" y="700.456" type="curve"/>
      <point x="95.99399999999999" y="-1.3040000000000014" type="line"/>
      <point x="208.012" y="-5.190000000000001"/>
      <point x="319.73999999999995" y="-10.0"/>
    </contour>
    <contour>
      <point x="423.8879999999999" y="62.782000000000004" type="curve" smooth="yes"/>
      <point x="365.59200000000004" y="62.782000000000004"/>
      <point x="259.628" y="66.086"/>
      <point x="195.974" y="69.50399999999999" type="curve"/>
      <point x="195.974" y="630.6919999999999" type="line"/>
      <point x="264.76599999999996" y="634.686"/>
      <point x="355.53999999999996" y="637.1039999999999"/>
      <point x="412.4" y="637.1039999999999" type="curve" smooth="yes"/>
      <point x="635.8039999999999" y="637.1039999999999"/>
      <point x="742.466" y="550.3760000000001"/>
      <point x="742.466" y="345.968" type="curve" smooth="yes"/>
      <point x="742.466" y="152.592"/>
      <point x="627.4799999999999" y="62.782000000000004"/>
    </contour>
  </outline>
</glyph>
<glyph name="E" format="2">
  <advance width="769.2599999999999"/>
  <unicode hex="0045"/>
  <anchor x="730.658" y="0.0" name="ogonek"/>
  <anchor x="413.51599999999996" y="0.0" name="bottom"/>
  <anchor x="410.33" y="700.0" name="top"/>
  <outline>
    <contour>
      <point x="95.99399999999999" y="0.0" type="line"/>
      <point x="730.968" y="0.0" type="line"/>
      <point x="730.968" y="82.61999999999998" type="line"/>
      <point x="196.284" y="82.61999999999998" type="line"/>
      <point x="196.284" y="328.674" type="line"/>
      <point x="679.9619999999999" y="328.674" type="line"/>
      <point x="679.9619999999999" y="409.32" type="line"/>
      <point x="196.284" y="409.32" type="line"/>
      <point x="196.284" y="617.38" type="line"/>
      <point x="707.544" y="617.38" type="line"/>
      <point x="707.544" y="700.0" type="line"/>
      <point x="95.99399999999999" y="700.0" type="line"/>
    </contour>
  </outline>
</glyph>
<glyph name="F" format="2">
  <advance width="731.0840000000001"/>
  <unicode hex="0046"/>
  <outline>
    <contour>
      <point x="95.99399999999999" y="0.0" type="line"/>
      <point x="196.284" y="0.0" type="line"/>
      <point x="196.284" y="274.25800000000004" type="line"/>
      <point x="645.19" y="274.25800000000004" type="line"/>
      <point x="645.19" y="354.594" type="line"/>
      <point x="195.974" y="354.594" type="line"/>
      <point x="195.974" y="616.76" type="line"/>
      <point x="705.064" y="616.76" type="line"/>
      <point x="705.064" y="700.0" type="line"/>
      <point x="95.99399999999999" y="700.0" type="line"/>
    </contour>
  </outline>
</glyph>
<glyph name="G" format="2">
  <advance width="872.9039999999999"/>
  <unicode hex="0047"/>
  <anchor x="452.355" y="700.0" name="top"/>
  <anchor x="453.59499999999997" y="0.0" name="bottom"/>
  <outline>
    <contour>
      <point x="58.881" y="336.018" type="curve" smooth="yes"/>
      <point x="58.881" y="107.628"/>
      <point x="193.98699999999997" y="-10.0"/>
      <point x="446.577" y="-10.0" type="curve" smooth="yes"/>
      <point x="584.328" y="-10.0"/>
      <point x="708.192" y="8.661"/>
      <point x="797.012" y="44.65" type="curve"/>
      <point x="797.012" y="352.676" type="line"/>
      <point x="462.935" y="352.676" type="line"/>
      <point x="462.935" y="281.95" type="line"/>
      <point x="707.4789999999999" y="281.95" type="line"/>
      <point x="707.4789999999999" y="96.191" type="line"/>
      <point x="640.582" y="73.951"/>
      <point x="558.501" y="63.154"/>
      <point x="461.13699999999994" y="63.154" type="curve" smooth="yes"/>
      <point x="267.676" y="63.154"/>
      <point x="160.349" y="153.953"/>
      <point x="160.349" y="337.103" type="curve" smooth="yes"/>
      <point x="160.349" y="529.006"/>
      <point x="270.84499999999997" y="631.431"/>
      <point x="474.32500000000005" y="631.431" type="curve" smooth="yes"/>
      <point x="563.2090000000001" y="631.431"/>
      <point x="652.7139999999999" y="620.016"/>
      <point x="743.654" y="595.85" type="curve"/>
      <point x="763.0659999999999" y="669.5880000000001" type="line"/>
      <point x="672.9419999999999" y="697.04"/>
      <point x="581.2459999999999" y="710.0"/>
      <point x="468.81699999999995" y="710.0" type="curve" smooth="yes"/>
      <point x="203.695" y="710.0"/>
      <point x="58.881" y="578.733"/>
    </contour>
  </outline>
</glyph>
<glyph name="H" format="2">
  <advance width="929.164"/>
  <unicode hex="0048"/>
  <anchor x="464.87" y="700.0" name="top"/>
  <outline>
    <contour>
      <point x="95.80799999999999" y="0.0" type="line"/>
      <point x="195.32299999999998" y="0.0" type="line"/>
      <point x="195.32299999999998" y="267.29800000000006" type="line"/>
      <point x="733.841" y="267.29800000000006" type="line"/>
      <point x="733.841" y="0.0" type="line"/>
      <point x="833.356" y="0.0" type="line"/>
      <point x="833.356" y="700.0" type="line"/>
      <point x="733.841" y="700.0" type="line"/>
      <point x="733.841" y="350.176" type="line"/>
      <point x="195.32299999999998" y="350.176" type="line"/>
      <point x="195.32299999999998" y="700.0" type="line"/>
      <point x="95.80799999999999" y="700.0" type="line"/>
    </contour>
  </outline>
</glyph>
<glyph name="I" format="2">
  <advance width="291.131"/>
  <unicode hex="0049"/>
  <anchor x="195.32299999999998" y="0.0" name="ogonek"/>
  <anchor x="145.612" y="0.0" name="bottom"/>
  <anchor x="145.612" y="700.0" name="top"/>
  <outline>
    <contour>
      <point x="95.80799999999999" y="0.0" type="line"/>
      <point x="195.32299999999998" y="0.0" type="line"/>
      <point x="195.32299999999998" y="700.0" type="line"/>
      <point x="95.80799999999999" y="700.0" type="line"/>
    </contour>
  </outline>
</glyph>
<glyph name="J" format="2">
  <advance width="643.1339999999999"/>
  <unicode hex="004A"/>
  <anchor x="319.703" y="700.0" name="top"/>
  <outline>
    <contour>
      <point x="17.645999999999997" y="29.828" type="line"/>
      <point x="103.928" y="3.416999999999999"/>
      <point x="205.08499999999998" y="-10.482999999999999"/>
      <point x="286.483" y="-10.482999999999999" type="curve" smooth="yes"/>
      <point x="473.91200000000003" y="-10.482999999999999"/>
      <point x="564.556" y="70.502"/>
      <point x="564.556" y="244.548" type="curve" smooth="yes"/>
      <point x="564.556" y="700.0" type="line"/>
      <point x="77.52199999999999" y="700.0" type="line"/>
      <point x="77.52199999999999" y="618.92" type="line"/>
      <point x="465.04099999999994" y="618.92" type="line"/>
      <point x="465.04099999999994" y="257.87699999999995" type="line" smooth="yes"/>
      <point x="465.04099999999994" y="121.79799999999999"/>
      <point x="393.97399999999993" y="68.086"/>
      <point x="264.659" y="68.086" type="curve" smooth="yes"/>
      <point x="201.047" y="68.086"/>
      <point x="116.02099999999999" y="81.407"/>
      <point x="37.947" y="104.005" type="curve"/>
    </contour>
  </outline>
</glyph>
<glyph name="K" format="2">
  <advance width="842.6799999999998"/>
  <unicode hex="004B"/>
  <anchor x="420.65999999999997" y="700.0" name="top"/>
  <anchor x="409.77" y="0.0" name="bottom"/>
  <outline>
    <contour>
      <point x="801.14" y="-10.0" type="curve" smooth="yes"/>
      <point x="806.81" y="-10.0"/>
      <point x="814.55" y="-10.0"/>
      <point x="822.41" y="-8.5" type="curve"/>
      <point x="822.41" y="83.42" type="line"/>
      <point x="816.36" y="82.73"/>
      <point x="810.12" y="82.73"/>
      <point x="805.0699999999999" y="82.73" type="curve" smooth="yes"/>
      <point x="741.7399999999999" y="83.49000000000001"/>
      <point x="689.3999999999999" y="107.77000000000001"/>
      <point x="572.61" y="190.25" type="curve" smooth="yes"/>
      <point x="195.73999999999995" y="456.14" type="line"/>
      <point x="195.73999999999995" y="700.0" type="line"/>
      <point x="96.07" y="700.0" type="line"/>
      <point x="96.07" y="0.0" type="line"/>
      <point x="195.73999999999995" y="0.0" type="line"/>
      <point x="195.73999999999995" y="348.85" type="line"/>
      <point x="549.93" y="98.3" type="line" smooth="yes"/>
      <point x="659.6699999999998" y="20.94"/>
      <point x="728.59" y="-10.0"/>
    </contour>
    <contour>
      <point x="351.72999999999996" y="311.92" type="line"/>
      <point x="506.7699999999999" y="380.73"/>
      <point x="698.9499999999999" y="498.47999999999996"/>
      <point x="796.1199999999999" y="660.9" type="curve"/>
      <point x="722.08" y="707.79" type="line"/>
      <point x="615.2299999999999" y="540.6"/>
      <point x="416.21" y="423.18"/>
      <point x="282.29" y="357.10999999999996" type="curve"/>
    </contour>
  </outline>
</glyph>
<glyph name="L" format="2">
  <advance width="704.49"/>
  <unicode hex="004C"/>
  <anchor x="352.53299999999996" y="350.0" name="center"/>
  <anchor x="145.612" y="700.0" name="top"/>
  <anchor x="441.865" y="700.0" name="topright"/>
  <anchor x="382.563" y="0.0" name="bottom"/>
  <outline>
    <contour>
      <point x="95.80799999999999" y="0.0" type="line"/>
      <point x="681.13" y="0.0" type="line"/>
      <point x="681.13" y="82.22699999999999" type="line"/>
      <point x="195.41599999999997" y="82.22699999999999" type="line"/>
      <point x="195.41599999999997" y="700.0" type="line"/>
      <point x="95.80799999999999" y="700.0" type="line"/>
    </contour>
  </outline>
</glyph>
<glyph name="M" format="2">
  <advance width="1039.9589999999998"/>
  <unicode hex="004D"/>
  <outline>
    <contour>
      <point x="96.008" y="0.0" type="line"/>
      <point x="188.42399999999998" y="0.0" type="line"/>
      <point x="188.42399999999998" y="573.838" type="line"/>
      <point x="496.176" y="230.495" type="line"/>
      <point x="541.237" y="230.495" type="line"/>
      <point x="851.535" y="576.7520000000001" type="line"/>
      <point x="851.535" y="0.0" type="line"/>
      <point x="943.9509999999999" y="0.0" type="line"/>
      <point x="943.9509999999999" y="700.0" type="line"/>
      <point x="848.04" y="700.0" type="line"/>
      <point x="521.764" y="329.693" type="line"/>
      <point x="196.724" y="700.0" type="line"/>
      <point x="96.008" y="700.0" type="line"/>
    </contour>
  </outline>
</glyph>
<glyph name="N" format="2">
  <advance width="910.48"/>
  <unicode hex="004E"/>
  <anchor x="455.48999999999995" y="700.0" name="top"/>
  <anchor x="455.48999999999995" y="0.0" name="bottom"/>
  <outline>
    <contour>
      <point x="95.91499999999999" y="0.0" type="line"/>
      <point x="186.90499999999997" y="0.0" type="line"/>
      <point x="186.90499999999997" y="564.95" type="line"/>
      <point x="725.3499999999999" y="-0.6200000000000001" type="line"/>
      <point x="814.5649999999999" y="-0.6200000000000001" type="line"/>
      <point x="814.5649999999999" y="700.0" type="line"/>
      <point x="723.5749999999999" y="700.0" type="line"/>
      <point x="723.5749999999999" y="131.90500000000003" type="line"/>
      <point x="185.09499999999997" y="704.83" type="line"/>
      <point x="95.91499999999999" y="704.83" type="line"/>
    </contour>
  </outline>
</glyph>
<glyph name="O" format="2">
  <advance width="957.1349999999999"/>
  <unicode hex="004F"/>
  <anchor x="548.325" y="0.46499999999999986" name="ogonek"/>
  <anchor x="477.455" y="700.0" name="top"/>
  <anchor x="728.8550000000001" y="674.7850000000001" name="topright"/>
  <anchor x="477.91999999999996" y="0.0" name="bottom"/>
  <outline>
    <contour>
      <point x="477.60999999999996" y="62.82" type="curve" smooth="yes"/>
      <point x="321.82500000000005" y="62.82"/>
      <point x="160.425" y="123.30999999999999"/>
      <point x="160.425" y="349.965" type="curve" smooth="yes"/>
      <point x="160.425" y="582.71"/>
      <point x="320.74" y="637.8000000000001"/>
      <point x="477.60999999999996" y="637.8000000000001" type="curve" smooth="yes"/>
      <point x="636.5649999999999" y="637.8000000000001"/>
      <point x="795.8649999999998" y="581.54"/>
      <point x="795.8649999999998" y="350.12" type="curve" smooth="yes"/>
      <point x="795.8649999999998" y="119.20000000000002"/>
      <point x="636.41" y="62.82"/>
    </contour>
    <contour>
      <point x="477.91999999999996" y="-10.0" type="curve" smooth="yes"/>
      <point x="706.265" y="-10.0"/>
      <point x="897.7749999999999" y="67.96499999999999"/>
      <point x="897.7749999999999" y="353.46500000000003" type="curve" smooth="yes"/>
      <point x="897.7749999999999" y="630.64"/>
      <point x="705.515" y="710.0"/>
      <point x="477.60999999999996" y="710.0" type="curve" smooth="yes"/>
      <point x="247.82500000000002" y="710.0"/>
      <point x="59.359999999999985" y="628.76"/>
      <point x="59.359999999999985" y="350.585" type="curve" smooth="yes"/>
      <point x="59.359999999999985" y="76.09"/>
      <point x="252.94" y="-10.0"/>
    </contour>
  </outline>
</glyph>
<glyph name="P" format="2">
  <advance width="838.665"/>
  <unicode hex="0050"/>
  <outline>
    <contour>
      <point x="95.80799999999999" y="0.0" type="line"/>
      <point x="195.41599999999997" y="0.0" type="line"/>
      <point x="195.41599999999997" y="232.655" type="line"/>
      <point x="313.273" y="229.276"/>
      <point x="343.483" y="228.793"/>
      <point x="446.155" y="228.793" type="curve" smooth="yes"/>
      <point x="703.299" y="228.793"/>
      <point x="795.813" y="291.587"/>
      <point x="795.813" y="475.053" type="curve" smooth="yes"/>
      <point x="795.813" y="645.1689999999999"/>
      <point x="722.526" y="710.0"/>
      <point x="411.668" y="710.0" type="curve" smooth="yes"/>
      <point x="360.82699999999994" y="710.0"/>
      <point x="272.203" y="707.876"/>
      <point x="95.80799999999999" y="701.014" type="curve"/>
    </contour>
    <contour>
      <point x="195.509" y="629.6999999999999" type="line"/>
      <point x="323.64599999999996" y="635.3319999999999"/>
      <point x="366.99299999999994" y="636.505"/>
      <point x="418.85" y="636.505" type="curve" smooth="yes"/>
      <point x="640.752" y="636.505"/>
      <point x="694.686" y="589.546"/>
      <point x="694.686" y="475.331" type="curve" smooth="yes"/>
      <point x="694.686" y="349.192"/>
      <point x="639.233" y="303.074"/>
      <point x="412.696" y="303.074" type="curve" smooth="yes"/>
      <point x="331.30199999999996" y="303.074"/>
      <point x="287.62999999999994" y="304.74"/>
      <point x="195.509" y="307.45" type="curve"/>
    </contour>
  </outline>
</glyph>
<glyph name="Q" format="2">
  <advance width="957.228"/>
  <unicode hex="0051"/>
  <outline>
    <contour>
      <point x="590.2519999999998" y="15.003999999999998" type="curve"/>
      <point x="500.2499999999999" y="1.4720000000000004" type="line"/>
      <point x="553.536" y="-130.0"/>
      <point x="621.464" y="-204.501"/>
      <point x="728.295" y="-204.501" type="curve" smooth="yes"/>
      <point x="764.279" y="-204.501"/>
      <point x="805.9259999999999" y="-196.586"/>
      <point x="850.5889999999999" y="-178.473" type="curve"/>
      <point x="836.7649999999999" y="-104.677" type="line"/>
      <point x="803.507" y="-119.182"/>
      <point x="772.4549999999999" y="-125.94600000000001"/>
      <point x="745.4150000000001" y="-125.94600000000001" type="curve" smooth="yes"/>
      <point x="675.0269999999999" y="-125.94600000000001"/>
      <point x="629.7149999999999" y="-75.27099999999999"/>
    </contour>
    <component base="O"/>
  </outline>
</glyph>
<glyph name="R" format="2">
  <advance width="881.87"/>
  <unicode hex="0052"/>
  <anchor x="423.67999999999995" y="700.0" name="top"/>
  <anchor x="438.54999999999995" y="0.0" name="bottom"/>
  <outline>
    <contour>
      <point x="843.91" y="-10.0" type="curve" smooth="yes"/>
      <point x="852.4399999999998" y="-10.0"/>
      <point x="861.42" y="-9.0"/>
      <point x="868.28" y="-8.0" type="curve"/>
      <point x="867.5899999999999" y="79.7" type="line"/>
      <point x="862.4699999999999" y="79.00999999999999"/>
      <point x="854.66" y="78.50999999999999"/>
      <point x="850.7299999999999" y="78.50999999999999" type="curve" smooth="yes"/>
      <point x="783.9999999999999" y="78.50999999999999"/>
      <point x="679.5999999999999" y="159.08999999999997"/>
      <point x="562.9299999999998" y="294.26" type="curve"/>
      <point x="701.43" y="315.32000000000005"/>
      <point x="782.67" y="368.36999999999995"/>
      <point x="782.67" y="504.70000000000005" type="curve" smooth="yes"/>
      <point x="782.67" y="659.3199999999999"/>
      <point x="681.2599999999999" y="709.81"/>
      <point x="396.68999999999994" y="709.81" type="curve" smooth="yes"/>
      <point x="306.54" y="709.81"/>
      <point x="223.37999999999997" y="707.6899999999999"/>
      <point x="96.07" y="701.5699999999999" type="curve"/>
      <point x="96.07" y="0.0" type="line"/>
      <point x="196.04999999999998" y="0.0" type="line"/>
      <point x="196.04999999999998" y="275.28" type="line"/>
      <point x="261.4099999999999" y="273.4"/>
      <point x="327.64000000000004" y="272.52"/>
      <point x="385.7899999999999" y="272.52" type="curve" smooth="yes"/>
      <point x="404.22999999999996" y="272.52"/>
      <point x="432.7099999999999" y="272.4"/>
      <point x="451.15" y="273.09" type="curve"/>
      <point x="598.0299999999999" y="100.36999999999999"/>
      <point x="737.93" y="-10.0"/>
    </contour>
    <contour>
      <point x="406.75" y="349.25000000000006" type="curve" smooth="yes"/>
      <point x="341.15999999999997" y="349.25000000000006"/>
      <point x="276.66999999999996" y="350.75"/>
      <point x="196.04999999999998" y="353.25" type="curve"/>
      <point x="196.04999999999998" y="632.73" type="line"/>
      <point x="284.8999999999999" y="637.4200000000001"/>
      <point x="316.28999999999996" y="637.61"/>
      <point x="401.22" y="637.61" type="curve" smooth="yes"/>
      <point x="610.93" y="637.61"/>
      <point x="679.9" y="602.88"/>
      <point x="679.9" y="493.66" type="curve" smooth="yes"/>
      <point x="679.9" y="383.8"/>
      <point x="611.49" y="349.25000000000006"/>
    </contour>
  </outline>
</glyph>
<glyph name="S" format="2">
  <advance width="780.05"/>
  <unicode hex="0053"/>
  <anchor x="393.1" y="700.0" name="top"/>
  <anchor x="387.52" y="0.0" name="bottom"/>
  <outline>
    <contour>
      <point x="687.24" y="671.4999999999999" type="line"/>
      <point x="628.4699999999999" y="688.04"/>
      <point x="512.5799999999999" y="710.0"/>
      <point x="403.90999999999997" y="710.0" type="curve" smooth="yes"/>
      <point x="175.39" y="710.0"/>
      <point x="59.36000000000001" y="640.64"/>
      <point x="59.36000000000001" y="515.0199999999999" type="curve" smooth="yes"/>
      <point x="59.36000000000001" y="395.16"/>
      <point x="167.52999999999997" y="350.24"/>
      <point x="338.4099999999999" y="315.39000000000004" type="curve" smooth="yes"/>
      <point x="519.66" y="280.25"/>
      <point x="633.97" y="259.22"/>
      <point x="633.97" y="179.42" type="curve" smooth="yes"/>
      <point x="633.97" y="101.93999999999998"/>
      <point x="550.4299999999998" y="64.25"/>
      <point x="386.34" y="64.25" type="curve" smooth="yes"/>
      <point x="269.16999999999996" y="64.25"/>
      <point x="119.32" y="95.21999999999998"/>
      <point x="49.93000000000001" y="118.11000000000001" type="curve"/>
      <point x="29.91" y="42.809999999999995" type="line"/>
      <point x="98.61000000000001" y="20.419999999999998"/>
      <point x="253.02999999999994" y="-10.0"/>
      <point x="376.72999999999996" y="-10.0" type="curve" smooth="yes"/>
      <point x="609.8100000000001" y="-10.0"/>
      <point x="736.62" y="54.099999999999994"/>
      <point x="736.62" y="187.86" type="curve" smooth="yes"/>
      <point x="736.62" y="309.67999999999995"/>
      <point x="623.06" y="351.5"/>
      <point x="439.51" y="386.46999999999997" type="curve" smooth="yes"/>
      <point x="264.77" y="419.25"/>
      <point x="161.7" y="441.28"/>
      <point x="161.7" y="522.1500000000001" type="curve" smooth="yes"/>
      <point x="161.7" y="595.04"/>
      <point x="246.35999999999999" y="635.9399999999999"/>
      <point x="399.57" y="635.9399999999999" type="curve" smooth="yes"/>
      <point x="495.39" y="635.9399999999999"/>
      <point x="612.05" y="615.0999999999999"/>
      <point x="668.3399999999999" y="597.32" type="curve"/>
    </contour>
  </outline>
</glyph>
<glyph name="T" format="2">
  <advance width="724.282"/>
  <unicode hex="0054"/>
  <anchor x="362.141" y="700.0" name="top"/>
  <anchor x="362.141" y="0.0" name="bottom"/>
  <outline>
    <contour>
      <point x="711.824" y="617.884" type="line"/>
      <point x="711.824" y="700.0" type="line"/>
      <point x="12.458" y="700.0" type="line"/>
      <point x="12.458" y="617.884" type="line"/>
      <point x="312.43" y="617.884" type="line"/>
      <point x="312.43" y="0.0" type="line"/>
      <point x="411.945" y="0.0" type="line"/>
      <point x="411.945" y="617.884" type="line"/>
    </contour>
  </outline>
</glyph>
<glyph name="U" format="2">
  <advance width="892.81"/>
  <unicode hex="0055"/>
  <anchor x="520.2019999999999" y="0.186" name="ogonek"/>
  <anchor x="446.55499999999995" y="700.0" name="top"/>
  <anchor x="814.232" y="700.0" name="topright"/>
  <anchor x="446.55499999999995" y="0.0" name="bottom"/>
  <outline>
    <contour>
      <point x="78.578" y="251.52399999999997" type="line"/>
      <point x="78.578" y="48.46000000000001"/>
      <point x="246.76199999999997" y="-10.0"/>
      <point x="446.36899999999997" y="-10.0" type="curve" smooth="yes"/>
      <point x="646.627" y="-10.0"/>
      <point x="814.232" y="48.46000000000001"/>
      <point x="814.232" y="251.52399999999997" type="curve" smooth="yes"/>
      <point x="814.232" y="700.0" type="line"/>
      <point x="716.267" y="700.0" type="line"/>
      <point x="716.267" y="256.143" type="line" smooth="yes"/>
      <point x="716.267" y="104.38699999999999"/>
      <point x="582.067" y="66.327"/>
      <point x="447.02" y="66.327" type="curve" smooth="yes"/>
      <point x="313.585" y="66.327"/>
      <point x="176.35699999999997" y="102.434"/>
      <point x="176.35699999999997" y="256.143" type="curve" smooth="yes"/>
      <point x="176.35699999999997" y="700.0" type="line"/>
      <point x="78.578" y="700.0" type="line"/>
    </contour>
  </outline>
</glyph>
<glyph name="V" format="2">
  <advance width="806.231"/>
  <unicode hex="0056"/>
  <outline>
    <contour>
      <point x="351.98699999999997" y="0.0" type="line"/>
      <point x="455.205" y="0.0" type="line"/>
      <point x="799.121" y="697.205" type="line"/>
      <point x="694.3019999999999" y="703.512" type="line"/>
      <point x="404.03" y="93.5" type="line"/>
      <point x="112.58" y="703.512" type="line"/>
      <point x="7.109999999999999" y="697.205" type="line"/>
    </contour>
  </outline>
</glyph>
<glyph name="W" format="2">
  <advance width="1073.2299999999998"/>
  <unicode hex="0057"/>
  <anchor x="536.3649999999999" y="700.0" name="top"/>
  <anchor x="536.3649999999999" y="0.0" name="bottom"/>
  <outline>
    <contour>
      <point x="845.4839999999999" y="0.0" type="line"/>
      <point x="1065.1319999999998" y="698.271" type="line"/>
      <point x="960.3589999999999" y="702.446" type="line"/>
      <point x="798.7219999999999" y="114.891" type="line"/>
      <point x="585.867" y="668.292" type="line"/>
      <point x="492.22999999999996" y="668.292" type="line"/>
      <point x="275.686" y="114.023" type="line"/>
      <point x="111.569" y="702.446" type="line"/>
      <point x="8.098" y="698.271" type="line"/>
      <point x="224.956" y="0.0" type="line"/>
      <point x="318.27" y="0.0" type="line"/>
      <point x="534.009" y="538.945" type="line"/>
      <point x="744.6329999999999" y="0.0" type="line"/>
    </contour>
  </outline>
</glyph>
<glyph name="X" format="2">
  <advance width="792.4300000000001"/>
  <unicode hex="0058"/>
  <outline>
    <contour>
      <point x="14.269999999999998" y="4.14" type="line"/>
      <point x="123.24999999999999" y="-4.829999999999999" type="line"/>
      <point x="394.6299999999999" y="297.45000000000005" type="line"/>
      <point x="662.5500000000001" y="-4.829999999999999" type="line"/>
      <point x="776.9199999999998" y="4.14" type="line"/>
      <point x="460.3999999999999" y="361.92999999999995" type="line"/>
      <point x="759.02" y="695.4799999999999" type="line"/>
      <point x="654.8800000000001" y="703.52" type="line"/>
      <point x="402.45" y="422.24" type="line"/>
      <point x="153.04999999999998" y="704.14" type="line"/>
      <point x="36.510000000000005" y="695.4799999999999" type="line"/>
      <point x="339.96999999999997" y="359.81000000000006" type="line"/>
    </contour>
  </outline>
</glyph>
<glyph name="Y" format="2">
  <advance width="791.8"/>
  <unicode hex="0059"/>
  <anchor x="396.1069999999999" y="700.0" name="top"/>
  <anchor x="399.281" y="0.0" name="bottom"/>
  <outline>
    <contour>
      <point x="349.68399999999997" y="0.0" type="line"/>
      <point x="449.19899999999996" y="0.0" type="line"/>
      <point x="449.19899999999996" y="284.77" type="line"/>
      <point x="784.2689999999999" y="695.515" type="line"/>
      <point x="678.8019999999999" y="704.485" type="line"/>
      <point x="399.92199999999997" y="346.12199999999996" type="line"/>
      <point x="113.03799999999998" y="704.485" type="line"/>
      <point x="6.702999999999999" y="695.515" type="line"/>
      <point x="349.68399999999997" y="284.77" type="line"/>
    </contour>
  </outline>
</glyph>
<glyph name="Z" format="2">
  <advance width="768.2959999999999"/>
  <unicode hex="005A"/>
  <anchor x="384.442" y="350.0" name="center"/>
  <anchor x="384.442" y="0.0" name="bottom"/>
  <anchor x="387.091" y="700.0" name="top"/>
  <outline>
    <contour>
      <point x="33.98499999999999" y="0.0" type="line"/>
      <point x="739.717" y="0.0" type="line"/>
      <point x="739.717" y="75.531" type="line"/>
      <point x="169.162" y="75.531" type="line"/>
      <point x="169.162" y="77.376" type="line"/>
      <point x="704.694" y="631.37" type="line"/>
      <point x="704.694" y="700.0" type="line"/>
      <point x="59.12699999999999" y="700.0" type="line"/>
      <point x="59.12699999999999" y="624.779" type="line"/>
      <point x="571.997" y="624.779" type="line"/>
      <point x="571.997" y="622.624" type="line"/>
      <point x="33.98499999999999" y="68.94000000000001" type="line"/>
    </contour>
  </outline>
</glyph>
<glyph name="bracketleft" format="2">
  <advance width="391.202"/>
  <unicode hex="005B"/>
  <outline>
    <contour>
      <point x="167.94400000000002" y="-148.15" type="line"/>
      <point x="167.94400000000002" y="678.1500000000001" type="line"/>
      <point x="358.752" y="678.1500000000001" type="line"/>
      <point x="358.752" y="740.0" type="line"/>
      <point x="91.86500000000001" y="740.0" type="line"/>
      <point x="91.86500000000001" y="-210.0" type="line"/>
      <point x="358.752" y="-210.0" type="line"/>
      <point x="358.752" y="-148.15" type="line"/>
    </contour>
  </outline>
</glyph>
<glyph name="backslash" format="2">
  <advance width="429.051"/>
  <unicode hex="005C"/>
  <outline>
    <contour>
      <point x="83.81800000000001" y="740.0" type="line"/>
      <point x="6.484" y="740.0" type="line"/>
      <point x="345.326" y="-210.0" type="line"/>
      <point x="422.567" y="-210.0" type="line"/>
    </contour>
  </outline>
</glyph>
<glyph name="bracketright" format="2">
  <advance width="391.202"/>
  <unicode hex="005D"/>
  <outline>
    <contour>
      <point x="32.449999999999996" y="-148.15" type="line"/>
      <point x="32.449999999999996" y="-210.0" type="line"/>
      <point x="299.337" y="-210.0" type="line"/>
      <point x="299.337" y="740.0" type="line"/>
      <point x="32.449999999999996" y="740.0" type="line"/>
      <point x="32.449999999999996" y="678.1500000000001" type="line"/>
      <point x="223.25799999999998" y="678.1500000000001" type="line"/>
      <point x="223.25799999999998" y="-148.15" type="line"/>
    </contour>
  </outline>
</glyph>
<glyph name="asciicircum" format="2">
  <advance width="555.824"/>
  <unicode hex="005E"/>
  <outline>
    <contour>
      <point x="49.185" y="257.40099999999995" type="line"/>
      <point x="127.26099999999998" y="257.40099999999995" type="line"/>
      <point x="277.912" y="610.0609999999999" type="line"/>
      <point x="428.873" y="257.40099999999995" type="line"/>
      <point x="506.639" y="257.40099999999995" type="line"/>
      <point x="319.129" y="706.9" type="line"/>
      <point x="236.695" y="706.9" type="line"/>
    </contour>
  </outline>
</glyph>
<glyph name="underscore" format="2">
  <advance width="892.754"/>
  <unicode hex="005F"/>
  <outline>
    <contour>
      <point x="6.2" y="-158.847" type="line"/>
      <point x="886.554" y="-158.847" type="line"/>
      <point x="886.554" y="-92.967" type="line"/>
      <point x="6.2" y="-92.967" type="line"/>
    </contour>
  </outline>
</glyph>
<glyph name="a" format="2">
  <advance width="668.8999999999999"/>
  <unicode hex="0061"/>
  <anchor x="651.6999999999999" y="4.2700000000000005" name="ogonek"/>
  <anchor x="331.88000000000005" y="0.0" name="bottom"/>
  <anchor x="332.3299999999999" y="536.2" name="top"/>
  <outline>
    <contour>
      <point x="46.72" y="131.69" type="curve" smooth="yes"/>
      <point x="46.72" y="32.91"/>
      <point x="117.57" y="-10.0"/>
      <point x="210.90999999999997" y="-10.0" type="curve" smooth="yes"/>
      <point x="325.39" y="-10.0"/>
      <point x="413.77" y="33.09"/>
      <point x="480.82" y="84.17999999999999" type="curve"/>
      <point x="490.12" y="14.2"/>
      <point x="527.61" y="-10.0"/>
      <point x="587.1899999999999" y="-10.0" type="curve" smooth="yes"/>
      <point x="613.52" y="-10.0"/>
      <point x="638.7999999999998" y="-3.78"/>
      <point x="660.9999999999999" y="8.919999999999998" type="curve"/>
      <point x="650.66" y="71.49" type="line"/>
      <point x="640.02" y="67.11"/>
      <point x="629.02" y="65.73"/>
      <point x="619.57" y="65.73" type="curve" smooth="yes"/>
      <point x="588.3700000000001" y="65.73"/>
      <point x="568.8299999999999" y="82.58"/>
      <point x="569.2099999999999" y="143.01" type="curve" smooth="yes"/>
      <point x="570.16" y="366.06000000000006" type="line" smooth="yes"/>
      <point x="570.7299999999999" y="490.19"/>
      <point x="479.8" y="546.2"/>
      <point x="314.2900000000001" y="546.2" type="curve" smooth="yes"/>
      <point x="242.61" y="546.2"/>
      <point x="162.24" y="533.96"/>
      <point x="88.19" y="514.46" type="curve"/>
      <point x="102.17999999999999" y="445.36" type="line"/>
      <point x="175.1" y="465.0"/>
      <point x="251.97000000000003" y="474.43"/>
      <point x="309.59000000000003" y="474.43" type="curve" smooth="yes"/>
      <point x="419.13" y="474.43"/>
      <point x="475.71" y="435.93"/>
      <point x="475.33" y="365.13000000000005" type="curve" smooth="yes"/>
      <point x="475.14" y="306.73999999999995" type="line"/>
      <point x="183.03000000000003" y="293.2"/>
      <point x="46.72" y="272.26"/>
    </contour>
    <contour>
      <point x="144.21999999999997" y="138.23999999999998" type="curve" smooth="yes"/>
      <point x="144.21999999999997" y="233.33999999999997"/>
      <point x="266.42999999999995" y="246.91"/>
      <point x="474.95" y="255.18999999999997" type="curve"/>
      <point x="474.38" y="139.67999999999998" type="line"/>
      <point x="408.39" y="84.07000000000001"/>
      <point x="314.34000000000003" y="51.35"/>
      <point x="243.95999999999998" y="51.35" type="curve" smooth="yes"/>
      <point x="182.51000000000002" y="51.35"/>
      <point x="144.21999999999997" y="79.79"/>
    </contour>
  </outline>
</glyph>
<glyph name="b" format="2">
  <advance width="709.043"/>
  <unicode hex="0062"/>
  <outline>
    <contour>
      <point x="82.485" y="17.728999999999996" type="line"/>
      <point x="180.95499999999998" y="-0.8390000000000006"/>
      <point x="262.355" y="-10.0"/>
      <point x="333.492" y="-10.0" type="curve" smooth="yes"/>
      <point x="556.2979999999999" y="-10.0"/>
      <point x="660.075" y="80.65099999999998"/>
      <point x="660.075" y="282.67199999999997" type="curve" smooth="yes"/>
      <point x="660.075" y="449.997"/>
      <point x="573.715" y="546.2"/>
      <point x="426.32" y="546.2" type="curve" smooth="yes"/>
      <point x="343.712" y="546.2"/>
      <point x="268.732" y="520.886"/>
      <point x="177.66000000000003" y="461.055" type="curve"/>
      <point x="177.66000000000003" y="740.0" type="line"/>
      <point x="82.485" y="740.0" type="line"/>
    </contour>
    <contour>
      <point x="177.66000000000003" y="74.265" type="curve"/>
      <point x="177.66000000000003" y="395.7900000000001" type="line"/>
      <point x="261.31299999999993" y="449.472"/>
      <point x="323.147" y="471.0"/>
      <point x="391.805" y="471.0" type="curve" smooth="yes"/>
      <point x="498.93399999999997" y="471.0"/>
      <point x="563.009" y="401.771"/>
      <point x="563.009" y="277.681" type="curve" smooth="yes"/>
      <point x="563.009" y="122.877"/>
      <point x="488.20799999999997" y="55.551"/>
      <point x="334.596" y="55.551" type="curve" smooth="yes"/>
      <point x="290.52599999999995" y="55.551"/>
      <point x="238.215" y="61.489999999999995"/>
    </contour>
  </outline>
</glyph>
<glyph name="c" format="2">
  <advance width="655.487"/>
  <unicode hex="0063"/>
  <anchor x="372.835" y="536.2" name="top"/>
  <anchor x="373.042" y="0.0" name="bottom"/>
  <outline>
    <contour>
      <point x="49.278" y="256.056" type="curve" smooth="yes"/>
      <point x="49.278" y="78.404"/>
      <point x="159.769" y="-10.0"/>
      <point x="372.027" y="-10.0" type="curve" smooth="yes"/>
      <point x="454.009" y="-10.0"/>
      <point x="549.2959999999999" y="2.7250000000000005"/>
      <point x="622.608" y="21.540999999999997" type="curve"/>
      <point x="609.587" y="85.178" type="line"/>
      <point x="537.6370000000001" y="69.142"/>
      <point x="459.01199999999994" y="58.463"/>
      <point x="390.38899999999995" y="58.463" type="curve" smooth="yes"/>
      <point x="234.607" y="58.463"/>
      <point x="145.10399999999998" y="115.401"/>
      <point x="145.10399999999998" y="257.75899999999996" type="curve" smooth="yes"/>
      <point x="145.10399999999998" y="412.73299999999995"/>
      <point x="235.721" y="476.869"/>
      <point x="386.25199999999995" y="476.869" type="curve" smooth="yes"/>
      <point x="448.405" y="476.869"/>
      <point x="530.252" y="466.805"/>
      <point x="597.977" y="451.99000000000007" type="curve"/>
      <point x="609.82" y="518.789" type="line"/>
      <point x="544.74" y="535.33"/>
      <point x="454.194" y="546.2"/>
      <point x="381.97499999999997" y="546.2" type="curve" smooth="yes"/>
      <point x="173.397" y="546.2"/>
      <point x="49.278" y="447.458"/>
    </contour>
  </outline>
</glyph>
<glyph name="d" format="2">
  <advance width="709.57"/>
  <unicode hex="0064"/>
  <anchor x="355.84799999999996" y="275.0" name="center"/>
  <anchor x="351.476" y="740.0" name="top"/>
  <anchor x="713.42" y="740.0" name="topright"/>
  <anchor x="355.84799999999996" y="0.0" name="bottom"/>
  <outline>
    <contour>
      <point x="546.938" y="-0.9299999999999999" type="line"/>
      <point x="627.24" y="-0.9299999999999999" type="line"/>
      <point x="627.24" y="740.0" type="line"/>
      <point x="531.6" y="740.0" type="line"/>
      <point x="531.6" y="531.242" type="line"/>
      <point x="477.95" y="541.0980000000001"/>
      <point x="421.148" y="546.2"/>
      <point x="371.36600000000004" y="546.2" type="curve" smooth="yes"/>
      <point x="153.086" y="546.2"/>
      <point x="49.029999999999994" y="453.4719999999999"/>
      <point x="49.029999999999994" y="254.39600000000002" type="curve" smooth="yes"/>
      <point x="49.029999999999994" y="86.82200000000002"/>
      <point x="135.75199999999998" y="-10.0"/>
      <point x="282.714" y="-10.0" type="curve" smooth="yes"/>
      <point x="366.18999999999994" y="-10.0"/>
      <point x="440.166" y="14.899999999999999"/>
      <point x="531.5999999999999" y="74.91" type="curve"/>
    </contour>
    <contour>
      <point x="531.2900000000001" y="140.03799999999998" type="line"/>
      <point x="447.97799999999995" y="87.09999999999998"/>
      <point x="385.834" y="65.26199999999999"/>
      <point x="317.43399999999997" y="65.26199999999999" type="curve" smooth="yes"/>
      <point x="210.51199999999997" y="65.26199999999999"/>
      <point x="146.53000000000003" y="134.39000000000001"/>
      <point x="146.53000000000003" y="259.97599999999994" type="curve" smooth="yes"/>
      <point x="146.53000000000003" y="413.47799999999995"/>
      <point x="221.114" y="479.998"/>
      <point x="374.41599999999994" y="479.998" type="curve" smooth="yes"/>
      <point x="418.98199999999997" y="479.998"/>
      <point x="470.94199999999995" y="474.27600000000007"/>
      <point x="531.2900000000001" y="461.408" type="curve"/>
    </contour>
  </outline>
</glyph>
<glyph name="e" format="2">
  <advance width="689.708"/>
  <unicode hex="0065"/>
  <anchor x="592.024" y="15.107999999999995" name="ogonek"/>
  <anchor x="360.16999999999996" y="0.0" name="bottom"/>
  <anchor x="361.88399999999996" y="536.2" name="top"/>
  <outline>
    <contour>
      <point x="352.816" y="-10.0" type="curve" smooth="yes"/>
      <point x="467.25199999999995" y="-10.0"/>
      <point x="567.5959999999999" y="6.475999999999999"/>
      <point x="637.8499999999999" y="25.006" type="curve"/>
      <point x="626.606" y="91.27799999999998" type="line"/>
      <point x="557.9659999999999" y="76.114"/>
      <point x="458.102" y="59.796"/>
      <point x="364.71000000000004" y="59.796" type="curve" smooth="yes"/>
      <point x="230.526" y="59.796"/>
      <point x="146.22" y="112.45"/>
      <point x="146.22" y="232.53400000000002" type="curve" smooth="yes"/>
      <point x="146.22" y="240.82"/>
      <point x="146.486" y="248.02400000000003"/>
      <point x="147.372" y="256.04400000000004" type="curve"/>
      <point x="384.03" y="257.28400000000005"/>
      <point x="574.6919999999999" y="271.42400000000004"/>
      <point x="642.712" y="275.696" type="curve"/>
      <point x="643.598" y="289.41400000000004"/>
      <point x="644.022" y="305.316"/>
      <point x="644.022" y="314.15000000000003" type="curve" smooth="yes"/>
      <point x="644.022" y="475.436"/>
      <point x="555.258" y="546.2"/>
      <point x="376.09999999999997" y="546.2" type="curve" smooth="yes"/>
      <point x="199.64199999999997" y="546.2"/>
      <point x="49.03" y="465.214"/>
      <point x="49.03" y="252.214" type="curve" smooth="yes"/>
      <point x="49.03" y="72.898"/>
      <point x="164.79399999999998" y="-10.0"/>
    </contour>
    <contour>
      <point x="149.1" y="316.73599999999993" type="curve"/>
      <point x="169.26" y="444.66999999999996"/>
      <point x="277.39599999999996" y="481.78799999999995"/>
      <point x="371.13999999999993" y="481.78799999999995" type="curve" smooth="yes"/>
      <point x="491.686" y="481.78799999999995"/>
      <point x="546.256" y="433.592"/>
      <point x="548.116" y="330.668" type="curve"/>
      <point x="506.91399999999993" y="327.32599999999996"/>
      <point x="340.906" y="317.35599999999994"/>
    </contour>
  </outline>
</glyph>
<glyph name="f" format="2">
  <advance width="469.446"/>
  <unicode hex="0066"/>
  <outline>
    <contour>
      <point x="134.12199999999999" y="0.0" type="line"/>
      <point x="228.05700000000002" y="0.0" type="line"/>
      <point x="228.05700000000002" y="421.799" type="line"/>
      <point x="454.49999999999994" y="421.799" type="line"/>
      <point x="454.49999999999994" y="488.185" type="line"/>
      <point x="228.15000000000003" y="488.185" type="line"/>
      <point x="228.15000000000003" y="505.22599999999994" type="line" smooth="yes"/>
      <point x="228.15000000000003" y="630.469"/>
      <point x="280.796" y="679.168"/>
      <point x="379.54499999999996" y="679.168" type="curve" smooth="yes"/>
      <point x="425.24799999999993" y="679.168"/>
      <point x="471.644" y="671.2429999999999"/>
      <point x="521.692" y="657.071" type="curve"/>
      <point x="534.39" y="722.7539999999999" type="line"/>
      <point x="470.85699999999997" y="742.3739999999999"/>
      <point x="418.007" y="750.4830000000001"/>
      <point x="359.633" y="750.4830000000001" type="curve" smooth="yes"/>
      <point x="217.16199999999998" y="750.4830000000001"/>
      <point x="134.12199999999999" y="677.7520000000001"/>
      <point x="134.12199999999999" y="506.71399999999994" type="curve" smooth="yes"/>
      <point x="134.12199999999999" y="488.185" type="line"/>
      <point x="27.514999999999997" y="479.537" type="line"/>
      <point x="27.514999999999997" y="421.799" type="line"/>
      <point x="134.12199999999999" y="421.799" type="line"/>
    </contour>
  </outline>
</glyph>
<glyph name="g" format="2">
  <advance width="713.202"/>
  <unicode hex="0067"/>
  <anchor x="352.75399999999996" y="536.2" name="top"/>
  <anchor x="342.152" y="-217.0" name="bottom"/>
  <outline>
    <contour>
      <point x="330.09399999999994" y="-220.0" type="curve" smooth="yes"/>
      <point x="573.8979999999999" y="-220.0"/>
      <point x="691.2339999999999" y="-152.622"/>
      <point x="691.2339999999999" y="-35.608000000000004" type="curve" smooth="yes"/>
      <point x="691.2339999999999" y="50.91"/>
      <point x="633.526" y="97.17200000000001"/>
      <point x="517.552" y="97.17200000000001" type="curve" smooth="yes"/>
      <point x="255.26200000000003" y="97.17200000000001" type="line" smooth="yes"/>
      <point x="180.278" y="97.17200000000001"/>
      <point x="143.13400000000001" y="119.574"/>
      <point x="143.13400000000001" y="161.25" type="curve" smooth="yes"/>
      <point x="143.13400000000001" y="194.804"/>
      <point x="168.06" y="218.042"/>
      <point x="209.84199999999996" y="236.62" type="curve"/>
      <point x="156.41400000000002" y="254.76800000000003" type="line"/>
      <point x="95.7" y="227.116"/>
      <point x="64.348" y="190.49"/>
      <point x="64.348" y="138.062" type="curve" smooth="yes"/>
      <point x="64.348" y="58.296"/>
      <point x="136.898" y="22.416"/>
      <point x="260.0439999999999" y="22.416" type="curve" smooth="yes"/>
      <point x="486.046" y="22.416" type="line" smooth="yes"/>
      <point x="562.972" y="22.416"/>
      <point x="599.6239999999999" y="2.3219999999999974"/>
      <point x="599.6239999999999" y="-45.616" type="curve" smooth="yes"/>
      <point x="599.6239999999999" y="-114.76599999999999"/>
      <point x="518.2139999999999" y="-156.40400000000002"/>
      <point x="339.39399999999995" y="-156.40400000000002" type="curve" smooth="yes"/>
      <point x="180.072" y="-156.40400000000002"/>
      <point x="106.706" y="-123.97"/>
      <point x="106.706" y="-54.788000000000004" type="curve" smooth="yes"/>
      <point x="106.706" y="-13.992000000000003"/>
      <point x="128.564" y="20.007999999999996"/>
      <point x="203.264" y="38.89600000000001" type="curve"/>
      <point x="144.088" y="57.41" type="line"/>
      <point x="48.892" y="31.77799999999999"/>
      <point x="24.706" y="-17.572000000000003"/>
      <point x="24.706" y="-71.484" type="curve" smooth="yes"/>
      <point x="24.706" y="-172.57000000000002"/>
      <point x="126.22" y="-220.0"/>
    </contour>
    <contour>
      <point x="349.304" y="204.998" type="curve" smooth="yes"/>
      <point x="532.3439999999999" y="204.998"/>
      <point x="620.132" y="262.14799999999997"/>
      <point x="620.132" y="375.83" type="curve" smooth="yes"/>
      <point x="620.132" y="489.512"/>
      <point x="532.3439999999999" y="546.51"/>
      <point x="349.304" y="546.51" type="curve" smooth="yes"/>
      <point x="166.26399999999998" y="546.51"/>
      <point x="78.786" y="489.512"/>
      <point x="78.786" y="375.83" type="curve" smooth="yes"/>
      <point x="78.786" y="262.14799999999997"/>
      <point x="166.26399999999998" y="204.998"/>
    </contour>
    <contour>
      <point x="349.304" y="264.60799999999995" type="curve" smooth="yes"/>
      <point x="224.76399999999995" y="264.60799999999995"/>
      <point x="169.156" y="298.764"/>
      <point x="169.156" y="375.83" type="curve" smooth="yes"/>
      <point x="169.156" y="453.32"/>
      <point x="224.76399999999995" y="487.21"/>
      <point x="349.304" y="487.21" type="curve" smooth="yes"/>
      <point x="473.8439999999999" y="487.21"/>
      <point x="529.452" y="453.32"/>
      <point x="529.452" y="375.83" type="curve" smooth="yes"/>
      <point x="529.452" y="298.764"/>
      <point x="473.8439999999999" y="264.60799999999995"/>
    </contour>
    <contour>
      <point x="549.7059999999999" y="466.38599999999997" type="line"/>
      <point x="565.726" y="496.902"/>
      <point x="595.4759999999999" y="510.25800000000004"/>
      <point x="638.728" y="510.25800000000004" type="curve" smooth="yes"/>
      <point x="654.2279999999998" y="510.25800000000004"/>
      <point x="669.0939999999999" y="509.372"/>
      <point x="684.3599999999999" y="506.28999999999996" type="curve"/>
      <point x="693.3759999999999" y="574.03" type="line"/>
      <point x="673.768" y="577.112"/>
      <point x="660.01" y="578.308"/>
      <point x="642.1379999999999" y="578.308" type="curve" smooth="yes"/>
      <point x="572.8679999999999" y="578.308"/>
      <point x="526.2800000000001" y="553.442"/>
      <point x="508.70399999999995" y="503.5199999999999" type="curve"/>
    </contour>
  </outline>
</glyph>
<glyph name="h" format="2">
  <advance width="717.8770000000001"/>
  <unicode hex="0068"/>
  <anchor x="356.881" y="395.0" name="center"/>
  <anchor x="359.051" y="0.0" name="bottom"/>
  <anchor x="360.282" y="740.0" name="top"/>
  <outline>
    <contour>
      <point x="82.33" y="0.0" type="line"/>
      <point x="177.97000000000003" y="0.0" type="line"/>
      <point x="177.97000000000003" y="407.36" type="line"/>
      <point x="258.64699999999993" y="444.96"/>
      <point x="319.299" y="470.473"/>
      <point x="402.133" y="470.473" type="curve" smooth="yes"/>
      <point x="495.5139999999999" y="470.473"/>
      <point x="539.907" y="423.53099999999995"/>
      <point x="539.907" y="340.457" type="curve" smooth="yes"/>
      <point x="539.907" y="0.0" type="line"/>
      <point x="635.547" y="0.0" type="line"/>
      <point x="635.547" y="368.667" type="line" smooth="yes"/>
      <point x="635.547" y="479.272"/>
      <point x="569.1579999999999" y="546.2"/>
      <point x="438.116" y="546.2" type="curve" smooth="yes"/>
      <point x="339.33799999999997" y="546.2"/>
      <point x="268.284" y="516.859"/>
      <point x="177.97000000000003" y="472.2250000000001" type="curve"/>
      <point x="177.97000000000003" y="740.0" type="line"/>
      <point x="82.33" y="740.0" type="line"/>
    </contour>
  </outline>
</glyph>
<glyph name="i" format="2">
  <advance width="260.14500000000004"/>
  <unicode hex="0069"/>
  <anchor x="177.177" y="0.0" name="ogonek"/>
  <anchor x="130.119" y="0.0" name="bottom"/>
  <outline>
    <contour>
      <point x="130.119" y="643.737" type="curve" smooth="yes"/>
      <point x="174.907" y="643.737"/>
      <point x="189.402" y="656.1139999999999"/>
      <point x="189.402" y="689.567" type="curve" smooth="yes"/>
      <point x="189.402" y="723.206"/>
      <point x="174.721" y="735.49"/>
      <point x="130.119" y="735.49" type="curve" smooth="yes"/>
      <point x="85.424" y="735.49"/>
      <point x="70.743" y="723.206"/>
      <point x="70.743" y="689.567" type="curve" smooth="yes"/>
      <point x="70.743" y="656.021"/>
      <point x="86.114" y="643.737"/>
    </contour>
    <contour>
      <point x="82.485" y="0.0" type="line"/>
      <point x="177.66000000000003" y="0.0" type="line"/>
      <point x="177.66000000000003" y="536.2" type="line"/>
      <point x="82.485" y="536.2" type="line"/>
    </contour>
  </outline>
</glyph>
<glyph name="j" format="2">
  <advance width="266.98"/>
  <unicode hex="006A"/>
  <outline>
    <contour>
      <point x="184.978" y="536.2" type="line"/>
      <point x="89.803" y="536.2" type="line"/>
      <point x="89.803" y="30.058" type="line" smooth="yes"/>
      <point x="89.803" y="-55.643"/>
      <point x="65.88499999999999" y="-103.278"/>
      <point x="16.445999999999998" y="-125.35800000000002" type="curve" smooth="yes"/>
      <point x="8.379999999999997" y="-129.291"/>
      <point x="0.5" y="-132.25500000000002"/>
      <point x="-8.535" y="-134.343" type="curve"/>
      <point x="-6.523000000000004" y="-208.20200000000003" type="line"/>
      <point x="10.786999999999995" y="-206.785"/>
      <point x="33.376999999999995" y="-203.85399999999998"/>
      <point x="48.739" y="-199.714" type="curve" smooth="yes"/>
      <point x="142.416" y="-175.15"/>
      <point x="184.978" y="-100.416"/>
      <point x="184.978" y="27.051000000000002" type="curve" smooth="yes"/>
    </contour>
    <contour>
      <point x="136.47099999999998" y="643.737" type="curve" smooth="yes"/>
      <point x="181.052" y="643.737"/>
      <point x="195.754" y="656.1139999999999"/>
      <point x="195.754" y="689.567" type="curve" smooth="yes"/>
      <point x="195.754" y="723.206"/>
      <point x="180.866" y="735.49"/>
      <point x="136.47099999999998" y="735.49" type="curve" smooth="yes"/>
      <point x="91.776" y="735.49"/>
      <point x="77.095" y="723.206"/>
      <point x="77.095" y="689.567" type="curve" smooth="yes"/>
      <point x="77.095" y="656.021"/>
      <point x="92.46600000000001" y="643.737"/>
    </contour>
  </outline>
</glyph>
<glyph name="l" format="2">
  <advance width="335.081"/>
  <unicode hex="006C"/>
  <anchor x="167.715" y="395.0" name="center"/>
  <anchor x="130.119" y="740.0" name="top"/>
  <anchor x="263.995" y="740.0" name="topright"/>
  <anchor x="206.405" y="0.0" name="bottom"/>
  <outline>
    <contour>
      <point x="177.66000000000003" y="740.0" type="line"/>
      <point x="82.485" y="740.0" type="line"/>
      <point x="82.485" y="161.86899999999997" type="line" smooth="yes"/>
      <point x="82.485" y="25.09"/>
      <point x="141.801" y="-10.0"/>
      <point x="230.899" y="-10.0" type="curve" smooth="yes"/>
      <point x="270.933" y="-10.0"/>
      <point x="306.827" y="-1.8650000000000002"/>
      <point x="336.59400000000005" y="9.19" type="curve"/>
      <point x="325.526" y="79.32700000000001" type="line"/>
      <point x="301.36899999999997" y="71.899"/>
      <point x="277.574" y="67.133"/>
      <point x="255.947" y="67.133" type="curve" smooth="yes"/>
      <point x="212.976" y="67.133"/>
      <point x="177.66000000000003" y="82.84700000000001"/>
      <point x="177.66000000000003" y="167.41799999999998" type="curve" smooth="yes"/>
    </contour>
  </outline>
</glyph>
<glyph name="m" format="2">
  <advance width="1084.723"/>
  <unicode hex="006D"/>
  <outline>
    <contour>
      <point x="82.485" y="0.0" type="line"/>
      <point x="177.75300000000001" y="0.0" type="line"/>
      <point x="177.75300000000001" y="404.93100000000004" type="line"/>
      <point x="244.048" y="442.742"/>
      <point x="298.179" y="467.438"/>
      <point x="371.835" y="467.438" type="curve" smooth="yes"/>
      <point x="477.991" y="467.438"/>
      <point x="496.028" y="390.746"/>
      <point x="496.028" y="338.197" type="curve" smooth="yes"/>
      <point x="496.028" y="0.0" type="line"/>
      <point x="591.2959999999999" y="0.0" type="line"/>
      <point x="591.2959999999999" y="346.319" type="line" smooth="yes"/>
      <point x="591.2959999999999" y="364.074"/>
      <point x="589.7090000000001" y="386.141"/>
      <point x="583.1439999999999" y="407.76" type="curve"/>
      <point x="630.8989999999999" y="434.48199999999997"/>
      <point x="697.154" y="470.07"/>
      <point x="781.8989999999999" y="470.07" type="curve" smooth="yes"/>
      <point x="889.77" y="470.07"/>
      <point x="907.1560000000001" y="393.11199999999997"/>
      <point x="907.1560000000001" y="340.12899999999996" type="curve" smooth="yes"/>
      <point x="907.1560000000001" y="0.0" type="line"/>
      <point x="1002.424" y="0.0" type="line"/>
      <point x="1002.424" y="368.68" type="line" smooth="yes"/>
      <point x="1002.424" y="447.632"/>
      <point x="963.7" y="546.2"/>
      <point x="822.5629999999999" y="546.2" type="curve" smooth="yes"/>
      <point x="714.1750000000001" y="546.2"/>
      <point x="634.811" y="505.35999999999996"/>
      <point x="564.573" y="464.527" type="curve"/>
      <point x="540.207" y="510.98300000000006"/>
      <point x="495.59000000000003" y="543.7850000000001"/>
      <point x="410.11199999999997" y="543.7850000000001" type="curve" smooth="yes"/>
      <point x="319.04499999999996" y="543.7850000000001"/>
      <point x="246.796" y="512.427"/>
      <point x="169.445" y="467.628" type="curve"/>
      <point x="169.445" y="536.2" type="line"/>
      <point x="82.485" y="536.2" type="line"/>
    </contour>
  </outline>
</glyph>
<glyph name="n" format="2">
  <advance width="717.691"/>
  <unicode hex="006E"/>
  <anchor x="363.76" y="536.2" name="top"/>
  <anchor x="365.14" y="0.0" name="bottom"/>
  <outline>
    <contour>
      <point x="82.485" y="0.0" type="line"/>
      <point x="177.75300000000001" y="0.0" type="line"/>
      <point x="177.75300000000001" y="407.48400000000004" type="line"/>
      <point x="258.46099999999996" y="445.177"/>
      <point x="319.23699999999997" y="470.938"/>
      <point x="402.28799999999995" y="470.938" type="curve" smooth="yes"/>
      <point x="495.669" y="470.938"/>
      <point x="540.124" y="423.77899999999994"/>
      <point x="540.124" y="340.61199999999997" type="curve" smooth="yes"/>
      <point x="540.124" y="0.0" type="line"/>
      <point x="635.392" y="0.0" type="line"/>
      <point x="635.392" y="369.16300000000007" type="line" smooth="yes"/>
      <point x="635.392" y="478.187"/>
      <point x="569.809" y="546.2"/>
      <point x="437.961" y="546.2" type="curve" smooth="yes"/>
      <point x="336.827" y="546.2"/>
      <point x="263.988" y="515.867"/>
      <point x="169.445" y="468.9390000000001" type="curve"/>
      <point x="169.445" y="536.2" type="line"/>
      <point x="82.485" y="536.2" type="line"/>
    </contour>
  </outline>
</glyph>
<glyph name="o" format="2">
  <advance width="726.4979999999998"/>
  <unicode hex="006F"/>
  <anchor x="445.46099999999996" y="1.364" name="ogonek"/>
  <anchor x="363.2489999999999" y="536.2" name="top"/>
  <anchor x="509.628" y="531.0300000000001" name="topright"/>
  <anchor x="363.24899999999997" y="0.0" name="bottom"/>
  <outline>
    <contour>
      <point x="49.184999999999995" y="269.593" type="curve" smooth="yes"/>
      <point x="49.184999999999995" y="79.843"/>
      <point x="142.02700000000002" y="-10.0"/>
      <point x="363.24899999999997" y="-10.0" type="curve" smooth="yes"/>
      <point x="584.471" y="-10.0"/>
      <point x="677.313" y="79.843"/>
      <point x="677.313" y="269.593" type="curve" smooth="yes"/>
      <point x="677.313" y="450.243"/>
      <point x="596.371" y="546.2"/>
      <point x="363.24899999999997" y="546.2" type="curve" smooth="yes"/>
      <point x="129.693" y="546.2"/>
      <point x="49.184999999999995" y="450.243"/>
    </contour>
    <contour>
      <point x="146.065" y="269.59299999999996" type="curve" smooth="yes"/>
      <point x="146.065" y="408.69899999999996"/>
      <point x="200.08499999999998" y="478.13"/>
      <point x="363.2489999999999" y="478.13" type="curve" smooth="yes"/>
      <point x="526.3199999999999" y="478.13"/>
      <point x="579.999" y="408.69899999999996"/>
      <point x="579.999" y="269.59299999999996" type="curve" smooth="yes"/>
      <point x="579.999" y="123.921"/>
      <point x="517.024" y="58.163000000000004"/>
      <point x="363.2489999999999" y="58.163000000000004" type="curve" smooth="yes"/>
      <point x="209.38100000000003" y="58.163000000000004"/>
      <point x="146.065" y="123.921"/>
    </contour>
  </outline>
</glyph>
<glyph name="p" format="2">
  <advance width="709.136"/>
  <unicode hex="0070"/>
  <outline>
    <contour>
      <point x="82.485" y="-210.0" type="line"/>
      <point x="177.97000000000003" y="-210.0" type="line"/>
      <point x="177.97000000000003" y="5.812999999999999" type="line"/>
      <point x="238.382" y="-4.836"/>
      <point x="289.86099999999993" y="-10.0"/>
      <point x="337.584" y="-10.0" type="curve" smooth="yes"/>
      <point x="556.019" y="-10.0"/>
      <point x="660.168" y="82.97599999999998"/>
      <point x="660.168" y="281.92800000000005" type="curve" smooth="yes"/>
      <point x="660.168" y="449.067"/>
      <point x="573.622" y="546.2"/>
      <point x="426.971" y="546.2" type="curve" smooth="yes"/>
      <point x="343.123" y="546.2"/>
      <point x="265.322" y="519.8629999999999"/>
      <point x="170.561" y="457.83099999999996" type="curve"/>
      <point x="169.445" y="538.27" type="line"/>
      <point x="82.485" y="538.27" type="line"/>
    </contour>
    <contour>
      <point x="334.68899999999996" y="55.922999999999995" type="curve" smooth="yes"/>
      <point x="290.52599999999995" y="55.922999999999995"/>
      <point x="238.215" y="61.95499999999999"/>
      <point x="177.75300000000001" y="74.916" type="curve"/>
      <point x="177.75300000000001" y="396.44100000000003" type="line"/>
      <point x="261.21999999999997" y="449.937"/>
      <point x="323.147" y="471.372"/>
      <point x="391.712" y="471.372" type="curve" smooth="yes"/>
      <point x="498.93399999999997" y="471.372"/>
      <point x="563.009" y="401.957"/>
      <point x="563.009" y="276.19300000000004" type="curve" smooth="yes"/>
      <point x="563.009" y="123.063"/>
      <point x="488.20799999999997" y="55.922999999999995"/>
    </contour>
  </outline>
</glyph>
<glyph name="q" format="2">
  <advance width="709.2289999999999"/>
  <unicode hex="0071"/>
  <outline>
    <contour>
      <point x="626.7439999999999" y="519.05" type="line"/>
      <point x="528.397" y="537.432"/>
      <point x="447.525" y="546.2"/>
      <point x="375.73699999999997" y="546.2" type="curve" smooth="yes"/>
      <point x="153.861" y="546.2"/>
      <point x="48.967999999999996" y="454.898"/>
      <point x="48.967999999999996" y="256.132" type="curve" smooth="yes"/>
      <point x="48.967999999999996" y="86.87499999999999"/>
      <point x="135.442" y="-10.0"/>
      <point x="282.90900000000005" y="-10.0" type="curve" smooth="yes"/>
      <point x="365.703" y="-10.0"/>
      <point x="440.683" y="15.313999999999998"/>
      <point x="531.569" y="75.05199999999998" type="curve"/>
      <point x="531.569" y="-210.0" type="line"/>
      <point x="626.7439999999999" y="-210.0" type="line"/>
    </contour>
    <contour>
      <point x="531.476" y="461.542" type="curve"/>
      <point x="531.476" y="140.224" type="line"/>
      <point x="448.00899999999996" y="86.63499999999999"/>
      <point x="386.082" y="65.014"/>
      <point x="317.424" y="65.014" type="curve" smooth="yes"/>
      <point x="210.50199999999998" y="65.014"/>
      <point x="146.22" y="134.65699999999998"/>
      <point x="146.22" y="258.33299999999997" type="curve" smooth="yes"/>
      <point x="146.22" y="413.13700000000006"/>
      <point x="221.02100000000002" y="480.4630000000001"/>
      <point x="374.633" y="480.4630000000001" type="curve" smooth="yes"/>
      <point x="418.62" y="480.4630000000001"/>
      <point x="471.01399999999995" y="474.52399999999994"/>
    </contour>
  </outline>
</glyph>
<glyph name="r" format="2">
  <advance width="506.63599999999997"/>
  <unicode hex="0072"/>
  <anchor x="280.241" y="536.2" name="top"/>
  <anchor x="130.026" y="0.0" name="bottom"/>
  <outline>
    <contour>
      <point x="169.352" y="536.2" type="line"/>
      <point x="82.485" y="536.2" type="line"/>
      <point x="82.485" y="0.0" type="line"/>
      <point x="177.567" y="0.0" type="line"/>
      <point x="177.567" y="379.98100000000005" type="line"/>
      <point x="252.76500000000001" y="443.0"/>
      <point x="320.61600000000004" y="465.947"/>
      <point x="384.294" y="465.947" type="curve" smooth="yes"/>
      <point x="416.351" y="465.947"/>
      <point x="453.29999999999995" y="460.36699999999996"/>
      <point x="485.368" y="452.38399999999996" type="curve"/>
      <point x="499.898" y="532.399" type="line"/>
      <point x="472.231" y="540.261"/>
      <point x="434.05699999999996" y="546.2"/>
      <point x="396.06399999999996" y="546.2" type="curve" smooth="yes"/>
      <point x="319.019" y="546.2"/>
      <point x="254.123" y="518.956"/>
      <point x="169.352" y="447.813" type="curve"/>
    </contour>
  </outline>
</glyph>
<glyph name="s" format="2">
  <advance width="602.5300000000001"/>
  <unicode hex="0073"/>
  <anchor x="298.66999999999996" y="536.2" name="top"/>
  <anchor x="302.43" y="0.0" name="bottom"/>
  <outline>
    <contour>
      <point x="35.8" y="28.279999999999998" type="line"/>
      <point x="97.75999999999999" y="6.689999999999999"/>
      <point x="199.73" y="-10.0"/>
      <point x="293.03999999999996" y="-10.0" type="curve" smooth="yes"/>
      <point x="452.2199999999999" y="-10.0"/>
      <point x="567.02" y="32.23"/>
      <point x="567.02" y="149.1" type="curve" smooth="yes"/>
      <point x="567.02" y="254.17999999999995"/>
      <point x="466.65" y="283.52"/>
      <point x="340.17999999999995" y="304.78000000000003" type="curve" smooth="yes"/>
      <point x="234.23999999999998" y="322.03999999999996"/>
      <point x="145.96999999999997" y="332.69"/>
      <point x="145.96999999999997" y="398.49" type="curve" smooth="yes"/>
      <point x="145.96999999999997" y="451.46000000000004"/>
      <point x="204.97" y="478.46"/>
      <point x="317.35999999999996" y="478.46" type="curve" smooth="yes"/>
      <point x="393.63" y="478.46"/>
      <point x="474.4" y="461.21999999999997"/>
      <point x="515.3699999999999" y="449.15000000000003" type="curve"/>
      <point x="528.0699999999999" y="516.1999999999999" type="line"/>
      <point x="484.4299999999999" y="529.27"/>
      <point x="404.76" y="546.2"/>
      <point x="318.28999999999996" y="546.2" type="curve" smooth="yes"/>
      <point x="142.73" y="546.2"/>
      <point x="56.529999999999994" y="492.41"/>
      <point x="56.529999999999994" y="389.19000000000005" type="curve" smooth="yes"/>
      <point x="56.529999999999994" y="292.15000000000003"/>
      <point x="147.3" y="257.18"/>
      <point x="268.84000000000003" y="238.04" type="curve" smooth="yes"/>
      <point x="385.05999999999995" y="218.95000000000002"/>
      <point x="475.40999999999997" y="202.77"/>
      <point x="475.40999999999997" y="141.35" type="curve" smooth="yes"/>
      <point x="475.40999999999997" y="85.28999999999999"/>
      <point x="413.60999999999996" y="56.5"/>
      <point x="297.37999999999994" y="56.5" type="curve" smooth="yes"/>
      <point x="213.64999999999998" y="56.5"/>
      <point x="103.83" y="75.36000000000001"/>
      <point x="48.69" y="95.02" type="curve"/>
    </contour>
  </outline>
</glyph>
<glyph name="t" format="2">
  <advance width="513.776"/>
  <unicode hex="0074"/>
  <anchor x="253.983" y="275.0" name="center"/>
  <anchor x="187.364" y="663.977" name="top"/>
  <anchor x="392.182" y="779.74" name="topright"/>
  <anchor x="298.71200000000005" y="0.0" name="bottom"/>
  <outline>
    <contour>
      <point x="312.828" y="-10.0" type="curve" smooth="yes"/>
      <point x="367.563" y="-10.0"/>
      <point x="429.6929999999999" y="-0.2070000000000011"/>
      <point x="498.18600000000004" y="20.520999999999994" type="curve"/>
      <point x="484.664" y="91.58" type="line"/>
      <point x="436.83399999999995" y="77.08000000000001"/>
      <point x="391.01" y="67.05"/>
      <point x="343.21799999999996" y="67.05" type="curve" smooth="yes"/>
      <point x="263.343" y="67.05"/>
      <point x="229.04" y="102.82400000000001"/>
      <point x="229.04" y="182.862" type="curve" smooth="yes"/>
      <point x="229.04" y="469.814" type="line"/>
      <point x="474.6809999999999" y="469.814" type="line"/>
      <point x="474.6809999999999" y="536.2" type="line"/>
      <point x="229.04" y="536.2" type="line"/>
      <point x="229.04" y="663.977" type="line"/>
      <point x="145.481" y="663.977" type="line"/>
      <point x="133.865" y="536.2" type="line"/>
      <point x="8.785" y="527.6450000000001" type="line"/>
      <point x="8.785" y="469.907" type="line"/>
      <point x="133.865" y="469.907" type="line"/>
      <point x="133.865" y="177.77800000000002" type="line" smooth="yes"/>
      <point x="133.865" y="44.141999999999996"/>
      <point x="198.025" y="-10.0"/>
    </contour>
  </outline>
</glyph>
<glyph name="u" format="2">
  <advance width="714.934"/>
  <unicode hex="0075"/>
  <anchor x="706.951" y="8.734" name="ogonek"/>
  <anchor x="351.039" y="536.2" name="top"/>
  <anchor x="614.3439999999999" y="536.2" name="topright"/>
  <anchor x="357.83399999999995" y="0.0" name="bottom"/>
  <outline>
    <contour>
      <point x="272.83900000000006" y="-10.0" type="curve" smooth="yes"/>
      <point x="371.437" y="-10.0"/>
      <point x="443.313" y="20.983999999999998"/>
      <point x="530.986" y="67.011" type="curve"/>
      <point x="545.285" y="13.318"/>
      <point x="582.375" y="-10.0"/>
      <point x="628.7379999999999" y="-10.0" type="curve" smooth="yes"/>
      <point x="656.436" y="-10.0"/>
      <point x="685.798" y="-2.4640000000000004"/>
      <point x="706.951" y="8.734" type="curve"/>
      <point x="696.373" y="69.67399999999999" type="line"/>
      <point x="686.7579999999999" y="65.26299999999999"/>
      <point x="676.539" y="63.09"/>
      <point x="666.555" y="63.09" type="curve" smooth="yes"/>
      <point x="638.4889999999999" y="63.09"/>
      <point x="614.3439999999999" y="81.29499999999999"/>
      <point x="614.3439999999999" y="141.073" type="curve" smooth="yes"/>
      <point x="614.3439999999999" y="536.2" type="line"/>
      <point x="519.169" y="536.2" type="line"/>
      <point x="519.169" y="126.93099999999998" type="line"/>
      <point x="443.1719999999999" y="89.46"/>
      <point x="386.622" y="64.39399999999999"/>
      <point x="308.326" y="64.39399999999999" type="curve" smooth="yes"/>
      <point x="222.239" y="64.39399999999999"/>
      <point x="177.567" y="109.13799999999999"/>
      <point x="177.567" y="182.89000000000001" type="curve" smooth="yes"/>
      <point x="177.567" y="536.2" type="line"/>
      <point x="82.29899999999999" y="536.2" type="line"/>
      <point x="82.29899999999999" y="159.702" type="line" smooth="yes"/>
      <point x="82.29899999999999" y="53.269999999999996"/>
      <point x="151.72899999999998" y="-10.0"/>
    </contour>
  </outline>
</glyph>
<glyph name="v" format="2">
  <advance width="649.066"/>
  <unicode hex="0076"/>
  <outline>
    <contour>
      <point x="276.381" y="0.0" type="line"/>
      <point x="371.737" y="0.0" type="line"/>
      <point x="638.184" y="532.8880000000001" type="line"/>
      <point x="537.0360000000001" y="539.512" type="line"/>
      <point x="327.797" y="83.873" type="line"/>
      <point x="112.33999999999999" y="539.512" type="line"/>
      <point x="10.727" y="532.8880000000001" type="line"/>
    </contour>
  </outline>
</glyph>
<glyph name="w" format="2">
  <advance width="944.3289999999998"/>
  <unicode hex="0077"/>
  <anchor x="472.0229999999999" y="536.2" name="top"/>
  <anchor x="472.0229999999999" y="0.0" name="bottom"/>
  <outline>
    <contour>
      <point x="206.588" y="0.0" type="line"/>
      <point x="309.10099999999994" y="0.0" type="line"/>
      <point x="469.82199999999995" y="435.187" type="line"/>
      <point x="634.7009999999999" y="0.0" type="line"/>
      <point x="733.6489999999999" y="0.0" type="line"/>
      <point x="931.5959999999999" y="533.064" type="line"/>
      <point x="839.6879999999999" y="539.0219999999999" type="line"/>
      <point x="685.7989999999999" y="90.645" type="line"/>
      <point x="521.827" y="536.2" type="line"/>
      <point x="422.00199999999995" y="536.2" type="line"/>
      <point x="260.90999999999997" y="90.29599999999999" type="line"/>
      <point x="106.90400000000001" y="539.0219999999999" type="line"/>
      <point x="12.232999999999999" y="533.064" type="line"/>
    </contour>
  </outline>
</glyph>
<glyph name="x" format="2">
  <advance width="674.8499999999999"/>
  <unicode hex="0078"/>
  <outline>
    <contour>
      <point x="12.799999999999997" y="2.759999999999999" type="line"/>
      <point x="123.83" y="-5.710000000000001" type="line"/>
      <point x="337.08" y="217.33999999999997" type="line"/>
      <point x="551.95" y="-5.710000000000001" type="line"/>
      <point x="662.2399999999999" y="2.759999999999999" type="line"/>
      <point x="395.47999999999996" y="276.67" type="line"/>
      <point x="646.72" y="532.0600000000001" type="line"/>
      <point x="544.18" y="540.84" type="line"/>
      <point x="342.54" y="330.47" type="line"/>
      <point x="141.71" y="540.8399999999999" type="line"/>
      <point x="30.799999999999997" y="531.87" type="line"/>
      <point x="284.02" y="272.57000000000005" type="line"/>
    </contour>
  </outline>
</glyph>
<glyph name="y" format="2">
  <advance width="651.1609999999998"/>
  <unicode hex="0079"/>
  <anchor x="322.14699999999993" y="536.2" name="top"/>
  <anchor x="512.3149999999999" y="0.0" name="bottom"/>
  <outline>
    <contour>
      <point x="215.494" y="-207.388" type="line"/>
      <point x="308.298" y="-213.346" type="line"/>
      <point x="640.113" y="535.5200000000001" type="line"/>
      <point x="544.261" y="541.178" type="line"/>
      <point x="345.976" y="75.94199999999998" type="line"/>
      <point x="115.616" y="541.4440000000001" type="line"/>
      <point x="10.934000000000001" y="534.82" type="line"/>
      <point x="289.153" y="0.0" type="line"/>
      <point x="306.154" y="0.0" type="line"/>
    </contour>
  </outline>
</glyph>
<glyph name="z" format="2">
  <advance width="635.3560000000001"/>
  <unicode hex="007A"/>
  <anchor x="324.62199999999996" y="536.2" name="top"/>
  <outline>
    <contour>
      <point x="34.684" y="0.0" type="line"/>
      <point x="605.502" y="0.0" type="line"/>
      <point x="605.502" y="69.486" type="line"/>
      <point x="163.416" y="69.486" type="line"/>
      <point x="576.944" y="475.42" type="line"/>
      <point x="576.944" y="536.2" type="line"/>
      <point x="57.967999999999996" y="536.2" type="line"/>
      <point x="57.967999999999996" y="467.024" type="line"/>
      <point x="451.11599999999993" y="467.024" type="line"/>
      <point x="34.684" y="61.089999999999996" type="line"/>
    </contour>
  </outline>
</glyph>
<glyph name="braceleft" format="2">
  <advance width="395.96299999999997"/>
  <unicode hex="007B"/>
  <outline>
    <contour>
      <point x="126.97200000000001" y="-58.761" type="curve" smooth="yes"/>
      <point x="126.97200000000001" y="-147.982"/>
      <point x="177.238" y="-210.093"/>
      <point x="288.235" y="-210.093" type="curve" smooth="yes"/>
      <point x="353.922" y="-210.093" type="line"/>
      <point x="353.922" y="-148.243" type="line"/>
      <point x="310.55499999999995" y="-148.243" type="line" smooth="yes"/>
      <point x="233.155" y="-148.243"/>
      <point x="211.266" y="-101.712"/>
      <point x="211.266" y="-49.461000000000006" type="curve" smooth="yes"/>
      <point x="211.266" y="16.171"/>
      <point x="245.41299999999998" y="78.318"/>
      <point x="245.41299999999998" y="147.292" type="curve" smooth="yes"/>
      <point x="245.41299999999998" y="189.28900000000002"/>
      <point x="235.139" y="245.41899999999998"/>
      <point x="177.649" y="265.0" type="curve"/>
      <point x="234.656" y="287.703"/>
      <point x="245.41299999999998" y="339.652"/>
      <point x="245.41299999999998" y="381.649" type="curve" smooth="yes"/>
      <point x="245.41299999999998" y="451.106"/>
      <point x="211.266" y="510.838"/>
      <point x="211.266" y="578.4019999999999" type="curve" smooth="yes"/>
      <point x="211.266" y="630.653"/>
      <point x="233.155" y="678.1500000000001"/>
      <point x="310.55499999999995" y="678.1500000000001" type="curve" smooth="yes"/>
      <point x="353.922" y="678.1500000000001" type="line"/>
      <point x="353.922" y="740.0" type="line"/>
      <point x="288.235" y="740.0" type="line" smooth="yes"/>
      <point x="177.238" y="740.0"/>
      <point x="126.97200000000001" y="676.923"/>
      <point x="126.97200000000001" y="587.702" type="curve" smooth="yes"/>
      <point x="126.97200000000001" y="504.29"/>
      <point x="162.824" y="445.59299999999996"/>
      <point x="162.824" y="380.40900000000005" type="curve" smooth="yes"/>
      <point x="162.824" y="341.095"/>
      <point x="150.923" y="296.08"/>
      <point x="107.40199999999999" y="296.08" type="curve" smooth="yes"/>
      <point x="87.518" y="296.08" type="line"/>
      <point x="87.518" y="233.82700000000003" type="line"/>
      <point x="107.40199999999999" y="233.82700000000003" type="line" smooth="yes"/>
      <point x="150.923" y="233.82700000000003"/>
      <point x="162.824" y="188.053"/>
      <point x="162.824" y="148.53199999999998" type="curve" smooth="yes"/>
      <point x="162.824" y="83.69300000000001"/>
      <point x="126.97200000000001" y="22.236"/>
    </contour>
  </outline>
</glyph>
<glyph name="bar" format="2">
  <advance width="263.11799999999994"/>
  <unicode hex="007C"/>
  <outline>
    <contour>
      <point x="170.38899999999998" y="790.093" type="line"/>
      <point x="92.729" y="790.093" type="line"/>
      <point x="92.729" y="-210.0" type="line"/>
      <point x="170.38899999999998" y="-210.0" type="line"/>
    </contour>
  </outline>
</glyph>
<glyph name="braceright" format="2">
  <advance width="395.96299999999997"/>
  <unicode hex="007D"/>
  <outline>
    <contour>
      <point x="42.041000000000004" y="-148.243" type="line"/>
      <point x="42.041000000000004" y="-210.093" type="line"/>
      <point x="107.935" y="-210.093" type="line" smooth="yes"/>
      <point x="218.932" y="-210.093"/>
      <point x="269.198" y="-147.982"/>
      <point x="269.198" y="-58.761" type="curve" smooth="yes"/>
      <point x="269.198" y="22.236"/>
      <point x="233.346" y="83.69300000000001"/>
      <point x="233.346" y="148.53199999999998" type="curve" smooth="yes"/>
      <point x="233.346" y="188.053"/>
      <point x="245.24699999999999" y="233.82700000000003"/>
      <point x="288.768" y="233.82700000000003" type="curve" smooth="yes"/>
      <point x="308.445" y="233.82700000000003" type="line"/>
      <point x="308.445" y="296.08" type="line"/>
      <point x="288.768" y="296.08" type="line" smooth="yes"/>
      <point x="245.04" y="296.08"/>
      <point x="233.346" y="341.095"/>
      <point x="233.346" y="380.40900000000005" type="curve" smooth="yes"/>
      <point x="233.346" y="445.59299999999996"/>
      <point x="269.198" y="504.29"/>
      <point x="269.198" y="587.702" type="curve" smooth="yes"/>
      <point x="269.198" y="676.923"/>
      <point x="218.932" y="740.0"/>
      <point x="107.935" y="740.0" type="curve" smooth="yes"/>
      <point x="42.041000000000004" y="740.0" type="line"/>
      <point x="42.041000000000004" y="678.1500000000001" type="line"/>
      <point x="84.03399999999999" y="678.1500000000001" type="line" smooth="yes"/>
      <point x="161.227" y="678.1500000000001"/>
      <point x="183.323" y="630.653"/>
      <point x="183.323" y="578.4019999999999" type="curve" smooth="yes"/>
      <point x="183.323" y="510.838"/>
      <point x="149.176" y="451.106"/>
      <point x="149.176" y="381.649" type="curve" smooth="yes"/>
      <point x="149.176" y="339.652"/>
      <point x="159.726" y="287.703"/>
      <point x="216.94" y="265.0" type="curve"/>
      <point x="159.243" y="245.41899999999998"/>
      <point x="149.176" y="189.28900000000002"/>
      <point x="149.176" y="147.292" type="curve" smooth="yes"/>
      <point x="149.176" y="78.318"/>
      <point x="183.323" y="16.171"/>
      <point x="183.323" y="-49.461000000000006" type="curve" smooth="yes"/>
      <point x="183.323" y="-101.712"/>
      <point x="161.227" y="-148.243"/>
      <point x="84.03399999999999" y="-148.243" type="curve" smooth="yes"/>
    </contour>
  </outline>
</glyph>
<glyph name="asciitilde" format="2">
  <advance width="555.824"/>
  <unicode hex="007E"/>
  <outline>
    <contour>
      <point x="490.565" y="251.76299999999998" type="curve"/>
      <point x="490.565" y="327.74" type="line"/>
      <point x="465.126" y="304.173"/>
      <point x="436.728" y="285.29"/>
      <point x="396.781" y="285.29" type="curve" smooth="yes"/>
      <point x="301.668" y="285.29"/>
      <point x="248.516" y="383.78299999999996"/>
      <point x="159.478" y="383.78299999999996" type="curve" smooth="yes"/>
      <point x="114.218" y="383.78299999999996"/>
      <point x="84.149" y="361.37399999999997"/>
      <point x="65.68299999999999" y="345.26599999999996" type="curve"/>
      <point x="65.68299999999999" y="268.806" type="line"/>
      <point x="88.973" y="288.524"/>
      <point x="115.423" y="309.90500000000003"/>
      <point x="157.85" y="309.90500000000003" type="curve" smooth="yes"/>
      <point x="243.134" y="309.90500000000003"/>
      <point x="299.097" y="211.195"/>
      <point x="397.75699999999995" y="211.195" type="curve" smooth="yes"/>
      <point x="437.94" y="211.195"/>
      <point x="467.591" y="230.16799999999998"/>
    </contour>
  </outline>
</glyph>
<glyph name="exclamdown" format="2">
  <advance width="289.11599999999993"/>
  <unicode hex="00A1"/>
  <outline>
    <contour>
      <point x="186.612" y="273.533" type="line"/>
      <point x="104.209" y="273.533" type="line"/>
      <point x="98.38099999999999" y="-204.01700000000002" type="line"/>
      <point x="192.16099999999997" y="-204.01700000000002" type="line"/>
    </contour>
    <contour>
      <point x="199.687" y="491.951" type="curve" smooth="yes"/>
      <point x="199.687" y="526.52"/>
      <point x="186.835" y="539.3"/>
      <point x="144.55799999999996" y="539.3" type="curve" smooth="yes"/>
      <point x="102.97099999999999" y="539.3"/>
      <point x="89.429" y="526.52"/>
      <point x="89.429" y="491.951" type="curve" smooth="yes"/>
      <point x="89.429" y="457.072"/>
      <point x="102.28099999999999" y="444.29200000000003"/>
      <point x="144.55799999999996" y="444.29200000000003" type="curve" smooth="yes"/>
      <point x="186.835" y="444.29200000000003"/>
      <point x="199.687" y="457.072"/>
    </contour>
  </outline>
</glyph>
<glyph name="cent" format="2">
  <advance width="818.082"/>
  <unicode hex="00A2"/>
  <outline>
    <contour>
      <point x="424.2989999999999" y="-10.093" type="curve" smooth="yes"/>
      <point x="511.969" y="-10.093"/>
      <point x="614.483" y="1.0999999999999996"/>
      <point x="686.179" y="18.849999999999998" type="curve"/>
      <point x="673.685" y="87.24000000000001" type="line"/>
      <point x="605.89" y="72.629"/>
      <point x="518.004" y="63.11300000000001"/>
      <point x="445.86699999999996" y="63.11300000000001" type="curve" smooth="yes"/>
      <point x="303.381" y="63.11300000000001"/>
      <point x="222.821" y="129.84"/>
      <point x="222.821" y="258.131" type="curve" smooth="yes"/>
      <point x="222.821" y="397.25800000000004"/>
      <point x="309.89599999999996" y="471.909"/>
      <point x="457.84499999999997" y="471.909" type="curve" smooth="yes"/>
      <point x="529.507" y="471.909"/>
      <point x="585.16" y="465.03999999999996"/>
      <point x="661.775" y="446.92699999999996" type="curve"/>
      <point x="673.9179999999999" y="518.789" type="line"/>
      <point x="600.589" y="537.497"/>
      <point x="535.704" y="546.3860000000001"/>
      <point x="450.74600000000004" y="546.3860000000001" type="curve" smooth="yes"/>
      <point x="236.63799999999998" y="546.3860000000001"/>
      <point x="128.793" y="431.215"/>
      <point x="128.793" y="256.271" type="curve" smooth="yes"/>
      <point x="128.793" y="82.74600000000001"/>
      <point x="232.669" y="-10.093"/>
    </contour>
    <contour>
      <point x="386.08399999999995" y="-105.093" type="line"/>
      <point x="458.47399999999993" y="-105.093" type="line"/>
      <point x="458.47399999999993" y="0.07099999999999973" type="line"/>
      <point x="386.08399999999995" y="2.3480000000000003" type="line"/>
    </contour>
    <contour>
      <point x="386.08399999999995" y="531.891" type="line"/>
      <point x="458.47399999999993" y="537.1080000000001" type="line"/>
      <point x="458.47399999999993" y="641.107" type="line"/>
      <point x="386.08399999999995" y="641.107" type="line"/>
    </contour>
  </outline>
</glyph>
<glyph name="sterling" format="2">
  <advance width="818.454"/>
  <unicode hex="00A3"/>
  <outline>
    <contour>
      <point x="93.99799999999999" y="0.0" type="line"/>
      <point x="751.0859999999999" y="0.0" type="line"/>
      <point x="751.0859999999999" y="73.94" type="line"/>
      <point x="209.26" y="73.94" type="line"/>
      <point x="288.604" y="137.29"/>
      <point x="323.904" y="184.17200000000003"/>
      <point x="323.904" y="247.576" type="curve" smooth="yes"/>
      <point x="323.904" y="339.868"/>
      <point x="242.292" y="391.84000000000003"/>
      <point x="242.292" y="485.816" type="curve" smooth="yes"/>
      <point x="242.292" y="583.89"/>
      <point x="326.098" y="632.65"/>
      <point x="461.9839999999999" y="632.65" type="curve" smooth="yes"/>
      <point x="536.0579999999999" y="632.65"/>
      <point x="641.7800000000001" y="620.1239999999999"/>
      <point x="713.282" y="602.2760000000001" type="curve"/>
      <point x="726.81" y="673.9" type="line"/>
      <point x="658.744" y="694.658"/>
      <point x="542.1279999999999" y="710.0"/>
      <point x="453.304" y="710.0" type="curve" smooth="yes"/>
      <point x="254.20199999999997" y="710.0"/>
      <point x="144.79199999999997" y="632.2080000000001"/>
      <point x="144.79199999999997" y="504.77" type="curve" smooth="yes"/>
      <point x="144.79199999999997" y="391.798"/>
      <point x="231.984" y="337.6"/>
      <point x="231.984" y="245.804" type="curve" smooth="yes"/>
      <point x="231.984" y="182.18200000000002"/>
      <point x="196.15999999999997" y="143.204"/>
      <point x="93.99799999999999" y="63.08999999999999" type="curve"/>
    </contour>
    <contour>
      <point x="87.46" y="330.97" type="line"/>
      <point x="616.9" y="330.97" type="line"/>
      <point x="616.9" y="396.23" type="line"/>
      <point x="87.46" y="396.23" type="line"/>
    </contour>
  </outline>
</glyph>
<glyph name="currency" format="2">
  <advance width="479.27"/>
  <unicode hex="00A4"/>
  <outline>
    <contour>
      <point x="48.511" y="441.824" type="line"/>
      <point x="116.249" y="373.086" type="line"/>
      <point x="101.434" y="351.853"/>
      <point x="92.193" y="325.57300000000004"/>
      <point x="92.193" y="296.099" type="curve" smooth="yes"/>
      <point x="92.193" y="266.315"/>
      <point x="101.434" y="239.632"/>
      <point x="117.249" y="218.306" type="curve"/>
      <point x="48.511" y="149.56799999999998" type="line"/>
      <point x="93.85199999999999" y="104.22699999999999" type="line"/>
      <point x="167.581" y="177.739" type="line"/>
      <point x="187.10899999999998" y="163.31900000000002"/>
      <point x="211.87" y="155.729"/>
      <point x="238.918" y="155.729" type="curve" smooth="yes"/>
      <point x="266.214" y="155.729"/>
      <point x="291.603" y="163.536"/>
      <point x="311.472" y="177.863" type="curve"/>
      <point x="385.418" y="104.22699999999999" type="line"/>
      <point x="430.759" y="149.56799999999998" type="line"/>
      <point x="361.308" y="218.926" type="line"/>
      <point x="376.782" y="240.221"/>
      <point x="386.116" y="266.563"/>
      <point x="386.116" y="296.099" type="curve" smooth="yes"/>
      <point x="386.116" y="325.232"/>
      <point x="376.99899999999997" y="351.26399999999995"/>
      <point x="361.401" y="372.466" type="curve"/>
      <point x="430.759" y="441.824" type="line"/>
      <point x="385.418" y="487.16499999999996" type="line"/>
      <point x="311.844" y="413.591" type="line"/>
      <point x="291.882" y="428.135"/>
      <point x="266.99699999999996" y="436.72499999999997"/>
      <point x="238.918" y="436.72499999999997" type="curve" smooth="yes"/>
      <point x="210.994" y="436.72499999999997"/>
      <point x="186.233" y="428.04200000000003"/>
      <point x="166.51899999999998" y="413.715" type="curve"/>
      <point x="93.85199999999999" y="487.16499999999996" type="line"/>
    </contour>
    <contour>
      <point x="238.70100000000002" y="208.434" type="curve" smooth="yes"/>
      <point x="189.814" y="208.434"/>
      <point x="151.129" y="246.902"/>
      <point x="151.129" y="296.00600000000003" type="curve" smooth="yes"/>
      <point x="151.129" y="344.963"/>
      <point x="189.597" y="383.92699999999996"/>
      <point x="238.70100000000002" y="383.92699999999996" type="curve" smooth="yes"/>
      <point x="288.495" y="383.92699999999996"/>
      <point x="327.18" y="344.963"/>
      <point x="327.18" y="296.00600000000003" type="curve" smooth="yes"/>
      <point x="327.18" y="246.902"/>
      <point x="288.278" y="208.434"/>
    </contour>
  </outline>
</glyph>
<glyph name="yen" format="2">
  <advance width="818.53"/>
  <unicode hex="00A5"/>
  <outline>
    <contour>
      <point x="115.55" y="337.48" type="line"/>
      <point x="362.94999999999993" y="337.48" type="line"/>
      <point x="362.94999999999993" y="239.29000000000002" type="line"/>
      <point x="115.55" y="239.29000000000002" type="line"/>
      <point x="115.55" y="186.74" type="line"/>
      <point x="362.94999999999993" y="186.74" type="line"/>
      <point x="362.94999999999993" y="0.0" type="line"/>
      <point x="464.47999999999996" y="0.0" type="line"/>
      <point x="464.47999999999996" y="186.74" type="line"/>
      <point x="714.8599999999999" y="186.74" type="line"/>
      <point x="714.8599999999999" y="239.29000000000002" type="line"/>
      <point x="464.47999999999996" y="239.29000000000002" type="line"/>
      <point x="464.47999999999996" y="337.48" type="line"/>
      <point x="714.8599999999999" y="337.48" type="line"/>
      <point x="714.8599999999999" y="390.34" type="line"/>
      <point x="464.47999999999996" y="390.34" type="line"/>
      <point x="745.3900000000001" y="695.67" type="line"/>
      <point x="645.2099999999999" y="704.6400000000001" type="line"/>
      <point x="413.56" y="447.15999999999997" type="line"/>
      <point x="173.63000000000002" y="704.6400000000001" type="line"/>
      <point x="73.75999999999999" y="695.67" type="line"/>
      <point x="362.94999999999993" y="390.34" type="line"/>
      <point x="115.55" y="390.34" type="line"/>
    </contour>
  </outline>
</glyph>
<glyph name="brokenbar" format="2">
  <advance width="263.02500000000003"/>
  <unicode hex="00A6"/>
  <outline>
    <contour>
      <point x="170.29600000000002" y="391.0" type="line"/>
      <point x="170.29600000000002" y="790.093" type="line"/>
      <point x="92.729" y="790.093" type="line"/>
      <point x="92.729" y="391.0" type="line"/>
    </contour>
    <contour>
      <point x="92.729" y="190.093" type="line"/>
      <point x="92.729" y="-210.0" type="line"/>
      <point x="170.29600000000002" y="-210.0" type="line"/>
      <point x="170.29600000000002" y="190.093" type="line"/>
    </contour>
  </outline>
</glyph>
<glyph name="section" format="2">
  <advance width="626.828"/>
  <unicode hex="00A7"/>
  <outline>
    <contour>
      <point x="276.835" y="-220.31" type="curve" smooth="yes"/>
      <point x="455.61" y="-220.31"/>
      <point x="576.6949999999999" y="-110.663"/>
      <point x="576.6949999999999" y="56.006" type="curve" smooth="yes"/>
      <point x="576.6949999999999" y="146.933"/>
      <point x="545.4789999999999" y="229.25099999999998"/>
      <point x="451.916" y="384.536" type="curve" smooth="yes"/>
      <point x="383.181" y="502.5609999999999"/>
      <point x="362.567" y="542.537"/>
      <point x="362.567" y="583.936" type="curve" smooth="yes"/>
      <point x="362.567" y="633.902"/>
      <point x="396.86699999999996" y="665.012"/>
      <point x="453.25399999999996" y="665.012" type="curve" smooth="yes"/>
      <point x="476.17999999999995" y="665.012"/>
      <point x="502.024" y="660.597"/>
      <point x="538.534" y="648.501" type="curve"/>
      <point x="553.2869999999999" y="723.3539999999999" type="line"/>
      <point x="496.456" y="741.813"/>
      <point x="439.713" y="749.886"/>
      <point x="383.368" y="749.886" type="curve" smooth="yes"/>
      <point x="185.88599999999997" y="749.886"/>
      <point x="69.92" y="642.0989999999999"/>
      <point x="70.005" y="469.478" type="curve" smooth="yes"/>
      <point x="70.315" y="367.76"/>
      <point x="102.17999999999999" y="281.61800000000005"/>
      <point x="191.518" y="139.395" type="curve" smooth="yes"/>
      <point x="248.26000000000002" y="42.837999999999994"/>
      <point x="276.59" y="1.4849999999999979"/>
      <point x="277.011" y="-53.431000000000004" type="curve" smooth="yes"/>
      <point x="277.4319999999999" y="-98.90299999999999"/>
      <point x="240.521" y="-132.422"/>
      <point x="188.826" y="-132.422" type="curve" smooth="yes"/>
      <point x="149.40900000000002" y="-132.422"/>
      <point x="119.059" y="-120.098"/>
      <point x="66.406" y="-84.10900000000001" type="curve"/>
      <point x="46.568" y="-154.906" type="line"/>
      <point x="126.14699999999999" y="-203.24599999999998"/>
      <point x="187.31199999999998" y="-220.31"/>
    </contour>
    <contour>
      <point x="281.868" y="-168.669" type="curve" smooth="yes"/>
      <point x="247.08199999999997" y="-168.669"/>
      <point x="219.34199999999998" y="-165.31799999999998"/>
      <point x="195.108" y="-156.493" type="curve"/>
      <point x="216.46599999999998" y="-172.614" type="line"/>
      <point x="294.354" y="-177.085"/>
      <point x="353.557" y="-123.67500000000001"/>
      <point x="353.557" y="-53.855" type="curve" smooth="yes"/>
      <point x="353.557" y="2.7440000000000007"/>
      <point x="334.068" y="50.766000000000005"/>
      <point x="259.71500000000003" y="171.37" type="curve" smooth="yes"/>
      <point x="174.752" y="311.124"/>
      <point x="145.536" y="388.354"/>
      <point x="145.536" y="480.48300000000006" type="curve" smooth="yes"/>
      <point x="145.536" y="609.9960000000001"/>
      <point x="229.088" y="689.378"/>
      <point x="354.05899999999997" y="689.378" type="curve" smooth="yes"/>
      <point x="373.91700000000003" y="689.378"/>
      <point x="389.12199999999996" y="687.407"/>
      <point x="409.07599999999996" y="682.111" type="curve"/>
      <point x="394.84299999999996" y="697.668" type="line"/>
      <point x="329.74999999999994" y="697.452"/>
      <point x="288.273" y="645.173"/>
      <point x="287.54200000000003" y="584.954" type="curve" smooth="yes"/>
      <point x="287.54200000000003" y="529.553"/>
      <point x="309.45399999999995" y="482.071"/>
      <point x="382.98499999999996" y="355.31" type="curve" smooth="yes"/>
      <point x="473.58299999999997" y="196.27799999999996"/>
      <point x="503.60300000000007" y="123.783"/>
      <point x="503.60300000000007" y="44.846000000000004" type="curve" smooth="yes"/>
      <point x="504.02400000000006" y="-73.149"/>
      <point x="427.12399999999997" y="-168.248"/>
    </contour>
  </outline>
</glyph>
<glyph name="copyright" format="2">
  <advance width="850.9059999999998"/>
  <unicode hex="00A9"/>
  <outline>
    <contour>
      <point x="425.6699999999999" y="32.598" type="curve" smooth="yes"/>
      <point x="236.85099999999997" y="32.598"/>
      <point x="103.50499999999998" y="123.244"/>
      <point x="103.50499999999998" y="349.659" type="curve" smooth="yes"/>
      <point x="103.50499999999998" y="576.7149999999999"/>
      <point x="237.285" y="665.8520000000001"/>
      <point x="425.6699999999999" y="665.8520000000001" type="curve" smooth="yes"/>
      <point x="613.8999999999999" y="665.8520000000001"/>
      <point x="747.308" y="576.7149999999999"/>
      <point x="747.308" y="349.659" type="curve" smooth="yes"/>
      <point x="747.308" y="123.244"/>
      <point x="614.3339999999998" y="32.598"/>
    </contour>
    <contour>
      <point x="425.6699999999999" y="710.0" type="curve" smooth="yes"/>
      <point x="211.298" y="710.0"/>
      <point x="56.040000000000006" y="602.7280000000001"/>
      <point x="56.040000000000006" y="349.659" type="curve" smooth="yes"/>
      <point x="56.040000000000006" y="96.89"/>
      <point x="210.864" y="-10.0"/>
      <point x="425.6699999999999" y="-10.0" type="curve" smooth="yes"/>
      <point x="640.042" y="-10.0"/>
      <point x="794.8659999999999" y="96.89"/>
      <point x="794.8659999999999" y="349.659" type="curve" smooth="yes"/>
      <point x="794.8659999999999" y="602.7280000000001"/>
      <point x="640.042" y="710.0"/>
    </contour>
    <contour>
      <point x="242.85999999999996" y="338.63000000000005" type="curve" smooth="yes"/>
      <point x="242.85999999999996" y="214.75900000000001"/>
      <point x="318.01" y="164.12599999999998"/>
      <point x="425.8629999999999" y="164.12599999999998" type="curve" smooth="yes"/>
      <point x="496.338" y="164.12599999999998"/>
      <point x="557.167" y="177.13500000000002"/>
      <point x="593.773" y="190.545" type="curve"/>
      <point x="582.6379999999999" y="242.154" type="line"/>
      <point x="552.246" y="233.56199999999998"/>
      <point x="499.745" y="222.235"/>
      <point x="438.10799999999995" y="222.235" type="curve" smooth="yes"/>
      <point x="355.696" y="222.235"/>
      <point x="313.979" y="258.3"/>
      <point x="313.979" y="339.715" type="curve" smooth="yes"/>
      <point x="313.979" y="438.93199999999996"/>
      <point x="367.452" y="471.602"/>
      <point x="453.14099999999996" y="471.602" type="curve" smooth="yes"/>
      <point x="494.366" y="471.602"/>
      <point x="532.268" y="465.37399999999997"/>
      <point x="568.0200000000001" y="455.44899999999996" type="curve"/>
      <point x="580.3019999999999" y="508.422" type="line"/>
      <point x="539.073" y="523.71"/>
      <point x="494.371" y="530.1450000000001"/>
      <point x="444.8329999999999" y="530.1450000000001" type="curve" smooth="yes"/>
      <point x="330.5539999999999" y="530.1450000000001"/>
      <point x="242.85999999999996" y="479.182"/>
    </contour>
  </outline>
</glyph>
<glyph name="ordfeminine" format="2">
  <advance width="457.618"/>
  <unicode hex="00AA"/>
  <outline>
    <contour>
      <point x="58.723" y="248.349" type="line"/>
      <point x="417.01399999999995" y="248.349" type="line"/>
      <point x="417.01399999999995" y="301.219" type="line"/>
      <point x="58.723" y="301.219" type="line"/>
    </contour>
    <component base="a.superior" xOffset="12.209"/>
  </outline>
</glyph>
<glyph name="logicalnot" format="2">
  <advance width="555.824"/>
  <unicode hex="00AC"/>
  <outline>
    <contour>
      <point x="56.256" y="352.628" type="line"/>
      <point x="426.61" y="352.628" type="line"/>
      <point x="426.61" y="171.761" type="line"/>
      <point x="499.77500000000003" y="171.761" type="line"/>
      <point x="499.77500000000003" y="425.793" type="line"/>
      <point x="56.256" y="425.793" type="line"/>
    </contour>
  </outline>
</glyph>
<glyph name="registered" format="2">
  <advance width="815.742"/>
  <unicode hex="00AE"/>
  <outline>
    <contour>
      <point x="404.456" y="207.80099999999996" type="curve" smooth="yes"/>
      <point x="612.279" y="207.80099999999996"/>
      <point x="759.7019999999999" y="307.808"/>
      <point x="759.7019999999999" y="550.3280000000001" type="curve" smooth="yes"/>
      <point x="759.7019999999999" y="791.0710000000001"/>
      <point x="612.651" y="893.165"/>
      <point x="404.456" y="893.165" type="curve" smooth="yes"/>
      <point x="201.06599999999997" y="893.165"/>
      <point x="56.040000000000006" y="791.0710000000001"/>
      <point x="56.040000000000006" y="550.3280000000001" type="curve" smooth="yes"/>
      <point x="56.040000000000006" y="310.319"/>
      <point x="200.22899999999998" y="207.80099999999996"/>
    </contour>
    <contour>
      <point x="404.456" y="248.314" type="curve" smooth="yes"/>
      <point x="225.18499999999997" y="248.314"/>
      <point x="101.19299999999998" y="335.30100000000004"/>
      <point x="101.19299999999998" y="550.3280000000001" type="curve" smooth="yes"/>
      <point x="101.19299999999998" y="766.027"/>
      <point x="225.12299999999993" y="850.9780000000001"/>
      <point x="404.456" y="850.9780000000001" type="curve" smooth="yes"/>
      <point x="588.098" y="850.9780000000001"/>
      <point x="714.601" y="766.089"/>
      <point x="714.601" y="550.3280000000001" type="curve" smooth="yes"/>
      <point x="714.601" y="334.774"/>
      <point x="587.633" y="248.314"/>
    </contour>
    <contour>
      <point x="598.2010000000001" y="390.791" type="curve" smooth="yes"/>
      <point x="601.1389999999999" y="390.791"/>
      <point x="603.6759999999999" y="390.791"/>
      <point x="606.873" y="390.998" type="curve"/>
      <point x="606.252" y="446.18499999999995" type="line"/>
      <point x="604.7789999999999" y="445.97799999999995"/>
      <point x="602.9240000000001" y="445.97799999999995"/>
      <point x="601.234" y="445.97799999999995" type="curve" smooth="yes"/>
      <point x="570.611" y="446.07099999999997"/>
      <point x="523.081" y="478.66"/>
      <point x="477.456" y="531.3100000000001" type="curve"/>
      <point x="536.8950000000001" y="539.362"/>
      <point x="570.6589999999999" y="565.8020000000001"/>
      <point x="570.6589999999999" y="625.2579999999999" type="curve" smooth="yes"/>
      <point x="570.6589999999999" y="694.547"/>
      <point x="524.039" y="719.7850000000001"/>
      <point x="394.2130000000001" y="719.7850000000001" type="curve" smooth="yes"/>
      <point x="355.441" y="719.7850000000001"/>
      <point x="313.886" y="718.689"/>
      <point x="251.361" y="715.389" type="curve"/>
      <point x="251.361" y="393.238" type="line"/>
      <point x="314.13300000000004" y="393.238" type="line"/>
      <point x="314.13300000000004" y="516.922" type="line"/>
      <point x="341.302" y="516.4490000000001"/>
      <point x="361.407" y="515.542"/>
      <point x="385.0009999999999" y="515.542" type="curve" smooth="yes"/>
      <point x="391.66399999999993" y="515.542"/>
      <point x="398.07899999999995" y="515.542"/>
      <point x="404.587" y="515.749" type="curve"/>
      <point x="469.969" y="437.109"/>
      <point x="541.685" y="390.946"/>
    </contour>
    <contour>
      <point x="394.806" y="556.6550000000001" type="curve" smooth="yes"/>
      <point x="369.21799999999996" y="556.6550000000001"/>
      <point x="347.64599999999996" y="557.2930000000001"/>
      <point x="314.13300000000004" y="557.9210000000002" type="curve"/>
      <point x="314.13300000000004" y="669.8259999999999" type="line"/>
      <point x="353.07499999999993" y="672.1539999999999"/>
      <point x="362.015" y="672.627"/>
      <point x="397.055" y="672.627" type="curve" smooth="yes"/>
      <point x="485.1519999999999" y="672.627"/>
      <point x="506.2750000000001" y="657.642"/>
      <point x="506.2750000000001" y="618.2099999999999" type="curve" smooth="yes"/>
      <point x="506.2750000000001" y="567.9100000000001"/>
      <point x="470.944" y="556.6550000000001"/>
    </contour>
  </outline>
</glyph>
<glyph name="degree" format="2">
  <advance width="312.83"/>
  <unicode hex="00B0"/>
  <outline>
    <contour>
      <point x="155.942" y="461.1" type="curve" smooth="yes"/>
      <point x="235.157" y="461.1"/>
      <point x="282.024" y="522.197"/>
      <point x="282.024" y="591.07" type="curve" smooth="yes"/>
      <point x="282.024" y="657.99"/>
      <point x="237.45100000000002" y="722.42"/>
      <point x="155.942" y="722.42" type="curve" smooth="yes"/>
      <point x="73.999" y="722.42"/>
      <point x="30.805999999999997" y="657.99"/>
      <point x="30.805999999999997" y="591.07" type="curve" smooth="yes"/>
      <point x="30.805999999999997" y="522.197"/>
      <point x="76.727" y="461.1"/>
    </contour>
    <contour>
      <point x="155.942" y="521.3380000000001" type="curve" smooth="yes"/>
      <point x="118.97500000000001" y="521.3380000000001"/>
      <point x="93.83399999999999" y="551.611"/>
      <point x="93.83399999999999" y="590.977" type="curve" smooth="yes"/>
      <point x="93.83399999999999" y="629.2890000000001"/>
      <point x="118.44800000000001" y="661.3760000000001"/>
      <point x="155.942" y="661.3760000000001" type="curve" smooth="yes"/>
      <point x="193.002" y="661.3760000000001"/>
      <point x="219.43" y="629.2890000000001"/>
      <point x="219.43" y="590.977" type="curve" smooth="yes"/>
      <point x="219.43" y="551.611"/>
      <point x="192.90900000000002" y="521.3380000000001"/>
    </contour>
  </outline>
</glyph>
<glyph name="plusminus" format="2">
  <advance width="562.448"/>
  <unicode hex="00B1"/>
  <outline>
    <contour>
      <point x="55.428" y="49.463" type="line"/>
      <point x="507.02" y="49.463" type="line"/>
      <point x="507.02" y="122.628" type="line"/>
      <point x="322.038" y="122.628" type="line"/>
      <point x="322.038" y="295.086" type="line"/>
      <point x="507.02" y="295.086" type="line"/>
      <point x="507.02" y="368.25100000000003" type="line"/>
      <point x="322.038" y="368.25100000000003" type="line"/>
      <point x="322.038" y="542.2800000000001" type="line"/>
      <point x="240.19299999999998" y="542.2800000000001" type="line"/>
      <point x="240.19299999999998" y="368.25100000000003" type="line"/>
      <point x="55.428" y="368.25100000000003" type="line"/>
      <point x="55.428" y="295.086" type="line"/>
      <point x="240.19299999999998" y="295.086" type="line"/>
      <point x="240.19299999999998" y="122.628" type="line"/>
      <point x="55.428" y="122.628" type="line"/>
    </contour>
  </outline>
</glyph>
<glyph name="uni00B2" format="2">
  <advance width="520.103"/>
  <unicode hex="00B2"/>
  <outline>
    <contour>
      <point x="64.002" y="370.0" type="line"/>
      <point x="459.68399999999997" y="370.0" type="line"/>
      <point x="459.68399999999997" y="416.628" type="line"/>
      <point x="177.066" y="416.628" type="line"/>
      <point x="358.867" y="528.303"/>
      <point x="396.149" y="578.443"/>
      <point x="396.149" y="648.6010000000001" type="curve" smooth="yes"/>
      <point x="396.149" y="726.0690000000001"/>
      <point x="337.65" y="772.3580000000001"/>
      <point x="237.375" y="772.3580000000001" type="curve" smooth="yes"/>
      <point x="182.865" y="772.3580000000001"/>
      <point x="118.217" y="757.764"/>
      <point x="74.07199999999999" y="733.255" type="curve"/>
      <point x="92.979" y="686.078" type="line"/>
      <point x="136.86300000000003" y="707.895"/>
      <point x="179.758" y="717.1200000000001"/>
      <point x="221.849" y="717.1200000000001" type="curve" smooth="yes"/>
      <point x="285.77599999999995" y="717.1200000000001"/>
      <point x="320.019" y="686.285"/>
      <point x="320.019" y="636.412" type="curve" smooth="yes"/>
      <point x="320.019" y="575.196"/>
      <point x="263.231" y="522.991"/>
      <point x="61.932" y="411.24899999999997" type="curve"/>
    </contour>
  </outline>
</glyph>
<glyph name="uni00B3" format="2">
  <advance width="499.23400000000004"/>
  <unicode hex="00B3"/>
  <outline>
    <contour>
      <point x="27.965" y="400.456" type="line"/>
      <point x="88.243" y="372.112"/>
      <point x="152.14899999999997" y="361.209"/>
      <point x="231.95499999999998" y="361.209" type="curve" smooth="yes"/>
      <point x="370.79699999999997" y="361.209"/>
      <point x="458.109" y="404.447"/>
      <point x="458.109" y="485.20500000000004" type="curve" smooth="yes"/>
      <point x="458.109" y="536.905"/>
      <point x="419.54299999999995" y="569.6759999999999"/>
      <point x="346.27299999999997" y="578.9119999999999" type="curve"/>
      <point x="398.99" y="588.169"/>
      <point x="432.09799999999996" y="621.384"/>
      <point x="432.09799999999996" y="668.703" type="curve" smooth="yes"/>
      <point x="432.09799999999996" y="733.124"/>
      <point x="363.57399999999996" y="773.096"/>
      <point x="233.226" y="773.096" type="curve" smooth="yes"/>
      <point x="149.66299999999998" y="773.096"/>
      <point x="85.842" y="760.726"/>
      <point x="51.847" y="749.211" type="curve"/>
      <point x="64.593" y="703.148" type="line"/>
      <point x="90.777" y="710.123"/>
      <point x="133.093" y="722.908"/>
      <point x="216.488" y="722.908" type="curve" smooth="yes"/>
      <point x="305.098" y="722.908"/>
      <point x="362.99499999999995" y="697.5649999999999"/>
      <point x="362.99499999999995" y="655.815" type="curve" smooth="yes"/>
      <point x="362.99499999999995" y="617.439"/>
      <point x="326.29499999999996" y="594.419"/>
      <point x="256.08599999999996" y="594.419" type="curve" smooth="yes"/>
      <point x="139.461" y="594.419" type="line"/>
      <point x="139.461" y="552.211" type="line"/>
      <point x="247.946" y="552.211" type="line" smooth="yes"/>
      <point x="347.06199999999995" y="552.211"/>
      <point x="386.112" y="531.966"/>
      <point x="386.112" y="488.925" type="curve" smooth="yes"/>
      <point x="386.112" y="438.472"/>
      <point x="328.709" y="408.044"/>
      <point x="225.517" y="408.044" type="curve" smooth="yes"/>
      <point x="141.19099999999997" y="408.044"/>
      <point x="90.586" y="419.029"/>
      <point x="43.938" y="443.125" type="curve"/>
    </contour>
  </outline>
</glyph>
<glyph name="uni00B5" format="2">
  <advance width="715.12"/>
  <unicode hex="00B5"/>
  <outline>
    <contour>
      <point x="82.485" y="-210.0" type="line"/>
      <point x="176.82299999999998" y="-210.0" type="line"/>
      <point x="176.82299999999998" y="44.46300000000001" type="line"/>
      <point x="198.538" y="9.701999999999998"/>
      <point x="239.552" y="-9.814"/>
      <point x="299.62300000000005" y="-9.814" type="curve" smooth="yes"/>
      <point x="389.69599999999997" y="-9.814"/>
      <point x="453.97700000000003" y="20.983999999999998"/>
      <point x="532.1949999999999" y="65.895" type="curve"/>
      <point x="546.401" y="12.853"/>
      <point x="581.817" y="-10.0"/>
      <point x="628.924" y="-10.0" type="curve" smooth="yes"/>
      <point x="656.622" y="-10.0"/>
      <point x="685.9839999999999" y="-2.4640000000000004"/>
      <point x="707.1370000000001" y="8.734" type="curve"/>
      <point x="696.559" y="68.651" type="line"/>
      <point x="686.944" y="64.24"/>
      <point x="676.7249999999999" y="62.06700000000001"/>
      <point x="666.741" y="62.06700000000001" type="curve" smooth="yes"/>
      <point x="638.675" y="62.06700000000001"/>
      <point x="614.53" y="80.27199999999999"/>
      <point x="614.53" y="140.05" type="curve" smooth="yes"/>
      <point x="614.53" y="536.2" type="line"/>
      <point x="519.355" y="536.2" type="line"/>
      <point x="519.355" y="126.466" type="line"/>
      <point x="443.35799999999995" y="88.99499999999999"/>
      <point x="386.80800000000005" y="63.929"/>
      <point x="308.51200000000006" y="63.929" type="curve" smooth="yes"/>
      <point x="222.425" y="63.929"/>
      <point x="177.75300000000001" y="108.673"/>
      <point x="177.75300000000001" y="182.425" type="curve" smooth="yes"/>
      <point x="177.75300000000001" y="536.2" type="line"/>
      <point x="82.485" y="536.2" type="line"/>
    </contour>
  </outline>
</glyph>
<glyph name="paragraph" format="2">
  <advance width="723.0869999999999"/>
  <unicode hex="00B6"/>
  <outline>
    <contour>
      <point x="550.3589999999999" y="-210.0" type="line"/>
      <point x="626.717" y="-210.0" type="line"/>
      <point x="626.717" y="740.0" type="line"/>
      <point x="550.3589999999999" y="740.0" type="line"/>
    </contour>
    <contour>
      <point x="297.95900000000006" y="248.053" type="line"/>
      <point x="187.90599999999998" y="260.624"/>
      <point x="135.834" y="334.56399999999996"/>
      <point x="135.834" y="460.77000000000004" type="curve" smooth="yes"/>
      <point x="135.834" y="596.419"/>
      <point x="202.98499999999999" y="664.579"/>
      <point x="359.66299999999995" y="667.063" type="curve"/>
      <point x="359.66299999999995" y="-210.0" type="line"/>
      <point x="436.021" y="-210.0" type="line"/>
      <point x="436.021" y="740.0" type="line"/>
      <point x="381.935" y="740.0" type="line" smooth="yes"/>
      <point x="146.376" y="740.0"/>
      <point x="53.492999999999995" y="642.939"/>
      <point x="53.492999999999995" y="468.613" type="curve" smooth="yes"/>
      <point x="53.492999999999995" y="305.784"/>
      <point x="127.623" y="209.63"/>
      <point x="289.625" y="192.58899999999997" type="curve"/>
    </contour>
  </outline>
</glyph>
<glyph name="periodcentered" format="2">
  <advance width="229.006"/>
  <unicode hex="00B7"/>
  <outline>
    <contour>
      <point x="59.227999999999994" y="297.23" type="curve" smooth="yes"/>
      <point x="59.227999999999994" y="262.32"/>
      <point x="73.204" y="249.54000000000002"/>
      <point x="114.636" y="249.54000000000002" type="curve" smooth="yes"/>
      <point x="157.06799999999998" y="249.54000000000002"/>
      <point x="170.04399999999995" y="262.32"/>
      <point x="170.04399999999995" y="297.23" type="curve" smooth="yes"/>
      <point x="170.04399999999995" y="332.45"/>
      <point x="157.06799999999998" y="345.22999999999996"/>
      <point x="114.636" y="345.22999999999996" type="curve" smooth="yes"/>
      <point x="72.204" y="345.22999999999996"/>
      <point x="59.227999999999994" y="332.45"/>
    </contour>
  </outline>
</glyph>
<glyph name="uni00B9" format="2">
  <advance width="472.536"/>
  <unicode hex="00B9"/>
  <outline>
    <contour>
      <point x="42.435" y="370.0" type="line"/>
      <point x="445.00399999999996" y="370.0" type="line"/>
      <point x="445.00399999999996" y="417.92" type="line"/>
      <point x="295.40299999999996" y="417.92" type="line"/>
      <point x="295.40299999999996" y="767.6390000000001" type="line"/>
      <point x="257.299" y="767.6390000000001" type="line"/>
      <point x="29.064" y="674.352" type="line"/>
      <point x="47.785000000000004" y="623.157" type="line"/>
      <point x="219.98299999999998" y="696.143" type="line"/>
      <point x="219.98299999999998" y="417.92" type="line"/>
      <point x="42.435" y="417.92" type="line"/>
    </contour>
  </outline>
</glyph>
<glyph name="ordmasculine" format="2">
  <advance width="476.644"/>
  <unicode hex="00BA"/>
  <outline>
    <contour>
      <point x="61.541" y="248.832" type="line"/>
      <point x="423.69599999999997" y="248.832" type="line"/>
      <point x="423.69599999999997" y="301.702" type="line"/>
      <point x="61.541" y="301.702" type="line"/>
    </contour>
    <component base="o.superior" xOffset="10.484000000000002"/>
  </outline>
</glyph>
<glyph name="questiondown" format="2">
  <advance width="582.027"/>
  <unicode hex="00BF"/>
  <outline>
    <contour>
      <point x="354.385" y="273.959" type="line"/>
      <point x="271.889" y="273.959" type="line"/>
      <point x="271.455" y="209.59799999999998" type="line"/>
      <point x="109.15400000000001" y="159.897"/>
      <point x="36.257" y="100.05499999999999"/>
      <point x="36.257" y="-10.950000000000001" type="curve" smooth="yes"/>
      <point x="36.257" y="-162.15"/>
      <point x="166.609" y="-214.947"/>
      <point x="291.33099999999996" y="-214.947" type="curve" smooth="yes"/>
      <point x="382.35999999999996" y="-214.947"/>
      <point x="489.15599999999995" y="-189.11900000000003"/>
      <point x="563.252" y="-141.34199999999998" type="curve"/>
      <point x="535.54" y="-72.20400000000001" type="line"/>
      <point x="463.277" y="-115.22300000000001"/>
      <point x="379.536" y="-136.00600000000003"/>
      <point x="305.09499999999997" y="-136.00600000000003" type="curve" smooth="yes"/>
      <point x="220.69" y="-136.00600000000003"/>
      <point x="134.894" y="-101.09400000000001"/>
      <point x="134.894" y="-5.009" type="curve" smooth="yes"/>
      <point x="134.894" y="65.366"/>
      <point x="182.32" y="118.94099999999999"/>
      <point x="356.276" y="164.10899999999998" type="curve"/>
    </contour>
    <contour>
      <point x="365.371" y="490.928" type="curve" smooth="yes"/>
      <point x="365.371" y="525.497"/>
      <point x="351.508" y="538.2769999999999"/>
      <point x="310.03499999999997" y="538.2769999999999" type="curve" smooth="yes"/>
      <point x="268.058" y="538.2769999999999"/>
      <point x="254.906" y="525.497"/>
      <point x="254.906" y="490.928" type="curve" smooth="yes"/>
      <point x="254.906" y="456.04900000000004"/>
      <point x="268.058" y="443.269"/>
      <point x="310.03499999999997" y="443.269" type="curve" smooth="yes"/>
      <point x="352.40500000000003" y="443.269"/>
      <point x="365.371" y="456.04900000000004"/>
    </contour>
  </outline>
</glyph>
<glyph name="AE" format="2">
  <advance width="1260.786"/>
  <unicode hex="00C6"/>
  <anchor x="645.6159999999999" y="700.0" name="top"/>
  <outline>
    <contour>
      <point x="4.716000000000001" y="0.0" type="line"/>
      <point x="121.08399999999999" y="-0.42400000000000004" type="line"/>
      <point x="322.508" y="256.248" type="line"/>
      <point x="594.65" y="256.248" type="line"/>
      <point x="594.65" y="0.0" type="line"/>
      <point x="1222.494" y="0.0" type="line"/>
      <point x="1222.494" y="82.61999999999998" type="line"/>
      <point x="694.63" y="82.61999999999998" type="line"/>
      <point x="694.63" y="304.804" type="line"/>
      <point x="1171.798" y="304.804" type="line"/>
      <point x="1171.798" y="385.564" type="line"/>
      <point x="694.63" y="385.564" type="line"/>
      <point x="694.63" y="617.38" type="line"/>
      <point x="1199.3799999999999" y="617.38" type="line"/>
      <point x="1199.3799999999999" y="700.0" type="line"/>
      <point x="550.4499999999999" y="700.0" type="line"/>
    </contour>
    <contour>
      <point x="375.164" y="334.724" type="line"/>
      <point x="594.34" y="624.712" type="line"/>
      <point x="594.34" y="334.724" type="line"/>
    </contour>
  </outline>
</glyph>
<glyph name="multiply" format="2">
  <advance width="529.984"/>
  <unicode hex="00D7"/>
  <outline>
    <contour>
      <point x="107.15799999999999" y="79.80499999999999" type="line"/>
      <point x="265.26800000000003" y="249.177" type="line"/>
      <point x="422.343" y="81.461" type="line"/>
      <point x="471.33299999999997" y="135.315" type="line"/>
      <point x="320.394" y="299.439" type="line"/>
      <point x="472.0919999999999" y="465.15999999999997" type="line"/>
      <point x="423.102" y="519.014" type="line"/>
      <point x="265.26800000000003" y="349.90799999999996" type="line"/>
      <point x="106.67499999999998" y="519.98" type="line"/>
      <point x="57.684999999999995" y="466.126" type="line"/>
      <point x="210.13199999999998" y="299.439" type="line"/>
      <point x="58.168" y="133.659" type="line"/>
    </contour>
  </outline>
</glyph>
<glyph name="Oslash" format="2">
  <advance width="956.9799999999999"/>
  <unicode hex="00D8"/>
  <anchor x="476.765" y="700.0" name="top"/>
  <outline>
    <contour>
      <point x="151.17" y="-12.170000000000002" type="line"/>
      <point x="244.70999999999998" y="70.94000000000001" type="line"/>
      <point x="246.725" y="69.545" type="line"/>
      <point x="767.2099999999999" y="584.855" type="line"/>
      <point x="769.2249999999999" y="583.615" type="line"/>
      <point x="896.9299999999998" y="713.1" type="line"/>
      <point x="803.4649999999999" y="713.1" type="line"/>
      <point x="712.53" y="627.1350000000001" type="line"/>
      <point x="710.3249999999999" y="628.34" type="line"/>
      <point x="190.615" y="119.03999999999999" type="line"/>
      <point x="188.91" y="119.66" type="line"/>
      <point x="58.67" y="-12.170000000000002" type="line"/>
    </contour>
    <contour>
      <point x="476.91999999999996" y="59.87500000000001" type="curve" smooth="yes"/>
      <point x="318.96500000000003" y="59.87500000000001"/>
      <point x="157.1" y="121.45"/>
      <point x="157.1" y="350.12" type="curve" smooth="yes"/>
      <point x="157.1" y="584.7249999999999"/>
      <point x="318.81000000000006" y="640.1250000000001"/>
      <point x="476.91999999999996" y="640.1250000000001" type="curve" smooth="yes"/>
      <point x="634.9449999999999" y="640.1250000000001"/>
      <point x="797.81" y="585.105"/>
      <point x="797.81" y="350.12" type="curve" smooth="yes"/>
      <point x="797.81" y="115.17000000000002"/>
      <point x="634.9449999999999" y="59.87500000000001"/>
    </contour>
    <contour>
      <point x="477.075" y="-10.0" type="curve" smooth="yes"/>
      <point x="706.9699999999999" y="-10.0"/>
      <point x="897.0849999999999" y="67.96499999999999"/>
      <point x="897.0849999999999" y="353.31" type="curve" smooth="yes"/>
      <point x="897.0849999999999" y="630.64"/>
      <point x="706.22" y="710.0"/>
      <point x="476.91999999999996" y="710.0" type="curve" smooth="yes"/>
      <point x="245.43000000000004" y="710.0"/>
      <point x="58.514999999999986" y="628.76"/>
      <point x="58.514999999999986" y="350.585" type="curve" smooth="yes"/>
      <point x="58.514999999999986" y="76.09"/>
      <point x="250.39000000000004" y="-10.0"/>
    </contour>
  </outline>
</glyph>
<glyph name="Thorn" format="2">
  <advance width="846.843"/>
  <unicode hex="00DE"/>
  <outline>
    <contour>
      <point x="95.80799999999999" y="0.0" type="line"/>
      <point x="195.41599999999997" y="0.0" type="line"/>
      <point x="195.41599999999997" y="150.096" type="line"/>
      <point x="313.273" y="146.717"/>
      <point x="343.483" y="146.234"/>
      <point x="446.155" y="146.234" type="curve" smooth="yes"/>
      <point x="703.299" y="146.234"/>
      <point x="795.813" y="209.02800000000002"/>
      <point x="795.813" y="392.494" type="curve" smooth="yes"/>
      <point x="795.813" y="562.61"/>
      <point x="722.526" y="627.441"/>
      <point x="411.668" y="627.441" type="curve" smooth="yes"/>
      <point x="370.85699999999997" y="627.441"/>
      <point x="312.698" y="626.051"/>
      <point x="195.509" y="621.556" type="curve"/>
      <point x="195.509" y="700.0" type="line"/>
      <point x="95.80799999999999" y="700.0" type="line"/>
    </contour>
    <contour>
      <point x="412.696" y="221.445" type="curve" smooth="yes"/>
      <point x="331.488" y="221.445"/>
      <point x="287.909" y="223.111"/>
      <point x="195.509" y="225.821" type="curve"/>
      <point x="195.509" y="547.141" type="line"/>
      <point x="323.64599999999996" y="552.7729999999999"/>
      <point x="366.99299999999994" y="553.946"/>
      <point x="418.85" y="553.946" type="curve" smooth="yes"/>
      <point x="640.752" y="553.946"/>
      <point x="694.686" y="506.98699999999997"/>
      <point x="694.686" y="392.77199999999993" type="curve" smooth="yes"/>
      <point x="694.686" y="269.888"/>
      <point x="639.7909999999999" y="221.445"/>
    </contour>
  </outline>
</glyph>
<glyph name="germandbls" format="2">
  <advance width="808.5260000000001"/>
  <unicode hex="00DF"/>
  <outline>
    <contour>
      <point x="133.446" y="0.0" type="line"/>
      <point x="228.52800000000002" y="0.0" type="line"/>
      <point x="228.52800000000002" y="494.99799999999993" type="line" smooth="yes"/>
      <point x="228.52800000000002" y="620.628"/>
      <point x="304.51" y="681.396"/>
      <point x="453.43" y="681.396" type="curve" smooth="yes"/>
      <point x="578.588" y="681.396"/>
      <point x="616.6600000000001" y="661.3720000000001"/>
      <point x="616.6600000000001" y="608.364" type="curve" smooth="yes"/>
      <point x="616.6600000000001" y="567.314"/>
      <point x="586.952" y="550.456"/>
      <point x="497.68800000000005" y="527.6020000000001" type="curve" smooth="yes"/>
      <point x="385.918" y="502.342"/>
      <point x="340.856" y="459.976"/>
      <point x="340.856" y="388.632" type="curve" smooth="yes"/>
      <point x="340.856" y="301.484"/>
      <point x="390.94199999999995" y="262.438"/>
      <point x="563.8299999999998" y="233.41000000000003" type="curve" smooth="yes"/>
      <point x="678.708" y="211.33"/>
      <point x="715.442" y="192.184"/>
      <point x="715.442" y="140.04" type="curve" smooth="yes"/>
      <point x="715.442" y="83.946"/>
      <point x="643.1739999999999" y="55.937999999999995"/>
      <point x="554.636" y="55.937999999999995" type="curve" smooth="yes"/>
      <point x="480.06199999999995" y="55.937999999999995"/>
      <point x="383.996" y="71.94200000000001"/>
      <point x="310.658" y="94.338" type="curve"/>
      <point x="297.39599999999996" y="27.721999999999994" type="line"/>
      <point x="377.12399999999997" y="3.1479999999999992"/>
      <point x="470.61" y="-10.5"/>
      <point x="550.8539999999999" y="-10.5" type="curve" smooth="yes"/>
      <point x="684.446" y="-10.5"/>
      <point x="804.4479999999999" y="34.8"/>
      <point x="804.4479999999999" y="146.364" type="curve" smooth="yes"/>
      <point x="804.4479999999999" y="236.156"/>
      <point x="748.5499999999998" y="277.632"/>
      <point x="582.8939999999999" y="305.722" type="curve" smooth="yes"/>
      <point x="464.92799999999994" y="326.798"/>
      <point x="426.08" y="345.708"/>
      <point x="426.08" y="393.84" type="curve" smooth="yes"/>
      <point x="426.08" y="437.33599999999996"/>
      <point x="462.07399999999996" y="452.44"/>
      <point x="538.194" y="471.16200000000003" type="curve" smooth="yes"/>
      <point x="652.6439999999999" y="500.852"/>
      <point x="705.294" y="530.406"/>
      <point x="705.294" y="606.57" type="curve" smooth="yes"/>
      <point x="705.294" y="705.2900000000001"/>
      <point x="623.0199999999999" y="750.0"/>
      <point x="451.582" y="750.0" type="curve" smooth="yes"/>
      <point x="239.13600000000002" y="750.0"/>
      <point x="134.144" y="671.418"/>
      <point x="133.446" y="512.376" type="curve" smooth="yes"/>
      <point x="133.446" y="488.092" type="line"/>
      <point x="27.932000000000002" y="479.368" type="line"/>
      <point x="27.932000000000002" y="421.71599999999995" type="line"/>
      <point x="133.446" y="421.71599999999995" type="line"/>
    </contour>
  </outline>
</glyph>
<glyph name="ae" format="2">
  <advance width="1088.53"/>
  <unicode hex="00E6"/>
  <anchor x="557.19" y="536.2" name="top"/>
  <outline>
    <contour>
      <point x="212.64999999999998" y="-10.0" type="curve" smooth="yes"/>
      <point x="335.03999999999996" y="-10.0"/>
      <point x="418.35999999999996" y="31.860000000000007"/>
      <point x="507.95" y="100.1" type="curve"/>
      <point x="509.25999999999993" y="100.1" type="line"/>
      <point x="554.99" y="25.72"/>
      <point x="640.49" y="-10.0"/>
      <point x="772.71" y="-10.0" type="curve" smooth="yes"/>
      <point x="890.2299999999999" y="-10.0"/>
      <point x="966.9999999999999" y="3.949999999999999"/>
      <point x="1037.6399999999996" y="22.24" type="curve"/>
      <point x="1025.58" y="90.41" type="line"/>
      <point x="960.6599999999999" y="75.47999999999999"/>
      <point x="879.53" y="61.15"/>
      <point x="780.3399999999998" y="61.15" type="curve" smooth="yes"/>
      <point x="644.56" y="61.15"/>
      <point x="574.0699999999999" y="111.88"/>
      <point x="571.0199999999999" y="234.69" type="curve" smooth="yes"/>
      <point x="570.3999999999999" y="242.21000000000004"/>
      <point x="570.3999999999999" y="248.04000000000002"/>
      <point x="571.5899999999999" y="257.32" type="curve"/>
      <point x="809.6400000000001" y="259.17999999999995"/>
      <point x="975.14" y="274.01"/>
      <point x="1041.61" y="278.32" type="curve"/>
      <point x="1042.1099999999997" y="286.96999999999997"/>
      <point x="1042.9199999999998" y="297.66999999999996"/>
      <point x="1042.9199999999998" y="311.58" type="curve" smooth="yes"/>
      <point x="1042.9199999999998" y="469.34"/>
      <point x="948.18" y="546.2"/>
      <point x="772.9599999999999" y="546.2" type="curve" smooth="yes"/>
      <point x="658.71" y="546.2"/>
      <point x="575.19" y="505.12000000000006"/>
      <point x="536.11" y="421.28" type="curve"/>
      <point x="535.11" y="421.28" type="line"/>
      <point x="513.7399999999999" y="503.39"/>
      <point x="445.34999999999997" y="546.2"/>
      <point x="314.78999999999996" y="546.2" type="curve" smooth="yes"/>
      <point x="247.47" y="546.2"/>
      <point x="167.1" y="535.0799999999999"/>
      <point x="88.69" y="514.46" type="curve"/>
      <point x="102.17999999999999" y="445.36" type="line"/>
      <point x="175.76999999999998" y="464.62000000000006"/>
      <point x="253.13999999999996" y="474.43"/>
      <point x="309.7799999999999" y="474.43" type="curve" smooth="yes"/>
      <point x="420.41999999999996" y="474.43"/>
      <point x="475.2099999999999" y="435.57"/>
      <point x="475.2099999999999" y="364.82" type="curve" smooth="yes"/>
      <point x="475.2099999999999" y="312.76" type="line"/>
      <point x="152.45000000000002" y="297.91"/>
      <point x="46.72" y="261.99999999999994"/>
      <point x="46.72" y="131.37999999999997" type="curve" smooth="yes"/>
      <point x="46.72" y="39.7"/>
      <point x="107.48999999999998" y="-10.0"/>
    </contour>
    <contour>
      <point x="244.89" y="51.660000000000004" type="curve" smooth="yes"/>
      <point x="181.68" y="51.660000000000004"/>
      <point x="144.22" y="80.12000000000002"/>
      <point x="144.22" y="137.31" type="curve" smooth="yes"/>
      <point x="144.22" y="225.44"/>
      <point x="231.29" y="248.92999999999998"/>
      <point x="474.3299999999999" y="260.71000000000004" type="curve"/>
      <point x="474.1399999999999" y="253.01999999999998"/>
      <point x="474.1399999999999" y="245.21"/>
      <point x="474.1399999999999" y="233.07" type="curve" smooth="yes"/>
      <point x="474.1399999999999" y="200.99"/>
      <point x="476.40000000000003" y="175.12"/>
      <point x="482.22999999999996" y="153.57999999999998" type="curve"/>
      <point x="421.99999999999994" y="94.53999999999999"/>
      <point x="327.34999999999997" y="51.660000000000004"/>
    </contour>
    <contour>
      <point x="572.97" y="312.15999999999997" type="curve"/>
      <point x="584.54" y="434.12999999999994"/>
      <point x="664.19" y="481.43999999999994"/>
      <point x="767.31" y="481.43999999999994" type="curve" smooth="yes"/>
      <point x="877.0899999999999" y="481.43999999999994"/>
      <point x="941.2" y="427.72999999999996"/>
      <point x="944.92" y="326.51000000000005" type="curve"/>
      <point x="899.3399999999998" y="323.32"/>
      <point x="761.4799999999999" y="312.15999999999997"/>
    </contour>
  </outline>
</glyph>
<glyph name="eth" format="2">
  <advance width="716.9199999999998"/>
  <unicode hex="00F0"/>
  <outline>
    <contour>
      <point x="590.4399999999999" y="407.27" type="curve"/>
      <point x="592.1799999999998" y="468.31" type="line"/>
      <point x="527.16" y="511.08000000000004"/>
      <point x="451.55999999999995" y="528.2199999999999"/>
      <point x="356.07" y="528.2199999999999" type="curve" smooth="yes"/>
      <point x="145.64" y="528.2199999999999"/>
      <point x="48.1" y="433.76"/>
      <point x="48.1" y="255.04" type="curve" smooth="yes"/>
      <point x="48.1" y="75.97999999999999"/>
      <point x="147.50999999999996" y="-10.0"/>
      <point x="340.47999999999996" y="-10.0" type="curve" smooth="yes"/>
      <point x="570.3599999999999" y="-10.0"/>
      <point x="669.82" y="91.97999999999999"/>
      <point x="669.82" y="351.66" type="curve" smooth="yes"/>
      <point x="669.82" y="610.3000000000001"/>
      <point x="536.7499999999999" y="726.43"/>
      <point x="291.16" y="726.43" type="curve" smooth="yes"/>
      <point x="215.85" y="726.43"/>
      <point x="148.55" y="718.81"/>
      <point x="62.95" y="700.12" type="curve"/>
      <point x="71.41" y="641.01" type="line"/>
      <point x="150.44" y="656.77"/>
      <point x="204.92999999999998" y="665.46"/>
      <point x="272.11000000000007" y="665.46" type="curve" smooth="yes"/>
      <point x="484.6499999999999" y="665.46"/>
      <point x="576.97" y="579.14"/>
      <point x="576.97" y="348.60999999999996" type="curve" smooth="yes"/>
      <point x="576.97" y="133.32999999999998"/>
      <point x="509.04999999999995" y="57.86"/>
      <point x="350.7099999999999" y="57.86" type="curve" smooth="yes"/>
      <point x="215.26000000000002" y="57.86"/>
      <point x="145.6" y="119.11999999999999"/>
      <point x="145.6" y="258.21" type="curve" smooth="yes"/>
      <point x="145.6" y="401.94"/>
      <point x="222.32" y="466.01"/>
      <point x="370.12000000000006" y="466.01" type="curve" smooth="yes"/>
      <point x="457.13999999999993" y="466.01"/>
      <point x="526.89" y="447.82"/>
    </contour>
    <contour>
      <point x="216.34999999999997" y="553.77" type="line"/>
      <point x="470.2499999999999" y="654.3000000000001" type="line"/>
      <point x="470.6499999999999" y="658.66" type="line"/>
      <point x="658.69" y="735.7399999999999" type="line"/>
      <point x="547.48" y="735.7399999999999" type="line"/>
      <point x="415.6499999999999" y="682.42" type="line"/>
      <point x="419.44" y="679.87" type="line"/>
      <point x="104.83" y="553.77" type="line"/>
    </contour>
  </outline>
</glyph>
<glyph name="divide" format="2">
  <advance width="556.01"/>
  <unicode hex="00F7"/>
  <outline>
    <contour>
      <point x="231.43199999999996" y="108.574" type="curve" smooth="yes"/>
      <point x="231.43199999999996" y="79.24400000000001"/>
      <point x="243.12400000000002" y="69.56400000000001"/>
      <point x="278.15999999999997" y="69.56400000000001" type="curve" smooth="yes"/>
      <point x="314.082" y="69.56400000000001"/>
      <point x="324.88800000000003" y="79.24400000000001"/>
      <point x="324.88800000000003" y="108.574" type="curve" smooth="yes"/>
      <point x="324.88800000000003" y="137.59400000000002"/>
      <point x="313.96799999999996" y="147.894"/>
      <point x="278.15999999999997" y="147.894" type="curve" smooth="yes"/>
      <point x="242.238" y="147.894"/>
      <point x="231.43199999999996" y="137.59400000000002"/>
    </contour>
    <contour>
      <point x="231.43199999999996" y="490.196" type="curve" smooth="yes"/>
      <point x="231.43199999999996" y="461.48599999999993"/>
      <point x="243.238" y="451.18600000000004"/>
      <point x="278.15999999999997" y="451.18600000000004" type="curve" smooth="yes"/>
      <point x="314.082" y="451.18600000000004"/>
      <point x="324.88800000000003" y="461.48599999999993"/>
      <point x="324.88800000000003" y="490.196" type="curve" smooth="yes"/>
      <point x="324.88800000000003" y="519.836"/>
      <point x="314.082" y="529.826"/>
      <point x="278.15999999999997" y="529.826" type="curve" smooth="yes"/>
      <point x="242.238" y="529.826"/>
      <point x="231.43199999999996" y="519.836"/>
    </contour>
    <contour>
      <point x="55.614" y="262.88" type="line"/>
      <point x="500.70599999999996" y="262.88" type="line"/>
      <point x="500.70599999999996" y="336.20000000000005" type="line"/>
      <point x="55.614" y="336.20000000000005" type="line"/>
    </contour>
  </outline>
</glyph>
<glyph name="oslash" format="2">
  <advance width="726.3499999999999"/>
  <unicode hex="00F8"/>
  <anchor x="362.77" y="536.2" name="top"/>
  <outline>
    <contour>
      <point x="362.77" y="-10.0" type="curve" smooth="yes"/>
      <point x="141.70000000000002" y="-10.0"/>
      <point x="48.72" y="80.06"/>
      <point x="48.72" y="269.6" type="curve" smooth="yes"/>
      <point x="48.72" y="449.95"/>
      <point x="129.07999999999998" y="546.2"/>
      <point x="362.77" y="546.2" type="curve" smooth="yes"/>
      <point x="596.0300000000001" y="546.2"/>
      <point x="677.0100000000001" y="449.95"/>
      <point x="677.0100000000001" y="269.6" type="curve" smooth="yes"/>
      <point x="677.0100000000001" y="80.06"/>
      <point x="584.0300000000001" y="-10.0"/>
    </contour>
    <contour>
      <point x="362.77" y="53.519999999999996" type="curve" smooth="yes"/>
      <point x="518.6599999999999" y="53.519999999999996"/>
      <point x="582.3" y="120.07000000000001"/>
      <point x="582.3" y="269.6" type="curve" smooth="yes"/>
      <point x="582.3" y="412.56"/>
      <point x="528.1799999999998" y="482.68"/>
      <point x="362.77" y="482.68" type="curve" smooth="yes"/>
      <point x="197.23999999999998" y="482.68"/>
      <point x="143.12" y="412.56"/>
      <point x="143.12" y="269.6" type="curve" smooth="yes"/>
      <point x="143.12" y="120.07000000000001"/>
      <point x="206.75999999999996" y="53.519999999999996"/>
    </contour>
    <contour>
      <point x="48.53" y="-9.07" type="line"/>
      <point x="148.49" y="92.11" type="line"/>
      <point x="148.98999999999998" y="91.8" type="line"/>
      <point x="533.3100000000001" y="483.48" type="line"/>
      <point x="533.81" y="483.17" type="line"/>
      <point x="596.4299999999998" y="546.2" type="line"/>
      <point x="677.2" y="546.2" type="line"/>
      <point x="578.31" y="445.46999999999997" type="line"/>
      <point x="577.81" y="445.78" type="line"/>
      <point x="193.54000000000002" y="55.57999999999999" type="line"/>
      <point x="193.03999999999996" y="55.89000000000001" type="line"/>
      <point x="128.06" y="-9.07" type="line"/>
    </contour>
  </outline>
</glyph>
<glyph name="thorn" format="2">
  <advance width="709.043"/>
  <unicode hex="00FE"/>
  <outline>
    <contour>
      <point x="82.485" y="-210.0" type="line"/>
      <point x="177.691" y="-210.0" type="line"/>
      <point x="177.691" y="4.864999999999999" type="line"/>
      <point x="230.504" y="-5.022"/>
      <point x="285.99399999999997" y="-10.0"/>
      <point x="334.608" y="-10.0" type="curve" smooth="yes"/>
      <point x="561.4069999999999" y="-10.0"/>
      <point x="660.075" y="73.982"/>
      <point x="660.075" y="273.012" type="curve" smooth="yes"/>
      <point x="660.075" y="449.514"/>
      <point x="561.64" y="546.2"/>
      <point x="382.367" y="546.2" type="curve" smooth="yes"/>
      <point x="317.16799999999995" y="546.2"/>
      <point x="247.64800000000002" y="534.1930000000001"/>
      <point x="177.877" y="512.204" type="curve"/>
      <point x="177.877" y="740.0" type="line"/>
      <point x="82.485" y="740.0" type="line"/>
    </contour>
    <contour>
      <point x="334.596" y="55.551" type="curve" smooth="yes"/>
      <point x="290.61899999999997" y="55.551"/>
      <point x="238.308" y="61.489999999999995"/>
      <point x="177.75300000000001" y="74.265" type="curve"/>
      <point x="177.75300000000001" y="446.98800000000006" type="line"/>
      <point x="237.73899999999998" y="463.479"/>
      <point x="296.006" y="471.483"/>
      <point x="344.471" y="471.483" type="curve" smooth="yes"/>
      <point x="488.79099999999994" y="471.483"/>
      <point x="563.009" y="403.70300000000003"/>
      <point x="563.009" y="268.021" type="curve" smooth="yes"/>
      <point x="563.009" y="116.115"/>
      <point x="493.03799999999995" y="55.551"/>
    </contour>
  </outline>
</glyph>
<glyph name="Dcroat" format="2">
  <advance width="906.9379999999999"/>
  <unicode hex="0110"/>
  <outline>
    <contour>
      <point x="2.700000000000001" y="323.03" type="line"/>
      <point x="377.084" y="323.03" type="line"/>
      <point x="377.084" y="392.32" type="line"/>
      <point x="2.700000000000001" y="392.32" type="line"/>
    </contour>
    <component base="D" xOffset="2.9680000000000004"/>
  </outline>
</glyph>
<glyph name="dcroat" format="2">
  <advance width="712.67"/>
  <unicode hex="0111"/>
  <outline>
    <contour>
      <point x="325.026" y="609.63" type="line"/>
      <point x="721.9680000000001" y="609.63" type="line"/>
      <point x="721.9680000000001" y="661.42" type="line"/>
      <point x="325.026" y="661.42" type="line"/>
    </contour>
    <component base="d"/>
  </outline>
</glyph>
<glyph name="Hbar" format="2">
  <advance width="927.211"/>
  <unicode hex="0126"/>
  <outline>
    <contour>
      <point x="28.339999999999996" y="497.65500000000003" type="line"/>
      <point x="96.02499999999999" y="497.65500000000003" type="line"/>
      <point x="96.02499999999999" y="0.0" type="line"/>
      <point x="195.54" y="0.0" type="line"/>
      <point x="195.54" y="267.51500000000004" type="line"/>
      <point x="733.841" y="267.51500000000004" type="line"/>
      <point x="733.841" y="0.0" type="line"/>
      <point x="831.1859999999999" y="0.0" type="line"/>
      <point x="831.1859999999999" y="497.65500000000003" type="line"/>
      <point x="898.8709999999999" y="497.65500000000003" type="line"/>
      <point x="898.8709999999999" y="560.5270000000002" type="line"/>
      <point x="831.1859999999999" y="560.5270000000002" type="line"/>
      <point x="831.1859999999999" y="700.0" type="line"/>
      <point x="733.841" y="700.0" type="line"/>
      <point x="733.841" y="560.5270000000002" type="line"/>
      <point x="195.54" y="560.5270000000002" type="line"/>
      <point x="195.54" y="700.0" type="line"/>
      <point x="96.02499999999999" y="700.0" type="line"/>
      <point x="96.02499999999999" y="560.5270000000002" type="line"/>
      <point x="28.339999999999996" y="560.5270000000002" type="line"/>
    </contour>
    <contour>
      <point x="195.54" y="350.393" type="line"/>
      <point x="195.54" y="497.65500000000003" type="line"/>
      <point x="733.841" y="497.65500000000003" type="line"/>
      <point x="733.841" y="350.393" type="line"/>
    </contour>
  </outline>
</glyph>
<glyph name="hbar" format="2">
  <advance width="717.8770000000001"/>
  <unicode hex="0127"/>
  <outline>
    <contour>
      <point x="-9.184" y="609.475" type="line"/>
      <point x="415.033" y="609.475" type="line"/>
      <point x="415.033" y="657.545" type="line"/>
      <point x="-9.184" y="657.545" type="line"/>
    </contour>
    <component base="h"/>
  </outline>
</glyph>
<glyph name="Idotaccent" format="2">
  <advance width="291.131"/>
  <unicode hex="0130"/>
  <outline>
    <contour>
      <point x="145.705" y="794.427" type="curve" smooth="yes"/>
      <point x="190.49299999999997" y="794.427"/>
      <point x="204.98800000000003" y="806.804"/>
      <point x="204.98800000000003" y="840.257" type="curve" smooth="yes"/>
      <point x="204.98800000000003" y="873.8960000000001"/>
      <point x="190.30700000000002" y="886.1800000000001"/>
      <point x="145.705" y="886.1800000000001" type="curve" smooth="yes"/>
      <point x="101.00999999999999" y="886.1800000000001"/>
      <point x="86.32899999999998" y="873.8960000000001"/>
      <point x="86.32899999999998" y="840.257" type="curve" smooth="yes"/>
      <point x="86.32899999999998" y="806.711"/>
      <point x="101.69999999999999" y="794.427"/>
    </contour>
    <component base="I"/>
  </outline>
</glyph>
<glyph name="dotlessi" format="2">
  <advance width="260.424"/>
  <unicode hex="0131"/>
  <anchor x="170.574" y="3.1" name="ogonek"/>
  <anchor x="130.398" y="0.0" name="bottom"/>
  <anchor x="130.212" y="536.2" name="top"/>
  <outline>
    <contour>
      <point x="82.485" y="0.0" type="line"/>
      <point x="177.939" y="0.0" type="line"/>
      <point x="177.939" y="536.2" type="line"/>
      <point x="82.485" y="536.2" type="line"/>
    </contour>
  </outline>
</glyph>
<glyph name="kgreenlandic" format="2">
  <advance width="664.9299999999998"/>
  <unicode hex="0138"/>
  <anchor x="333.13999999999993" y="536.2" name="top"/>
  <anchor x="333.13999999999993" y="0.0" name="bottom"/>
  <outline>
    <contour>
      <point x="624.2099999999999" y="-9.31" type="curve" smooth="yes"/>
      <point x="635.22" y="-9.31"/>
      <point x="643.89" y="-8.62"/>
      <point x="651.3699999999999" y="-7.309999999999998" type="curve"/>
      <point x="648.8" y="82.75" type="line"/>
      <point x="642.5599999999998" y="82.06"/>
      <point x="636.6299999999999" y="81.56"/>
      <point x="632.2699999999999" y="81.56" type="curve" smooth="yes"/>
      <point x="592.1000000000001" y="81.56"/>
      <point x="541.0799999999999" y="107.97999999999999"/>
      <point x="406.67" y="211.98" type="curve" smooth="yes"/>
      <point x="174.56" y="391.89000000000004" type="line"/>
      <point x="174.56" y="536.2" type="line"/>
      <point x="82.33000000000001" y="536.2" type="line"/>
      <point x="82.33000000000001" y="0.0" type="line"/>
      <point x="174.56" y="0.0" type="line"/>
      <point x="174.56" y="286.65000000000003" type="line"/>
      <point x="391.19999999999993" y="118.49" type="line" smooth="yes"/>
      <point x="542.07" y="1.0500000000000007"/>
      <point x="579.3199999999999" y="-9.31"/>
    </contour>
    <contour>
      <point x="308.97999999999996" y="253.02" type="line"/>
      <point x="410.28" y="315.56999999999994"/>
      <point x="558.03" y="407.84999999999997"/>
      <point x="615.6099999999999" y="533.2" type="curve"/>
      <point x="516.3399999999999" y="543.39" type="line"/>
      <point x="464.9099999999999" y="432.75"/>
      <point x="344.66999999999996" y="359.28000000000003"/>
      <point x="220.43999999999997" y="280.78" type="curve"/>
    </contour>
  </outline>
</glyph>
<glyph name="Ldot" format="2">
  <advance width="704.49"/>
  <unicode hex="013F"/>
  <outline>
    <contour>
      <point x="440.568" y="388.12299999999993" type="curve" smooth="yes"/>
      <point x="440.568" y="356.158"/>
      <point x="453.17999999999995" y="344.68"/>
      <point x="492.53499999999997" y="344.68" type="curve" smooth="yes"/>
      <point x="532.673" y="344.68"/>
      <point x="544.5949999999999" y="356.158"/>
      <point x="544.5949999999999" y="388.12299999999993" type="curve" smooth="yes"/>
      <point x="544.5949999999999" y="420.39799999999997"/>
      <point x="532.673" y="431.876"/>
      <point x="492.53499999999997" y="431.876" type="curve" smooth="yes"/>
      <point x="452.48999999999995" y="431.876"/>
      <point x="440.568" y="420.39799999999997"/>
    </contour>
    <component base="L"/>
  </outline>
</glyph>
<glyph name="ldot" format="2">
  <advance width="356.455"/>
  <unicode hex="0140"/>
  <outline>
    <contour>
      <point x="317.21" y="337.223" type="curve" smooth="yes"/>
      <point x="344.08" y="337.223"/>
      <point x="351.56899999999996" y="345.911"/>
      <point x="351.56899999999996" y="373.474" type="curve" smooth="yes"/>
      <point x="351.56899999999996" y="401.13000000000005"/>
      <point x="344.08" y="409.81800000000004"/>
      <point x="317.21" y="409.81800000000004" type="curve" smooth="yes"/>
      <point x="290.433" y="409.81800000000004"/>
      <point x="282.944" y="401.13000000000005"/>
      <point x="282.944" y="373.474" type="curve" smooth="yes"/>
      <point x="282.944" y="345.911"/>
      <point x="291.123" y="337.223"/>
    </contour>
    <component base="l"/>
  </outline>
</glyph>
<glyph name="Lslash" format="2">
  <advance width="711.0390000000001"/>
  <unicode hex="0141"/>
  <outline>
    <contour>
      <point x="17.65" y="179.575" type="line"/>
      <point x="102.357" y="229.755" type="line"/>
      <point x="102.357" y="0.0" type="line"/>
      <point x="687.679" y="0.0" type="line"/>
      <point x="687.679" y="82.22699999999999" type="line"/>
      <point x="201.965" y="82.22699999999999" type="line"/>
      <point x="201.965" y="276.769" type="line"/>
      <point x="474.851" y="435.475" type="line"/>
      <point x="474.851" y="518.107" type="line"/>
      <point x="201.965" y="359.60799999999995" type="line"/>
      <point x="201.965" y="700.0" type="line"/>
      <point x="102.357" y="700.0" type="line"/>
      <point x="102.357" y="312.594" type="line"/>
      <point x="17.65" y="262.414" type="line"/>
    </contour>
  </outline>
</glyph>
<glyph name="lslash" format="2">
  <advance width="347.341"/>
  <unicode hex="0142"/>
  <outline>
    <contour>
      <point x="230.428" y="-10.0" type="curve" smooth="yes"/>
      <point x="274.78099999999995" y="-10.0"/>
      <point x="318.851" y="-1.382000000000001"/>
      <point x="353.973" y="8.706999999999999" type="curve"/>
      <point x="342.905" y="82.223" type="line"/>
      <point x="314.478" y="75.76100000000001"/>
      <point x="286.581" y="70.512"/>
      <point x="261.986" y="70.512" type="curve" smooth="yes"/>
      <point x="218.119" y="70.512"/>
      <point x="181.039" y="89.341"/>
      <point x="181.039" y="177.95199999999997" type="curve" smooth="yes"/>
      <point x="181.039" y="288.965" type="line"/>
      <point x="305.94" y="396.392" type="line"/>
      <point x="305.94" y="472.09" type="line"/>
      <point x="181.039" y="364.663" type="line"/>
      <point x="181.039" y="740.0" type="line"/>
      <point x="85.864" y="740.0" type="line"/>
      <point x="85.864" y="308.093" type="line"/>
      <point x="17.330999999999996" y="249.302" type="line"/>
      <point x="17.330999999999996" y="173.811" type="line"/>
      <point x="86.298" y="232.612" type="line"/>
      <point x="86.732" y="155.136" type="line" smooth="yes"/>
      <point x="90.421" y="24.299"/>
      <point x="147.595" y="-10.0"/>
    </contour>
  </outline>
</glyph>
<glyph name="Eng" format="2">
  <advance width="910.325"/>
  <unicode hex="014A"/>
  <outline>
    <contour>
      <point x="95.91499999999999" y="0.0" type="line"/>
      <point x="186.74999999999997" y="0.0" type="line"/>
      <point x="186.74999999999997" y="565.57" type="line"/>
      <point x="721.7149999999999" y="0.9950000000000001" type="line"/>
      <point x="721.7149999999999" y="-8.195" type="line" smooth="yes"/>
      <point x="718.9549999999999" y="-93.91999999999999"/>
      <point x="647.465" y="-126.93"/>
      <point x="547.23" y="-126.93" type="curve" smooth="yes"/>
      <point x="502.18500000000006" y="-126.93"/>
      <point x="450.71" y="-119.78999999999998"/>
      <point x="406.83000000000004" y="-110.63499999999999" type="curve"/>
      <point x="392.325" y="-181.75" type="line"/>
      <point x="440.08" y="-192.49"/>
      <point x="499.40999999999997" y="-201.025"/>
      <point x="556.84" y="-201.025" type="curve" smooth="yes"/>
      <point x="709.4" y="-201.025"/>
      <point x="814.41" y="-142.76999999999998"/>
      <point x="814.41" y="-10.62" type="curve" smooth="yes"/>
      <point x="814.41" y="700.0" type="line"/>
      <point x="723.8849999999999" y="700.0" type="line"/>
      <point x="723.8849999999999" y="127.76499999999999" type="line"/>
      <point x="184.40499999999997" y="704.83" type="line"/>
      <point x="95.91499999999999" y="704.83" type="line"/>
    </contour>
  </outline>
</glyph>
<glyph name="eng" format="2">
  <advance width="717.691"/>
  <unicode hex="014B"/>
  <outline>
    <contour>
      <point x="635.392" y="19.4" type="curve"/>
      <point x="635.392" y="369.628" type="line" smooth="yes"/>
      <point x="635.392" y="477.90799999999996"/>
      <point x="569.902" y="546.2"/>
      <point x="437.961" y="546.2" type="curve" smooth="yes"/>
      <point x="336.08299999999997" y="546.2"/>
      <point x="263.15099999999995" y="515.216"/>
      <point x="169.445" y="468.9390000000001" type="curve"/>
      <point x="169.445" y="536.2" type="line"/>
      <point x="82.485" y="536.2" type="line"/>
      <point x="82.485" y="0.0" type="line"/>
      <point x="177.75300000000001" y="0.0" type="line"/>
      <point x="177.75300000000001" y="407.48400000000004" type="line"/>
      <point x="258.36799999999994" y="445.084"/>
      <point x="319.144" y="470.938"/>
      <point x="402.28799999999995" y="470.938" type="curve" smooth="yes"/>
      <point x="495.9479999999999" y="470.938"/>
      <point x="540.124" y="423.5"/>
      <point x="540.124" y="340.61199999999997" type="curve" smooth="yes"/>
      <point x="540.124" y="17.778" type="line" smooth="yes"/>
      <point x="540.124" y="-58.12799999999999"/>
      <point x="518.048" y="-102.738"/>
      <point x="476.56300000000005" y="-124.81799999999998" type="curve" smooth="yes"/>
      <point x="467.59799999999996" y="-128.75100000000003"/>
      <point x="457.486" y="-131.467"/>
      <point x="447.056" y="-133.49299999999997" type="curve"/>
      <point x="448.88199999999995" y="-208.35700000000003" type="line"/>
      <point x="466.0369999999999" y="-207.157"/>
      <point x="482.737" y="-203.85399999999998"/>
      <point x="498.50199999999995" y="-199.714" type="curve" smooth="yes"/>
      <point x="584.057" y="-175.15"/>
      <point x="635.392" y="-99.02099999999999"/>
    </contour>
  </outline>
</glyph>
<glyph name="OE" format="2">
  <advance width="1381.262"/>
  <unicode hex="0152"/>
  <outline>
    <contour>
      <point x="1342.9699999999998" y="0.0" type="line"/>
      <point x="1342.9699999999998" y="82.61999999999998" type="line"/>
      <point x="808.2859999999998" y="82.61999999999998" type="line"/>
      <point x="808.2859999999998" y="328.56" type="line"/>
      <point x="1291.964" y="328.56" type="line"/>
      <point x="1291.964" y="409.32" type="line"/>
      <point x="808.2859999999998" y="409.32" type="line"/>
      <point x="808.2859999999998" y="617.69" type="line"/>
      <point x="1319.5459999999998" y="617.69" type="line"/>
      <point x="1319.5459999999998" y="700.0" type="line"/>
      <point x="803.6359999999999" y="700.0" type="line"/>
      <point x="691.732" y="704.1959999999999"/>
      <point x="581.0479999999999" y="708.696"/>
      <point x="479.49600000000004" y="708.696" type="curve" smooth="yes"/>
      <point x="231.86399999999995" y="708.696"/>
      <point x="58.974" y="615.3319999999999"/>
      <point x="58.974" y="354.696" type="curve" smooth="yes"/>
      <point x="58.974" y="58.81399999999999"/>
      <point x="255.53799999999998" y="-9.233999999999998"/>
      <point x="499.68600000000004" y="-9.233999999999998" type="curve" smooth="yes"/>
      <point x="608.646" y="-9.233999999999998"/>
      <point x="700.3639999999999" y="-4.93"/>
      <point x="808.2859999999998" y="0.0" type="curve"/>
    </contour>
    <contour>
      <point x="708.306" y="70.384" type="line"/>
      <point x="663.1759999999999" y="68.384"/>
      <point x="577.0099999999999" y="63.662"/>
      <point x="496.09000000000003" y="63.662" type="curve" smooth="yes"/>
      <point x="329.018" y="63.662"/>
      <point x="161.504" y="108.654"/>
      <point x="161.504" y="353.19" type="curve" smooth="yes"/>
      <point x="161.504" y="584.56"/>
      <point x="330.62" y="636.2239999999999"/>
      <point x="480.734" y="636.2239999999999" type="curve" smooth="yes"/>
      <point x="527.066" y="636.2239999999999"/>
      <point x="672.6639999999999" y="630.0400000000001"/>
      <point x="708.306" y="628.882" type="curve"/>
    </contour>
  </outline>
</glyph>
